<svg xmlns="http://www.w3.org/2000/svg" width="48" height="48" fill="none"><path fill="#010101" d="M4.8 0h38.4C45.8511 0 48 2.14886 48 4.8v38.4c0 2.6511-2.1489 4.8-4.8 4.8H4.8C2.14886 48 0 45.8511 0 43.2V4.8C0 2.14886 2.14886 0 4.8 0Z"/><path fill="#EE1D52" d="M32.1982 18.9298c2.4806 1.7724 5.5198 2.8153 8.802 2.8153v-6.313c-.6212.0002-1.2408-.0646-1.8485-.1934v4.9693c-3.2819 0-6.3207-1.0429-8.802-2.8152v12.8827c0 6.4447-5.227 11.6688-11.6746 11.6688-2.4057 0-4.6418-.727-6.4993-1.9737 2.12 2.1666 5.0765 3.5107 8.3473 3.5107 6.4481 0 11.6753-5.224 11.6753-11.6689V18.9298h-.0002Zm2.2803-6.3689c-1.2678-1.3843-2.1001-3.1734-2.2803-5.15131v-.81193h-1.7517c.4408 2.51376 1.9448 4.66144 4.032 5.96324ZM16.2538 35.0254c-.7082-.9282-1.0911-2.0638-1.0894-3.2314 0-2.9476 2.3909-5.3374 5.3406-5.3374.5496-.0004 1.096.084 1.62.25v-6.4539c-.6122-.0839-1.2301-.1194-1.8478-.1063v5.0234c-.5242-.1661-1.0709-.2504-1.6207-.25-2.9497 0-5.3403 2.3898-5.3403 5.3376 0 2.0842 1.195 3.889 2.9376 4.768Z"/><path fill="#fff" d="M30.35 17.3928c2.4814 1.7723 5.5201 2.8152 8.8021 2.8152v-4.9693c-1.832-.3898-3.4538-1.3468-4.6733-2.6778-2.0871-1.3018-3.5911-3.44948-4.032-5.96324h-4.6011V31.8121c-.0105 2.9395-2.3973 5.3195-5.3406 5.3195-1.7345 0-3.2754-.8262-4.2512-2.1062-1.7426-.879-2.9376-2.6838-2.9376-4.768 0-2.9478 2.3907-5.3376 5.3403-5.3376.5651 0 1.1098.0879 1.6207.25v-5.0234c-6.3343.1308-11.42867 5.3038-11.42867 11.666 0 3.1758 1.26867 6.055 3.32747 8.1585 1.8576 1.2467 4.0937 1.9736 6.4993 1.9736 6.4476 0 11.6746-5.2243 11.6746-11.6687v-12.883Z"/><path fill="#69C9D0" d="M39.1517 15.2394v-1.3437c-1.6521.0025-3.2716-.4599-4.6732-1.3344 1.2407 1.3577 2.8745 2.294 4.6732 2.6781Zm-8.7052-8.64106c-.0422-.24021-.0744-.48204-.0968-.72489v-.81193h-6.3531V30.2762c-.0102 2.9393-2.3968 5.3193-5.3404 5.3193-.8642 0-1.68-.2049-2.4026-.5694.9758 1.28 2.5167 2.1062 4.2511 2.1062 2.9431 0 5.3302-2.38 5.3406-5.3195V6.59834h4.6012ZM20.2772 20.1471v-1.4306c-.5309-.0725-1.0661-.1088-1.6019-.1085C12.227 18.608 7 23.8322 7 30.2762c0 4.0402 2.0543 7.6007 5.176 9.6951-2.0588-2.1035-3.32751-4.9826-3.32751-8.1585 0-6.3619 5.09421-11.535 11.42871-11.6657Z"/></svg>