<svg width="45" height="36" viewBox="0 0 45 36" fill="none" xmlns="http://www.w3.org/2000/svg">
<g clip-path="url(#clip0_1026_9)">
<path d="M41.0124 2.70808C42.5841 4.28086 43.2307 6.93134 43.2307 6.93134C43.2307 6.93134 44.1924 12.2686 44.1924 19.5152C44.1924 9.25778 40.7126 7.4971 28.6169 7.4971H17.4622C11.2702 7.4971 11.689 13.72 11.2702 16.6815L10.7614 21.156C10.5171 25.8635 11.3345 28.7805 16.1644 28.7805C6.09372 28.7805 0.499987 30.4294 0.5 16.2326C0.499994 9.80708 1.46893 6.93134 1.46893 6.93134C1.46893 6.93134 2.11548 4.28086 3.69048 2.70808C5.26549 1.13349 7.5998 0.975453 7.5998 0.975453C7.5998 0.975453 12.4195 0.25 21.9403 0.25C31.4612 0.25 36.84 0.975453 36.84 0.975453C36.84 0.975453 39.4359 1.13349 41.0124 2.70808Z" fill="url(#paint0_linear_1026_9)"/>
<path d="M44.1907 19.8412C44.1913 19.9695 44.1916 20.0989 44.1916 20.2295C44.1916 26.3837 43.2754 28.779 43.2754 28.779C43.2754 28.779 42.5584 31.6808 41.3343 32.9343C39.3918 34.9233 37.3144 35.0343 37.3144 35.0343C37.3144 35.0343 32.8453 35.75 23.229 35.75C14.0031 35.75 7.85921 35.0387 7.85921 35.0387C7.85921 35.0387 5.26504 34.8795 3.69004 33.3064C2.11504 31.7307 1.46849 28.779 1.46849 28.779C1.46849 28.779 0.5 22.7163 0.5 16.0794C0.499988 28.8752 5.0442 28.7984 13.3149 28.6587H13.3149C14.2204 28.6434 15.1706 28.6273 16.1644 28.6273H27.318C32.2013 28.6273 33.3039 25.0731 33.5164 21.0028L34.0267 14.7934C34.1626 12.2409 33.8337 10.4287 33.0336 9.26241C32.1612 7.99016 30.6747 7.3439 28.6169 7.3439C41.4253 7.3439 44.1022 9.05998 44.1907 19.8412Z" fill="url(#paint1_linear_1026_9)"/>
</g>
<defs>
<linearGradient id="paint0_linear_1026_9" x1="22.2878" y1="0.25" x2="22.4818" y2="30.5768" gradientUnits="userSpaceOnUse">
<stop stop-color="#05D2FF"/>
<stop offset="0.156227" stop-color="#21A1F1"/>
<stop offset="0.407114" stop-color="#1E88E5"/>
<stop offset="0.72248" stop-color="#1E6EE5"/>
<stop offset="1" stop-color="#182FFF"/>
</linearGradient>
<linearGradient id="paint1_linear_1026_9" x1="3.17783" y1="35.6937" x2="37.9386" y2="5.41095" gradientUnits="userSpaceOnUse">
<stop stop-color="#24D8FF"/>
<stop offset="0.156227" stop-color="#21A1F1"/>
<stop offset="0.407114" stop-color="#1E88E5"/>
<stop offset="0.749106" stop-color="#1E7AE5"/>
<stop offset="1" stop-color="#0046F9"/>
</linearGradient>
<clipPath id="clip0_1026_9">
<rect width="45" height="36" fill="white"/>
</clipPath>
</defs>
</svg>