<svg xmlns="http://www.w3.org/2000/svg" width="48" height="48" fill="none"><path fill="#3B82F6" d="m35.4217 25.3446-1.1875 1.1875v2.6622c0 1.9786-1.3807 3.3592-3.3594 3.3592-.4455.0018-.8734-.1735-1.1897-.4872-.3162-.3137-.4949-.7402-.4967-1.1857-.0018-.4455.1735-.8734.4872-1.1896.3138-.3163.7403-.495 1.1858-.4967l.0134-3.3576c.0001-.4454.1771-.8726.4922-1.1875l.4921-.4921-.4921-.4921c-.1562-.1558-.2801-.3409-.3646-.5447-.0844-.2038-.1278-.4222-.1276-.6428v-3.3509c-.8701-.0688-1.6108-.7995-1.6108-1.6796 0-.9271.682-1.6863 1.6108-1.6863 1.9787 0 3.3594 1.3806 3.3594 3.3592v2.6622l1.1875 1.1875c.1564.1559.2804.3411.3651.545.0847.2039.1282.4225.1282.6433s-.0435.4394-.1282.6434c-.0847.2039-.2087.3891-.3651.545v-.0017Zm-7.9566-7.4995L24.1057 31.282c-.1108.4293-.3869.7974-.768 1.024-.3811.2266-.8364.2933-1.2665.1855-.4301-.1077-.8002-.3812-1.0295-.7607-.2293-.3795-.2992-.8342-.1945-1.2651l3.3593-13.4369c.1108-.4293.3869-.7974.768-1.024.3812-.2266.8364-.2932 1.2665-.1855.4302.1077.8002.3812 1.0295.7607.2293.3795.2993.8342.1946 1.2651Zm-10.5198 6.8024c.3141.3158.4921.7441.4921 1.1875v3.3509c.8701.0722 1.6108.7995 1.6108 1.6829 0 .9238-.6819 1.6864-1.6108 1.6864-1.9786 0-3.3593-1.3823-3.3593-3.3593v-2.6638l-1.1876-1.1875c-.1563-.1559-.2804-.3411-.3651-.545-.0846-.2039-.1282-.4226-.1282-.6433 0-.2208.0436-.4395.1282-.6434.0847-.2039.2088-.3891.3651-.545l1.1876-1.1875v-2.6622c0-1.9786 1.3807-3.3592 3.3593-3.3592.4455-.0018.8734.1735 1.1897.4872.3162.3137.4949.7402.4967 1.1857.0018.4455-.1735.8734-.4872 1.1896-.3138.3163-.7403.495-1.1858.4967l-.0134 3.3593c0 .4451-.178.8734-.4921 1.1875l-.4922.4921.4922.4921v-.0017ZM37.5986 4.00168H10.7137c-1.78035.00178-3.48722.70989-4.74594 1.96888C4.70904 7.22955 4.00133 8.93653 4 10.7168v26.8839c.00222 1.7797.71032 3.4858 1.96894 4.7441 1.25863 1.2583 2.96499 1.9659 4.74476 1.9677h26.8849c1.78-.0018 3.4866-.7097 4.7453-1.9683 1.2586-1.2586 1.9665-2.9652 1.9683-4.7451v-26.884c-.0013-1.78025-.709-3.48723-1.9677-4.74622C41.0858 4.70989 39.3789 4.00178 37.5986 4v.00168Z"/></svg>