<svg width="24" height="24" viewBox="0 0 24 24" fill="none" xmlns="http://www.w3.org/2000/svg"><path fill-rule="evenodd" clip-rule="evenodd" d="M24 14.507L12 13.0127L0 14.507L12 23.9999L24 14.507Z" fill="#FCBF92"/><path fill-rule="evenodd" clip-rule="evenodd" d="M0 14.5073L12 18.134V24.0002L0 17.9201V14.5073Z" fill="#9D5025"/><path fill-rule="evenodd" clip-rule="evenodd" d="M24 14.5073L12 18.134V24.0002L24 17.9201V14.5073Z" fill="#F58534"/><path fill-rule="evenodd" clip-rule="evenodd" d="M1.5495 9.35059H0V12.7991L1.5495 13.0844L3.2718 11.2373L1.5495 9.35089V9.35059Z" fill="#9D5025"/><path fill-rule="evenodd" clip-rule="evenodd" d="M3.2721 12.9416L1.5498 13.0841V9.35059H3.2721V12.9416Z" fill="#F58534"/><path fill-rule="evenodd" clip-rule="evenodd" d="M4.43258 5.04962L2.39258 5.43842V13.2624L4.43258 13.6902L6.29978 9.35012L4.43258 5.04932V5.04962Z" fill="#9D5025"/><path fill-rule="evenodd" clip-rule="evenodd" d="M6.30049 13.4765L4.43359 13.6904V5.0498L6.30049 5.2637V13.4765Z" fill="#F58534"/><path fill-rule="evenodd" clip-rule="evenodd" d="M8.41015 6.79004L5.59375 7.07534V13.9366L8.41015 14.5072L11.3996 10.6306L8.41015 6.79004Z" fill="#9D5025"/><path fill-rule="evenodd" clip-rule="evenodd" d="M10.3089 14.1862L8.41016 14.5072V6.79004L10.3089 6.93254V14.1862Z" fill="#F58534"/><path fill-rule="evenodd" clip-rule="evenodd" d="M11.9993 0.566895L10.1006 1.17319V14.828L11.9993 15.2165L13.898 7.89169L11.9993 0.566895Z" fill="#9D5025"/><path fill-rule="evenodd" clip-rule="evenodd" d="M13.7578 14.1862L15.5896 14.5072L18.406 9.35049L15.5896 4.22949L13.7578 4.51479V14.1862Z" fill="#9D5025"/><path fill-rule="evenodd" clip-rule="evenodd" d="M18.406 9.35049L15.5896 4.22949L13.7578 4.51479" fill="#9D5025"/><path fill-rule="evenodd" clip-rule="evenodd" d="M17.6641 13.4768L19.5664 13.6907L21.6064 7.18246L19.5664 0.709961L17.6641 1.17346V13.4768Z" fill="#9D5025"/><path fill-rule="evenodd" clip-rule="evenodd" d="M20.7266 12.9414L22.4489 13.0839L23.9984 6.6474L22.4489 0L20.7266 0.4278V12.9414Z" fill="#9D5025"/><path fill-rule="evenodd" clip-rule="evenodd" d="M12 0.567L13.8987 1.1733V14.8281L12 15.2166V0.567ZM18.4059 4.8L15.5895 4.2294V14.5071L18.4059 13.9365V4.8ZM21.6072 1.53L19.5672 0.7098V13.6905L21.6072 13.2624V1.53ZM24 0.7809L22.4505 0V13.0842L24 12.7989V0.7809Z" fill="#F58534"/></svg>