<svg width="24" height="24" viewBox="0 0 24 24" fill="none" xmlns="http://www.w3.org/2000/svg"><path d="M6.86775 23C6.30831 23 5.62174 22.5907 5.3421 22.0904L0.209732 12.9097C-0.0699108 12.4093 -0.0699108 11.5907 0.209732 11.0903L5.3421 1.9096C5.62174 1.40927 6.30831 1 6.86775 1H17.1325C17.6919 1 18.3783 1.40927 18.6581 1.9096L23.79 11.0903C24.07 11.5907 24.07 12.4093 23.79 12.9097L18.6581 22.0904C18.3783 22.5907 17.6919 23 17.1325 23H6.86775Z" fill="#4486FA"/><path d="M15.308 8.69238L21.8465 15.9232L18.6917 21.425C18.4137 21.9059 17.7317 22.2993 17.1758 22.2993L8.76953 14.5385L15.308 8.69238Z" fill="#3778ED"/><path d="M12.076 16.0768C14.4976 16.0768 16.4606 14.1138 16.4606 11.6922C16.4606 9.27068 14.4976 7.30762 12.076 7.30762C9.65447 7.30762 7.69141 9.27068 7.69141 11.6922C7.69141 14.1138 9.65447 16.0768 12.076 16.0768Z" fill="white"/><path d="M15.6337 14.1166L17.191 15.6738C17.3711 15.8539 17.3711 16.1463 17.191 16.3264L16.8645 16.6529C16.6843 16.833 16.392 16.833 16.2119 16.6529L14.6546 15.0956C14.4745 14.9155 14.4745 14.6232 14.6546 14.443L14.9811 14.1166C15.1613 13.9364 15.4536 13.9364 15.6337 14.1166Z" fill="white"/><path d="M12.0772 15.0002C13.904 15.0002 15.3849 13.5192 15.3849 11.6925C15.3849 9.86567 13.904 8.38477 12.0772 8.38477C10.2504 8.38477 8.76953 9.86567 8.76953 11.6925C8.76953 13.5192 10.2504 15.0002 12.0772 15.0002Z" fill="#4486FA"/><path d="M12.0775 14.2307C13.4795 14.2307 14.616 13.0942 14.616 11.6923C14.616 10.2903 13.4795 9.15381 12.0775 9.15381C10.6756 9.15381 9.53906 10.2903 9.53906 11.6923C9.53906 13.0942 10.6756 14.2307 12.0775 14.2307Z" fill="#4486FA"/><mask id="mask0_10_1187" style="mask-type:alpha" maskUnits="userSpaceOnUse" x="9" y="9" width="6" height="6"><path fill-rule="evenodd" clip-rule="evenodd" d="M12.0775 14.2307C13.4795 14.2307 14.616 13.0942 14.616 11.6923C14.616 10.2903 13.4795 9.15381 12.0775 9.15381C10.6756 9.15381 9.53906 10.2903 9.53906 11.6923C9.53906 13.0942 10.6756 14.2307 12.0775 14.2307Z" fill="white"/></mask><g mask="url(#mask0_10_1187)"><path d="M12.6152 14.231H11.6924V10.231H12.6152V14.231ZM10.9229 13.769H10V11.3081H10.9229V13.769ZM14.1543 13.769H13.2305V11.9233H14.1543V13.769Z" fill="white"/></g></svg>