<svg xmlns="http://www.w3.org/2000/svg" xmlns:xlink="http://www.w3.org/1999/xlink" stroke-miterlimit="10" stroke-linecap="square" stroke="none" fill="none" viewBox="0 1.92 612.1739130434783 276.47999999999996" version="1.1" style="max-height: 500px" width="612.1739130434783" height="276.47999999999996"><clipPath id="p.0"><path clip-rule="nonzero" d="m0 0l1280.0 0l0 960.0l-1280.0 0l0 -960.0z"/></clipPath><g clip-path="url(#p.0)"><path fill-rule="evenodd" d="m0 0l1280.0 0l0 960.0l-1280.0 0z" fill-opacity="0.0" fill="#000000"/><path fill-rule="evenodd" d="m221.82939 59.62992l171.11812 0l0 149.19684l-171.11812 0z" fill="#ffffff"/><path fill-rule="evenodd" d="m221.82939 59.62992l171.11812 0l0 149.19684l-171.11812 0z" stroke-linecap="butt" stroke-linejoin="round" stroke-width="2.0" stroke="#4a9fea"/><path fill-rule="nonzero" d="m233.64189 79.94555l0 -7.984375l-1.84375 0l0 9.46875l6.28125 0l0 -1.484375l-4.4375 0zm6.591934 -5.5625l0 1.484375l2.0 0l0 4.09375l-2.0 0l0 1.46875l5.734375 0l0 -1.46875l-1.90625 0l0 -5.578125l-3.828125 0zm1.875 -1.796875q0 0.203125 0.0625 0.390625q0.078125 0.171875 0.21875 0.296875q0.140625 0.125 0.328125 0.203125q0.1875 0.078125 0.421875 0.078125q0.484375 0 0.765625 -0.265625q0.28125 -0.28125 0.28125 -0.703125q0 -0.421875 -0.28125 -0.6875q-0.28125 -0.28125 -0.765625 -0.28125q-0.234375 0 -0.421875 0.078125q-0.1875 0.0625 -0.328125 0.1875q-0.140625 0.140625 -0.21875 0.328125q-0.0625 0.171875 -0.0625 0.375zm11.982559 5.390625l0 -0.125q0 -0.640625 -0.125 -1.203125q-0.109375 -0.5625 -0.34375 -1.015625q-0.140625 -0.28125 -0.34375 -0.515625q-0.1875 -0.234375 -0.4375 -0.40625q-0.296875 -0.21875 -0.6875 -0.328125q-0.375 -0.125 -0.828125 -0.125q-0.328125 0 -0.609375 0.078125q-0.28125 0.0625 -0.53125 0.203125q-0.15625 0.078125 -0.3125 0.21875q-0.15625 0.125 -0.28125 0.265625l0 -3.59375l-1.8125 0l0 10.0l1.625 0l0.09375 -0.75q0.109375 0.140625 0.234375 0.265625q0.125 0.125 0.265625 0.21875q0.265625 0.1875 0.59375 0.28125q0.34375 0.109375 0.75 0.109375q0.453125 0 0.828125 -0.109375q0.375 -0.109375 0.671875 -0.328125q0.328125 -0.234375 0.5625 -0.578125q0.25 -0.34375 0.40625 -0.765625q0.140625 -0.375 0.203125 -0.828125q0.078125 -0.453125 0.078125 -0.96875zm-1.8125 -0.125l0 0.125q0 0.28125 -0.03125 0.53125q-0.015625 0.25 -0.0625 0.46875q-0.0625 0.296875 -0.203125 0.53125q-0.125 0.21875 -0.328125 0.359375q-0.140625 0.109375 -0.34375 0.171875q-0.1875 0.0625 -0.421875 0.0625q-0.28125 0 -0.5 -0.0625q-0.21875 -0.078125 -0.375 -0.203125q-0.140625 -0.09375 -0.25 -0.21875q-0.09375 -0.140625 -0.171875 -0.296875l0 -2.8125q0.0625 -0.125 0.125 -0.234375q0.078125 -0.109375 0.15625 -0.1875q0.1875 -0.171875 0.421875 -0.265625q0.25 -0.09375 0.578125 -0.09375q0.234375 0 0.421875 0.0625q0.203125 0.046875 0.34375 0.15625q0.234375 0.1875 0.34375 0.40625q0.109375 0.203125 0.1875 0.46875q0.0625 0.21875 0.078125 0.484375q0.03125 0.265625 0.03125 0.546875zm8.513809 -3.59375q-0.703125 0 -1.3125 0.34375q-0.59375 0.34375 -1.015625 0.9375l-0.015625 -0.15625l-0.078125 -1.0l-1.671875 0l0 7.046875l1.796875 0l0 -4.234375q0.125 -0.296875 0.3125 -0.515625q0.1875 -0.21875 0.453125 -0.359375q0.234375 -0.125 0.515625 -0.1875q0.28125 -0.0625 0.625 -0.0625q0.34375 0 0.71875 0.046875q0.375 0.03125 0.734375 0.125l0.265625 -1.8125q-0.21875 -0.0625 -0.5625 -0.109375q-0.34375 -0.0625 -0.765625 -0.0625zm7.3419495 7.171875l1.84375 0l0 -0.109375q-0.140625 -0.265625 -0.21875 -0.640625q-0.0625 -0.375 -0.0625 -0.9375l0 -3.015625q0 -0.609375 -0.234375 -1.078125q-0.21875 -0.46875 -0.625 -0.765625q-0.40625 -0.3125 -0.953125 -0.46875q-0.546875 -0.15625 -1.1875 -0.15625q-0.71875 0 -1.265625 0.1875q-0.546875 0.171875 -0.921875 0.46875q-0.390625 0.3125 -0.59375 0.71875q-0.1875 0.40625 -0.1875 0.84375l1.8125 0q0 -0.1875 0.046875 -0.34375q0.0625 -0.15625 0.171875 -0.265625q0.140625 -0.125 0.34375 -0.1875q0.203125 -0.0625 0.5 -0.0625q0.3125 0 0.5625 0.078125q0.25 0.078125 0.40625 0.234375q0.15625 0.140625 0.234375 0.34375q0.078125 0.1875 0.078125 0.4375l0 0.421875l-1.015625 0q-0.765625 0 -1.375 0.140625q-0.609375 0.140625 -1.015625 0.40625q-0.453125 0.28125 -0.6875 0.734375q-0.21875 0.453125 -0.21875 1.046875q0 0.453125 0.171875 0.84375q0.1875 0.390625 0.515625 0.65625q0.328125 0.28125 0.78125 0.4375q0.453125 0.15625 0.984375 0.15625q0.34375 0 0.625 -0.0625q0.28125 -0.0625 0.53125 -0.171875q0.234375 -0.09375 0.421875 -0.234375q0.203125 -0.15625 0.34375 -0.3125q0.03125 0.1875 0.078125 0.359375q0.046875 0.171875 0.109375 0.296875zm-1.71875 -1.265625q-0.25 0 -0.453125 -0.0625q-0.1875 -0.0625 -0.3125 -0.171875q-0.140625 -0.109375 -0.203125 -0.265625q-0.0625 -0.15625 -0.0625 -0.34375q0 -0.25 0.078125 -0.453125q0.09375 -0.203125 0.28125 -0.359375q0.203125 -0.140625 0.5 -0.21875q0.296875 -0.078125 0.71875 -0.078125l0.921875 0l0 1.203125q-0.078125 0.140625 -0.21875 0.28125q-0.125 0.125 -0.328125 0.234375q-0.1875 0.09375 -0.421875 0.171875q-0.234375 0.0625 -0.5 0.0625zm10.373169 -5.90625q-0.703125 0 -1.3125 0.34375q-0.59375 0.34375 -1.015625 0.9375l-0.015625 -0.15625l-0.078125 -1.0l-1.671875 0l0 7.046875l1.796875 0l0 -4.234375q0.125 -0.296875 0.3125 -0.515625q0.1875 -0.21875 0.453125 -0.359375q0.234375 -0.125 0.515625 -0.1875q0.28125 -0.0625 0.625 -0.0625q0.34375 0 0.71875 0.046875q0.375 0.03125 0.734375 0.125l0.265625 -1.8125q-0.21875 -0.0625 -0.5625 -0.109375q-0.34375 -0.0625 -0.765625 -0.0625zm4.0606995 10.015625q0.546875 0 0.9375 -0.1875q0.40625 -0.171875 0.6875 -0.4375q0.28125 -0.265625 0.46875 -0.578125q0.1875 -0.3125 0.296875 -0.59375l3.578125 -8.09375l-2.0 0l-1.609375 4.140625l-0.265625 0.703125l-0.1875 -0.71875l-1.625 -4.125l-1.96875 0l2.96875 6.75l-0.40625 0.765625q-0.078125 0.15625 -0.140625 0.234375q-0.046875 0.078125 -0.171875 0.234375q-0.109375 0.15625 -0.28125 0.28125q-0.171875 0.140625 -0.375 0.140625q-0.109375 0 -0.28125 -0.015625q-0.171875 -0.015625 -0.28125 -0.015625l-0.21875 1.390625q0.234375 0.0625 0.421875 0.09375q0.1875 0.03125 0.453125 0.03125z" fill="#1e88e5"/><path fill-rule="evenodd" d="m237.01561 165.48047l0 0c0 -2.965866 2.4043274 -5.370178 5.3701935 -5.370178l135.99979 0c1.4242554 0 2.7901917 0.56578064 3.7973022 1.5728912c1.0071106 1.0070953 1.572876 2.3730316 1.572876 3.797287l0 21.480103c0 2.965866 -2.4042969 5.3701935 -5.370178 5.3701935l-135.99979 0c-2.965866 0 -5.3701935 -2.4043274 -5.3701935 -5.3701935z" fill="#e4f0fb"/><path fill-rule="evenodd" d="m237.01561 165.48047l0 0c0 -2.965866 2.4043274 -5.370178 5.3701935 -5.370178l135.99979 0c1.4242554 0 2.7901917 0.56578064 3.7973022 1.5728912c1.0071106 1.0070953 1.572876 2.3730316 1.572876 3.797287l0 21.480103c0 2.965866 -2.4042969 5.3701935 -5.370178 5.3701935l-135.99979 0c-2.965866 0 -5.3701935 -2.4043274 -5.3701935 -5.3701935z" stroke-linecap="butt" stroke-linejoin="round" stroke-width="1.0" stroke="#4a9fea"/><path fill-rule="evenodd" d="m237.01561 110.4985l0 0c0 -2.965866 2.4043274 -5.370186 5.3701935 -5.370186l135.99979 0c1.4242554 0 2.7901917 0.56578827 3.7973022 1.5728912c1.0071106 1.0071106 1.572876 2.3730392 1.572876 3.7972946l0 21.48011c0 2.965866 -2.4042969 5.370178 -5.370178 5.370178l-135.99979 0c-2.965866 0 -5.3701935 -2.4043121 -5.3701935 -5.370178z" fill="#e4f0fb"/><path fill-rule="evenodd" d="m237.01561 110.4985l0 0c0 -2.965866 2.4043274 -5.370186 5.3701935 -5.370186l135.99979 0c1.4242554 0 2.7901917 0.56578827 3.7973022 1.5728912c1.0071106 1.0071106 1.572876 2.3730392 1.572876 3.7972946l0 21.48011c0 2.965866 -2.4042969 5.370178 -5.370178 5.370178l-135.99979 0c-2.965866 0 -5.3701935 -2.4043121 -5.3701935 -5.370178z" stroke-linecap="butt" stroke-linejoin="round" stroke-width="1.0" stroke="#4a9fea"/><path fill-rule="evenodd" d="m90.267715 53.233597l0 64.97638" fill-opacity="0.0" fill="#000000"/><path fill-rule="evenodd" d="m90.267715 53.233597l0 64.97638" stroke-linecap="butt" stroke-linejoin="round" stroke-width="2.0" stroke="#b7b7b7"/><path fill-rule="evenodd" d="m16.897638 21.238974l0 0c0 -3.534113 2.8649654 -6.3990784 6.3990784 -6.3990784l133.942 0c1.6971283 0 3.324768 0.6741867 4.524826 1.8742466c1.200058 1.2000599 1.8742523 2.8276901 1.8742523 4.524832l0 25.595545c0 3.534111 -2.864975 6.3990784 -6.3990784 6.3990784l-133.942 0c-3.534113 0 -6.3990784 -2.8649673 -6.3990784 -6.3990784z" fill="#49bc4e"/><path fill-rule="nonzero" d="m45.638897 37.72737l0 -3.734375l-3.390625 0l0 1.375l1.5625 0l0 1.71875q-0.078125 0.078125 -0.21875 0.15625q-0.125 0.078125 -0.3125 0.125q-0.1875 0.0625 -0.390625 0.09375q-0.203125 0.03125 -0.421875 0.03125q-0.359375 0 -0.640625 -0.109375q-0.265625 -0.109375 -0.46875 -0.3125q-0.125 -0.125 -0.234375 -0.28125q-0.09375 -0.171875 -0.171875 -0.359375q-0.125 -0.328125 -0.203125 -0.75q-0.0625 -0.421875 -0.0625 -0.9375l0 -1.296875q0 -0.40625 0.046875 -0.75q0.046875 -0.359375 0.140625 -0.640625q0.125 -0.3750019 0.296875 -0.6406269q0.1875 -0.28125 0.40625 -0.453125q0.171875 -0.125 0.359375 -0.1875q0.203125 -0.0625 0.40625 -0.0625q0.375 0 0.65625 0.109375q0.28125 0.09375 0.46875 0.296875q0.15625 0.171875 0.25 0.4375q0.09375 0.265625 0.140625 0.6093769l1.78125 0q-0.078125 -0.6718769 -0.3125 -1.2187519q-0.21875 -0.546875 -0.625 -0.9375q-0.421875 -0.375 -1.015625 -0.578125q-0.59375 -0.203125 -1.390625 -0.203125q-0.515625 0 -0.984375 0.15625q-0.46875 0.140625 -0.875 0.40625q-0.328125 0.25 -0.625 0.59375q-0.28125 0.34375 -0.484375 0.765625q-0.234375 0.46875 -0.359375 1.0625019q-0.125 0.578125 -0.125 1.25l0 1.28125q0 0.71875 0.125 1.328125q0.125 0.59375 0.375 1.078125q0.21875 0.4375 0.53125 0.78125q0.3125 0.328125 0.6875 0.5625q0.375 0.234375 0.828125 0.34375q0.46875 0.125 0.984375 0.125q0.609375 0 1.125 -0.109375q0.515625 -0.109375 0.9375 -0.28125q0.421875 -0.1875 0.71875 -0.40625q0.3125 -0.21875 0.484375 -0.4375zm1.3106842 -2.46875l0 0.125q0 0.78125 0.21875 1.4375q0.21875 0.65625 0.65625 1.125q0.421875 0.484375 1.03125 0.765625q0.625 0.265625 1.421875 0.265625q0.796875 0 1.40625 -0.265625q0.625 -0.28125 1.046875 -0.765625q0.421875 -0.46875 0.640625 -1.125q0.21875 -0.65625 0.21875 -1.4375l0 -0.125q0 -0.78125 -0.21875 -1.421875q-0.21875 -0.65625 -0.640625 -1.140625q-0.4375 -0.484375 -1.0625 -0.7500019q-0.609375 -0.28125 -1.40625 -0.28125q-0.78125 0 -1.40625 0.28125q-0.609375 0.2656269 -1.03125 0.7500019q-0.4375 0.484375 -0.65625 1.140625q-0.21875 0.640625 -0.21875 1.421875zm1.8125 0.125l0 -0.125q0 -0.4375 0.078125 -0.8125q0.09375 -0.390625 0.265625 -0.6875q0.1875 -0.296875 0.46875 -0.453125q0.28125 -0.171875 0.6875 -0.171875q0.421875 0 0.703125 0.171875q0.28125 0.15625 0.46875 0.453125q0.171875 0.296875 0.25 0.6875q0.09375 0.375 0.09375 0.8125l0 0.125q0 0.453125 -0.09375 0.84375q-0.078125 0.375 -0.25 0.65625q-0.1875 0.296875 -0.46875 0.46875q-0.28125 0.171875 -0.6875 0.171875q-0.40625 0 -0.703125 -0.171875q-0.28125 -0.171875 -0.46875 -0.46875q-0.171875 -0.28125 -0.265625 -0.65625q-0.078125 -0.390625 -0.078125 -0.84375zm6.185684 -0.125l0 0.125q0 0.78125 0.21875 1.4375q0.21875 0.65625 0.65625 1.125q0.421875 0.484375 1.03125 0.765625q0.625 0.265625 1.421875 0.265625q0.796875 0 1.40625 -0.265625q0.625 -0.28125 1.046875 -0.765625q0.421875 -0.46875 0.640625 -1.125q0.21875 -0.65625 0.21875 -1.4375l0 -0.125q0 -0.78125 -0.21875 -1.421875q-0.21875 -0.65625 -0.640625 -1.140625q-0.4375 -0.484375 -1.0625 -0.7500019q-0.609375 -0.28125 -1.40625 -0.28125q-0.78125 0 -1.40625 0.28125q-0.609375 0.2656269 -1.03125 0.7500019q-0.4375 0.484375 -0.65625 1.140625q-0.21875 0.640625 -0.21875 1.421875zm1.8125 0.125l0 -0.125q0 -0.4375 0.078125 -0.8125q0.09375 -0.390625 0.265625 -0.6875q0.1875 -0.296875 0.46875 -0.453125q0.28125 -0.171875 0.6875 -0.171875q0.421875 0 0.703125 0.171875q0.28125 0.15625 0.46875 0.453125q0.171875 0.296875 0.25 0.6875q0.09375 0.375 0.09375 0.8125l0 0.125q0 0.453125 -0.09375 0.84375q-0.078125 0.375 -0.25 0.65625q-0.1875 0.296875 -0.46875 0.46875q-0.28125 0.171875 -0.6875 0.171875q-0.40625 0 -0.703125 -0.171875q-0.28125 -0.171875 -0.46875 -0.46875q-0.171875 -0.28125 -0.265625 -0.65625q-0.078125 -0.390625 -0.078125 -0.84375zm6.248184 -0.125l0 0.140625q0 0.765625 0.1875 1.421875q0.203125 0.65625 0.578125 1.125q0.3749962 0.484375 0.8906212 0.75q0.53125 0.265625 1.1875 0.265625q0.328125 0 0.609375 -0.078125q0.296875 -0.0625 0.546875 -0.1875q0.15625 -0.09375 0.296875 -0.203125q0.15625 -0.125 0.28125 -0.265625l0 0.40625q0 0.359375 -0.109375 0.640625q-0.09375 0.28125 -0.28125 0.484375q-0.203125 0.203125 -0.515625 0.3125q-0.3125 0.125 -0.703125 0.125q-0.25 0 -0.484375 -0.0625q-0.234375 -0.046875 -0.453125 -0.140625q-0.21875 -0.09375 -0.421875 -0.25q-0.203125 -0.15625 -0.375 -0.359375l-0.8124962 1.109375q0.234375 0.296875 0.546875 0.5q0.3281212 0.21875 0.6718712 0.34375q0.359375 0.140625 0.71875 0.203125q0.375 0.0625 0.6875 0.0625q0.75 0 1.359375 -0.203125q0.625 -0.1875 1.0625 -0.578125q0.4375 -0.375 0.671875 -0.9375q0.25 -0.5625 0.25 -1.28125l0 -6.812502l-1.640625 0l-0.078125 0.6718769q-0.125 -0.15625 -0.28125 -0.28125q-0.15625 -0.140625 -0.34375 -0.2343769q-0.234375 -0.140625 -0.53125 -0.203125q-0.296875 -0.078125 -0.65625 -0.078125q-0.671875 0 -1.203125 0.265625q-0.515625 0.2500019 -0.8906212 0.7343769q-0.375 0.46875 -0.578125 1.140625q-0.1875 0.65625 -0.1875 1.453125zm1.8124962 0.140625l0 -0.140625q0 -0.4375 0.09375 -0.828125q0.09375 -0.390625 0.28125 -0.671875q0.1875 -0.296875 0.453125 -0.453125q0.28125 -0.171875 0.671875 -0.171875q0.203125 0 0.375 0.046875q0.1875 0.03125 0.34375 0.109375q0.171875 0.078125 0.3125 0.21875q0.140625 0.140625 0.234375 0.3125l0 2.984375q-0.09375 0.15625 -0.21875 0.296875q-0.125 0.125 -0.28125 0.21875q-0.15625 0.078125 -0.359375 0.125q-0.1875 0.046875 -0.421875 0.046875q-0.375 0 -0.65625 -0.15625q-0.28125 -0.171875 -0.46875 -0.453125q-0.171875 -0.28125 -0.265625 -0.65625q-0.09375 -0.390625 -0.09375 -0.828125zm6.748184 -6.562502l0 1.484375l2.109375 0l0 7.046877l-2.109375 0l0 1.46875l5.953125 0l0 -1.46875l-2.015625 0l0 -8.531252l-3.9375 0zm11.029434 10.125002q1.0312576 0 1.7812576 -0.390625q0.75 -0.390625 1.09375 -0.890625l-0.90625 -0.96875q-0.3125 0.40625 -0.8125 0.609375q-0.5 0.1875 -1.0468826 0.1875q-0.375 0 -0.703125 -0.109375q-0.3125 -0.125 -0.546875 -0.328125q-0.25 -0.21875 -0.390625 -0.46875q-0.140625 -0.265625 -0.234375 -0.6875l0 -0.015625l4.7812576 0l0 -0.765625q0 -0.78125 -0.21875 -1.421875q-0.21875 -0.640625 -0.625 -1.09375q-0.421875 -0.453125 -1.015625 -0.7031269q-0.59375 -0.25 -1.3593826 -0.25q-0.734375 0 -1.359375 0.265625q-0.625 0.2656269 -1.078125 0.7500019q-0.453125 0.484375 -0.703125 1.15625q-0.25 0.65625 -0.25 1.46875l0 0.25q0 0.71875 0.25 1.34375q0.265625 0.609375 0.734375 1.078125q0.46875 0.453125 1.125 0.71875q0.671875 0.265625 1.484375 0.265625zm-0.203125 -5.828125q0.34375 0 0.5937576 0.109375q0.265625 0.09375 0.453125 0.28125q0.1875 0.1875 0.28125 0.453125q0.109375 0.25 0.109375 0.53125l0 0.140625l-2.9687576 0q0.0625 -0.34375 0.1875 -0.625q0.140625 -0.28125 0.34375 -0.484375q0.1875 -0.203125 0.4375 -0.296875q0.25 -0.109375 0.5625 -0.109375zm17.637001 3.234375q0 0.25 -0.109375 0.46875q-0.09375 0.203125 -0.28125 0.359375q-0.203125 0.140625 -0.484375 0.234375q-0.28125 0.078125 -0.640625 0.078125q-0.421875 0 -0.765625 -0.09375q-0.328125 -0.09375 -0.578125 -0.28125q-0.25 -0.203125 -0.390625 -0.5q-0.125 -0.3125 -0.140625 -0.734375l-1.796875 0q0 0.734375 0.28125 1.28125q0.28125 0.546875 0.78125 0.953125q0.5 0.40625 1.1875 0.625q0.703125 0.203125 1.421875 0.203125q0.71875 0 1.328125 -0.171875q0.609375 -0.171875 1.046875 -0.515625q0.453125 -0.328125 0.703125 -0.8125q0.25 -0.484375 0.25 -1.109375q0 -0.71875 -0.34375 -1.265625q-0.328125 -0.5625 -0.875 -0.984375q-0.375 -0.25 -0.828125 -0.4375q-0.4375 -0.203125 -0.921875 -0.34375q-0.453125 -0.125 -0.828125 -0.265625q-0.359375 -0.140625 -0.609375 -0.3125q-0.25 -0.171875 -0.390625 -0.390625q-0.125 -0.21875 -0.125 -0.4843769q0 -0.25 0.09375 -0.46875q0.109375 -0.21875 0.296875 -0.375q0.203125 -0.15625 0.484375 -0.234375q0.28125 -0.09375 0.640625 -0.09375q0.40625 0 0.703125 0.109375q0.296875 0.09375 0.5 0.28125q0.1875 0.203125 0.28125 0.46875q0.109375 0.265625 0.125 0.5781269l1.78125 0q0 -0.6250019 -0.25 -1.1562519q-0.25 -0.546875 -0.6875 -0.9375q-0.4375 -0.375 -1.0625 -0.59375q-0.609375 -0.21875 -1.359375 -0.21875q-0.703125 0 -1.328125 0.1875q-0.609375 0.1875 -1.046875 0.53125q-0.453125 0.34375 -0.71875 0.84375q-0.25 0.484375 -0.25 1.078125q0 0.5156269 0.1875 0.9687519q0.203125 0.4375 0.578125 0.796875q0.375 0.375 0.96875 0.6875q0.609375 0.296875 1.390625 0.5q0.5 0.140625 0.84375 0.3125q0.34375 0.15625 0.5625 0.34375q0.203125 0.1875 0.28125 0.40625q0.09375 0.21875 0.09375 0.484375zm4.966934 -3.609375l0 -3.921877l-1.8125 0l0 10.000002l1.8125 0l0 -5.078125q0.09375 -0.140625 0.21875 -0.25q0.125 -0.109375 0.28125 -0.1875q0.171875 -0.09375 0.375 -0.140625q0.21875 -0.046875 0.453125 -0.046875q0.3125 0 0.5625 0.09375q0.25 0.078125 0.421875 0.234375q0.171875 0.171875 0.265625 0.453125q0.109375 0.265625 0.109375 0.640625l0 4.28125l1.796875 0l0 -4.265625q0 -0.765625 -0.1875 -1.3125q-0.171875 -0.5625 -0.515625 -0.90625q-0.328125 -0.3593769 -0.796875 -0.5156269q-0.453125 -0.171875 -1.0 -0.171875q-0.390625 0 -0.734375 0.109375q-0.328125 0.109375 -0.609375 0.3125019q-0.171875 0.125 -0.34375 0.296875q-0.171875 0.171875 -0.296875 0.375zm9.591934 6.203125q1.03125 0 1.78125 -0.390625q0.75 -0.390625 1.09375 -0.890625l-0.90625 -0.96875q-0.3125 0.40625 -0.8125 0.609375q-0.5 0.1875 -1.046875 0.1875q-0.375 0 -0.703125 -0.109375q-0.3125 -0.125 -0.546875 -0.328125q-0.25 -0.21875 -0.390625 -0.46875q-0.140625 -0.265625 -0.234375 -0.6875l0 -0.015625l4.78125 0l0 -0.765625q0 -0.78125 -0.21875 -1.421875q-0.21875 -0.640625 -0.625 -1.09375q-0.421875 -0.453125 -1.015625 -0.7031269q-0.59375 -0.25 -1.359375 -0.25q-0.734375 0 -1.359375 0.265625q-0.625 0.2656269 -1.078125 0.7500019q-0.453125 0.484375 -0.703125 1.15625q-0.25 0.65625 -0.25 1.46875l0 0.25q0 0.71875 0.25 1.34375q0.265625 0.609375 0.734375 1.078125q0.46875 0.453125 1.125 0.71875q0.671875 0.265625 1.484375 0.265625zm-0.203125 -5.828125q0.34375 0 0.59375 0.109375q0.265625 0.09375 0.453125 0.28125q0.1875 0.1875 0.28125 0.453125q0.109375 0.25 0.109375 0.53125l0 0.140625l-2.96875 0q0.0625 -0.34375 0.1875 -0.625q0.140625 -0.28125 0.34375 -0.484375q0.1875 -0.203125 0.4375 -0.296875q0.25 -0.109375 0.5625 -0.109375zm8.201309 5.828125q1.03125 0 1.78125 -0.390625q0.75 -0.390625 1.09375 -0.890625l-0.90625 -0.96875q-0.3125 0.40625 -0.8125 0.609375q-0.5 0.1875 -1.046875 0.1875q-0.375 0 -0.703125 -0.109375q-0.3125 -0.125 -0.546875 -0.328125q-0.25 -0.21875 -0.390625 -0.46875q-0.140625 -0.265625 -0.234375 -0.6875l0 -0.015625l4.78125 0l0 -0.765625q0 -0.78125 -0.21875 -1.421875q-0.21875 -0.640625 -0.625 -1.09375q-0.421875 -0.453125 -1.015625 -0.7031269q-0.59375 -0.25 -1.359375 -0.25q-0.734375 0 -1.359375 0.265625q-0.625 0.2656269 -1.078125 0.7500019q-0.453125 0.484375 -0.703125 1.15625q-0.25 0.65625 -0.25 1.46875l0 0.25q0 0.71875 0.25 1.34375q0.265625 0.609375 0.734375 1.078125q0.46875 0.453125 1.125 0.71875q0.671875 0.265625 1.484375 0.265625zm-0.203125 -5.828125q0.34375 0 0.59375 0.109375q0.265625 0.09375 0.453125 0.28125q0.1875 0.1875 0.28125 0.453125q0.109375 0.25 0.109375 0.53125l0 0.140625l-2.96875 0q0.0625 -0.34375 0.1875 -0.625q0.140625 -0.28125 0.34375 -0.484375q0.1875 -0.203125 0.4375 -0.296875q0.25 -0.109375 0.5625 -0.109375zm8.107559 -3.062502l-1.8125 0l0 1.71875l-1.609375 0l0 1.3437519l1.609375 0l0 3.203125q0 0.6875 0.1875 1.1875q0.1875 0.5 0.515625 0.8125q0.34375 0.328125 0.8125 0.484375q0.46875 0.15625 1.046875 0.15625q0.296875 0 0.609375 -0.03125q0.3125 -0.03125 0.59375 -0.078125q0.28125 -0.0625 0.53125 -0.140625q0.265625 -0.078125 0.453125 -0.1875l-0.171875 -1.25q-0.125 0.03125 -0.296875 0.078125q-0.171875 0.03125 -0.375 0.046875q-0.203125 0.03125 -0.421875 0.0625q-0.21875 0.015625 -0.421875 0.015625q-0.28125 0 -0.515625 -0.0625q-0.234375 -0.078125 -0.390625 -0.234375q-0.171875 -0.140625 -0.265625 -0.390625q-0.078125 -0.265625 -0.078125 -0.65625l0 -3.015625l2.625 0l0 -1.3437519l-2.625 0l0 -1.71875zm9.216934 6.828127q0 0.171875 -0.078125 0.3125q-0.078125 0.125 -0.234375 0.234375q-0.171875 0.109375 -0.4375 0.171875q-0.265625 0.046875 -0.609375 0.046875q-0.296875 0 -0.578125 -0.046875q-0.28125 -0.0625 -0.484375 -0.1875q-0.21875 -0.125 -0.359375 -0.328125q-0.140625 -0.21875 -0.15625 -0.5l-1.71875 0q0 0.4375 0.203125 0.859375q0.21875 0.421875 0.625 0.75q0.40625 0.34375 1.015625 0.5625q0.609375 0.203125 1.40625 0.203125q0.71875 0 1.296875 -0.15625q0.59375 -0.171875 1.015625 -0.453125q0.40625 -0.28125 0.625 -0.671875q0.234375 -0.40625 0.234375 -0.875q0 -0.5 -0.234375 -0.859375q-0.21875 -0.375 -0.609375 -0.640625q-0.40625 -0.25 -0.953125 -0.40625q-0.546875 -0.171875 -1.171875 -0.28125q-0.453125 -0.0625 -0.734375 -0.140625q-0.28125 -0.09375 -0.453125 -0.203125q-0.171875 -0.109375 -0.234375 -0.234375q-0.0625 -0.140625 -0.0625 -0.296875q0 -0.15625 0.078125 -0.296875q0.078125 -0.140625 0.21875 -0.234375q0.15625 -0.125 0.390625 -0.1875q0.25 -0.0625 0.59375 -0.0625q0.390625 0 0.65625 0.09375q0.28125 0.09375 0.4375 0.265625q0.125 0.125 0.171875 0.28125q0.0625 0.140625 0.0625 0.3125l1.8125 0q0 -0.484375 -0.21875 -0.890625q-0.203125 -0.421875 -0.609375 -0.734375q-0.40625 -0.296875 -1.0 -0.4687519q-0.578125 -0.171875 -1.3125 -0.171875q-0.703125 0 -1.265625 0.1875q-0.5625 0.1718769 -0.953125 0.4687519q-0.390625 0.296875 -0.609375 0.703125q-0.203125 0.390625 -0.203125 0.828125q0 0.4375 0.203125 0.78125q0.21875 0.34375 0.578125 0.609375q0.359375 0.265625 0.875 0.453125q0.515625 0.1875 1.125 0.3125q0.484375 0.09375 0.796875 0.1875q0.328125 0.078125 0.53125 0.1875q0.1875 0.109375 0.25 0.234375q0.078125 0.125 0.078125 0.28125z" fill="#ffffff"/><path fill-rule="evenodd" d="m16.89758 123.58864l0 0c0 -2.9658737 2.404314 -5.370186 5.370186 -5.370186l135.99979 0c1.4242706 0 2.7901917 0.56578827 3.7973022 1.5728912c1.0070953 1.007103 1.5728912 2.3730316 1.5728912 3.7972946l0 21.480103c0 2.965866 -2.4043121 5.370178 -5.3701935 5.370178l-135.99979 0c-2.9658718 0 -5.370186 -2.4043121 -5.370186 -5.370178z" fill="#4a9fea"/><path fill-rule="evenodd" d="m16.89758 123.58864l0 0c0 -2.9658737 2.404314 -5.370186 5.370186 -5.370186l135.99979 0c1.4242706 0 2.7901917 0.56578827 3.7973022 1.5728912c1.0070953 1.007103 1.5728912 2.3730316 1.5728912 3.7972946l0 21.480103c0 2.965866 -2.4043121 5.370178 -5.3701935 5.370178l-135.99979 0c-2.9658718 0 -5.370186 -2.4043121 -5.370186 -5.370178z" stroke-linecap="butt" stroke-linejoin="round" stroke-width="2.0" stroke="#4a9fea"/><path fill-rule="nonzero" d="m69.71151 136.15994l-1.828125 0q-0.03125 0.4375 -0.15625 0.75q-0.109375 0.296875 -0.3125 0.484375q-0.203125 0.203125 -0.5 0.296875q-0.28125 0.078125 -0.625 0.078125q-0.28125 0 -0.5 -0.0625q-0.203125 -0.0625 -0.390625 -0.1875q-0.15625 -0.109375 -0.28125 -0.28125q-0.125 -0.1875 -0.21875 -0.40625q-0.125 -0.34375 -0.1875 -0.78125q-0.0625 -0.453125 -0.0625 -1.015625l0 -1.28125q0 -0.421875 0.03125 -0.78125q0.046875 -0.359375 0.125 -0.65625q0.109375 -0.390625 0.296875 -0.671875q0.1875 -0.296875 0.453125 -0.453125q0.15625 -0.09375 0.34375 -0.140625q0.1875 -0.046875 0.390625 -0.046875q0.40625 0 0.6875 0.109375q0.296875 0.109375 0.5 0.3125q0.1875 0.21875 0.28125 0.546875q0.109375 0.3125 0.125 0.734375l1.828125 0q-0.0625 -0.75 -0.3125 -1.328125q-0.25 -0.59375 -0.671875 -1.015625q-0.4375 -0.40625 -1.046875 -0.625q-0.609375 -0.21875 -1.390625 -0.21875q-0.515625 0 -0.984375 0.140625q-0.453125 0.125 -0.84375 0.375q-0.421875 0.28125 -0.765625 0.71875q-0.328125 0.421875 -0.546875 0.953125q-0.171875 0.453125 -0.265625 0.96875q-0.09375 0.515625 -0.09375 1.078125l0 1.28125q0 0.609375 0.09375 1.15625q0.109375 0.546875 0.296875 1.0q0.1875 0.453125 0.46875 0.84375q0.296875 0.375 0.65625 0.640625q0.390625 0.28125 0.890625 0.4375q0.5 0.15625 1.09375 0.15625q0.734375 0 1.34375 -0.21875q0.609375 -0.21875 1.0625 -0.625q0.4375 -0.40625 0.703125 -0.96875q0.265625 -0.578125 0.3125 -1.296875zm1.2325592 -0.609375l0 0.125q0 0.78125 0.21875 1.4375q0.21875 0.65625 0.65625 1.125q0.421875 0.484375 1.03125 0.765625q0.625 0.265625 1.421875 0.265625q0.796875 0 1.40625 -0.265625q0.625 -0.28125 1.046875 -0.765625q0.421875 -0.46875 0.640625 -1.125q0.21875 -0.65625 0.21875 -1.4375l0 -0.125q0 -0.78125 -0.21875 -1.421875q-0.21875 -0.65625 -0.640625 -1.140625q-0.4375 -0.484375 -1.0625 -0.75q-0.609375 -0.28125 -1.40625 -0.28125q-0.78125 0 -1.40625 0.28125q-0.609375 0.265625 -1.03125 0.75q-0.4375 0.484375 -0.65625 1.140625q-0.21875 0.640625 -0.21875 1.421875zm1.8125 0.125l0 -0.125q0 -0.4375 0.078125 -0.8125q0.09375 -0.390625 0.265625 -0.6875q0.1875 -0.296875 0.46875 -0.453125q0.28125 -0.171875 0.6875 -0.171875q0.421875 0 0.703125 0.171875q0.28125 0.15625 0.46875 0.453125q0.171875 0.296875 0.25 0.6875q0.09375 0.375 0.09375 0.8125l0 0.125q0 0.453125 -0.09375 0.84375q-0.078125 0.375 -0.25 0.65625q-0.1875 0.296875 -0.46875 0.46875q-0.28125 0.171875 -0.6875 0.171875q-0.40625 0 -0.703125 -0.171875q-0.28125 -0.171875 -0.46875 -0.46875q-0.171875 -0.28125 -0.265625 -0.65625q-0.078125 -0.390625 -0.078125 -0.84375zm6.248184 -0.125l0 0.140625q0 0.765625 0.1875 1.421875q0.1875 0.65625 0.546875 1.125q0.34375 0.484375 0.859375 0.75q0.515625 0.265625 1.15625 0.265625q0.59375 0 1.03125 -0.21875q0.453125 -0.234375 0.78125 -0.640625l0.09375 0.734375l1.640625 0l0 -10.0l-1.8125 0l0 3.59375q-0.328125 -0.375 -0.75 -0.5625q-0.421875 -0.203125 -0.96875 -0.203125q-0.65625 0 -1.171875 0.265625q-0.515625 0.25 -0.875 0.734375q-0.359375 0.46875 -0.546875 1.140625q-0.171875 0.65625 -0.171875 1.453125zm1.796875 0.140625l0 -0.140625q0 -0.4375 0.078125 -0.828125q0.078125 -0.390625 0.25 -0.671875q0.171875 -0.296875 0.4375 -0.453125q0.28125 -0.171875 0.65625 -0.171875q0.46875 0 0.765625 0.203125q0.3125 0.203125 0.5 0.546875l0 2.859375q-0.1875 0.34375 -0.5 0.546875q-0.3125 0.203125 -0.78125 0.203125q-0.375 0 -0.640625 -0.15625q-0.265625 -0.171875 -0.4375 -0.453125q-0.171875 -0.28125 -0.25 -0.65625q-0.078125 -0.390625 -0.078125 -0.828125zm9.795059 3.5625q1.03125 0 1.78125 -0.390625q0.75 -0.390625 1.09375 -0.890625l-0.90625 -0.96875q-0.3125 0.40625 -0.8125 0.609375q-0.5 0.1875 -1.046875 0.1875q-0.375 0 -0.703125 -0.109375q-0.3125 -0.125 -0.546875 -0.328125q-0.25 -0.21875 -0.390625 -0.46875q-0.140625 -0.265625 -0.234375 -0.6875l0 -0.015625l4.78125 0l0 -0.765625q0 -0.78125 -0.21875 -1.421875q-0.21875 -0.640625 -0.625 -1.09375q-0.421875 -0.453125 -1.015625 -0.703125q-0.59375 -0.25 -1.359375 -0.25q-0.734375 0 -1.359375 0.265625q-0.625 0.265625 -1.078125 0.75q-0.453125 0.484375 -0.703125 1.15625q-0.25 0.65625 -0.25 1.46875l0 0.25q0 0.71875 0.25 1.34375q0.265625 0.609375 0.734375 1.078125q0.46875 0.453125 1.125 0.71875q0.671875 0.265625 1.484375 0.265625zm-0.203125 -5.828125q0.34375 0 0.59375 0.109375q0.265625 0.09375 0.453125 0.28125q0.1875 0.1875 0.28125 0.453125q0.109375 0.25 0.109375 0.53125l0 0.140625l-2.96875 0q0.0625 -0.34375 0.1875 -0.625q0.140625 -0.28125 0.34375 -0.484375q0.1875 -0.203125 0.4375 -0.296875q0.25 -0.109375 0.5625 -0.109375zm6.623184 4.65625q0 0.5 0.328125 0.84375q0.34375 0.328125 0.921875 0.328125q0.578125 0 0.921875 -0.328125q0.34375 -0.34375 0.34375 -0.84375q0 -0.515625 -0.34375 -0.859375q-0.328125 -0.34375 -0.921875 -0.34375q-0.59375 0 -0.921875 0.359375q-0.328125 0.34375 -0.328125 0.84375zm5.982559 -2.53125l0 0.140625q0 0.765625 0.1875 1.421875q0.203125 0.65625 0.578125 1.125q0.375 0.484375 0.890625 0.75q0.53125 0.265625 1.1875 0.265625q0.328125 0 0.609375 -0.078125q0.296875 -0.0625 0.546875 -0.1875q0.15625 -0.09375 0.296875 -0.203125q0.15625 -0.125 0.28125 -0.265625l0 0.40625q0 0.359375 -0.109375 0.640625q-0.09375 0.28125 -0.28125 0.484375q-0.203125 0.203125 -0.515625 0.3125q-0.3125 0.125 -0.703125 0.125q-0.25 0 -0.484375 -0.0625q-0.234375 -0.046875 -0.453125 -0.140625q-0.21875 -0.09375 -0.421875 -0.25q-0.203125 -0.15625 -0.375 -0.359375l-0.8125 1.109375q0.234375 0.296875 0.546875 0.5q0.328125 0.21875 0.671875 0.34375q0.359375 0.140625 0.71875 0.203125q0.375 0.0625 0.6875 0.0625q0.75 0 1.359375 -0.203125q0.625 -0.1875 1.0625 -0.578125q0.4375 -0.375 0.671875 -0.9375q0.25 -0.5625 0.25 -1.28125l0 -6.8125l-1.640625 0l-0.078125 0.671875q-0.125 -0.15625 -0.28125 -0.28125q-0.15625 -0.140625 -0.34375 -0.234375q-0.234375 -0.140625 -0.53125 -0.203125q-0.296875 -0.078125 -0.65625 -0.078125q-0.671875 0 -1.203125 0.265625q-0.515625 0.25 -0.890625 0.734375q-0.375 0.46875 -0.578125 1.140625q-0.1875 0.65625 -0.1875 1.453125zm1.8125 0.140625l0 -0.140625q0 -0.4375 0.09375 -0.828125q0.09375 -0.390625 0.28125 -0.671875q0.1875 -0.296875 0.453125 -0.453125q0.28125 -0.171875 0.671875 -0.171875q0.203125 0 0.375 0.046875q0.1875 0.03125 0.34375 0.109375q0.171875 0.078125 0.3125 0.21875q0.140625 0.140625 0.234375 0.3125l0 2.984375q-0.09375 0.15625 -0.21875 0.296875q-0.125 0.125 -0.28125 0.21875q-0.15625 0.078125 -0.359375 0.125q-0.1875 0.046875 -0.421875 0.046875q-0.375 0 -0.65625 -0.15625q-0.28125 -0.171875 -0.46875 -0.453125q-0.171875 -0.28125 -0.265625 -0.65625q-0.09375 -0.390625 -0.09375 -0.828125zm10.904434 1.5q0 0.171875 -0.078125 0.3125q-0.078125 0.125 -0.234375 0.234375q-0.171875 0.109375 -0.4375 0.171875q-0.265625 0.046875 -0.609375 0.046875q-0.296875 0 -0.578125 -0.046875q-0.28125 -0.0625 -0.484375 -0.1875q-0.21875 -0.125 -0.359375 -0.328125q-0.140625 -0.21875 -0.15625 -0.5l-1.71875 0q0 0.4375 0.203125 0.859375q0.21875 0.421875 0.625 0.75q0.40625 0.34375 1.015625 0.5625q0.609375 0.203125 1.40625 0.203125q0.71875 0 1.296875 -0.15625q0.59375 -0.171875 1.015625 -0.453125q0.40625 -0.28125 0.625 -0.671875q0.234375 -0.40625 0.234375 -0.875q0 -0.5 -0.234375 -0.859375q-0.21875 -0.375 -0.609375 -0.640625q-0.40625 -0.25 -0.953125 -0.40625q-0.546875 -0.171875 -1.171875 -0.28125q-0.453125 -0.0625 -0.734375 -0.140625q-0.28125 -0.09375 -0.453125 -0.203125q-0.171875 -0.109375 -0.234375 -0.234375q-0.0625 -0.140625 -0.0625 -0.296875q0 -0.15625 0.078125 -0.296875q0.078125 -0.140625 0.21875 -0.234375q0.15625 -0.125 0.390625 -0.1875q0.25 -0.0625 0.59375 -0.0625q0.390625 0 0.65625 0.09375q0.28125 0.09375 0.4375 0.265625q0.125 0.125 0.171875 0.28125q0.0625 0.140625 0.0625 0.3125l1.8125 0q0 -0.484375 -0.21875 -0.890625q-0.203125 -0.421875 -0.609375 -0.734375q-0.40625 -0.296875 -1.0 -0.46875q-0.578125 -0.171875 -1.3125 -0.171875q-0.703125 0 -1.265625 0.1875q-0.5625 0.171875 -0.953125 0.46875q-0.390625 0.296875 -0.609375 0.703125q-0.203125 0.390625 -0.203125 0.828125q0 0.4375 0.203125 0.78125q0.21875 0.34375 0.578125 0.609375q0.359375 0.265625 0.875 0.453125q0.515625 0.1875 1.125 0.3125q0.484375 0.09375 0.796875 0.1875q0.328125 0.078125 0.53125 0.1875q0.1875 0.109375 0.25 0.234375q0.078125 0.125 0.078125 0.28125z" fill="#ffffff"/><path fill-rule="evenodd" d="m221.82939 134.22835l-58.204727 0.09448242" fill-opacity="0.0" fill="#000000"/><path fill-rule="evenodd" d="m221.82939 134.22835l-46.204742 0.07501221" stroke-linecap="butt" stroke-linejoin="round" stroke-width="2.0" stroke="#4a9fea"/><path fill-rule="evenodd" d="m175.6193 130.9999l-9.070816 3.3181915l9.081543 3.2887268z" stroke-linecap="butt" stroke-width="2.0" stroke="#4a9fea" fill="#4a9fea"/><path fill-rule="evenodd" d="m232.21391 115.58864l0 0c0 -2.9658737 2.4043274 -5.370186 5.3701935 -5.370186l135.99979 0c1.4242554 0 2.7901917 0.56578827 3.7973022 1.5728912c1.0071106 1.007103 1.572876 2.3730316 1.572876 3.7972946l0 21.480103c0 2.965866 -2.4042969 5.370178 -5.370178 5.370178l-135.99979 0c-2.965866 0 -5.3701935 -2.4043121 -5.3701935 -5.370178z" fill="#4a9fea"/><path fill-rule="evenodd" d="m232.21391 115.58864l0 0c0 -2.9658737 2.4043274 -5.370186 5.3701935 -5.370186l135.99979 0c1.4242554 0 2.7901917 0.56578827 3.7973022 1.5728912c1.0071106 1.007103 1.572876 2.3730316 1.572876 3.7972946l0 21.480103c0 2.965866 -2.4042969 5.370178 -5.370178 5.370178l-135.99979 0c-2.965866 0 -5.3701935 -2.4043121 -5.3701935 -5.370178z" stroke-linecap="butt" stroke-linejoin="round" stroke-width="2.0" stroke="#4a9fea"/><path fill-rule="nonzero" d="m289.02695 128.15994l-1.828125 0q-0.03125 0.4375 -0.15625 0.75q-0.109375 0.296875 -0.3125 0.484375q-0.203125 0.203125 -0.5 0.296875q-0.28125 0.078125 -0.625 0.078125q-0.28125 0 -0.5 -0.0625q-0.203125 -0.0625 -0.390625 -0.1875q-0.15625 -0.109375 -0.28125 -0.28125q-0.125 -0.1875 -0.21875 -0.40625q-0.125 -0.34375 -0.1875 -0.78125q-0.0625 -0.45313263 -0.0625 -1.0156326l0 -1.28125q0 -0.421875 0.03125 -0.78125q0.046875 -0.359375 0.125 -0.65625q0.109375 -0.390625 0.296875 -0.671875q0.1875 -0.296875 0.453125 -0.453125q0.15625 -0.09375 0.34375 -0.140625q0.1875 -0.046875 0.390625 -0.046875q0.40625 0 0.6875 0.109375q0.296875 0.109375 0.5 0.3125q0.1875 0.21875 0.28125 0.546875q0.109375 0.3125 0.125 0.734375l1.828125 0q-0.0625 -0.75 -0.3125 -1.328125q-0.25 -0.59375 -0.671875 -1.015625q-0.4375 -0.40625 -1.046875 -0.625q-0.609375 -0.21875 -1.390625 -0.21875q-0.515625 0 -0.984375 0.140625q-0.453125 0.125 -0.84375 0.375q-0.421875 0.28125 -0.765625 0.71875q-0.328125 0.421875 -0.546875 0.953125q-0.171875 0.453125 -0.265625 0.96875q-0.09375 0.515625 -0.09375 1.078125l0 1.28125q0 0.609375 0.09375 1.1562576q0.109375 0.546875 0.296875 1.0q0.1875 0.453125 0.46875 0.84375q0.296875 0.375 0.65625 0.640625q0.390625 0.28125 0.890625 0.4375q0.5 0.15625 1.09375 0.15625q0.734375 0 1.34375 -0.21875q0.609375 -0.21875 1.0625 -0.625q0.4375 -0.40625 0.703125 -0.96875q0.265625 -0.578125 0.3125 -1.296875zm1.232544 -0.6093826l0 0.125q0 0.7812576 0.21875 1.4375076q0.21875 0.65625 0.65625 1.125q0.421875 0.484375 1.03125 0.765625q0.625 0.265625 1.421875 0.265625q0.796875 0 1.40625 -0.265625q0.625 -0.28125 1.046875 -0.765625q0.421875 -0.46875 0.640625 -1.125q0.21875 -0.65625 0.21875 -1.4375076l0 -0.125q0 -0.78125 -0.21875 -1.421875q-0.21875 -0.65625 -0.640625 -1.140625q-0.4375 -0.484375 -1.0625 -0.75q-0.609375 -0.28125 -1.40625 -0.28125q-0.78125 0 -1.40625 0.28125q-0.609375 0.265625 -1.03125 0.75q-0.4375 0.484375 -0.65625 1.140625q-0.21875 0.640625 -0.21875 1.421875zm1.8125 0.125l0 -0.125q0 -0.4375 0.078125 -0.8125q0.09375 -0.390625 0.265625 -0.6875q0.1875 -0.296875 0.46875 -0.453125q0.28125 -0.171875 0.6875 -0.171875q0.421875 0 0.703125 0.171875q0.28125 0.15625 0.46875 0.453125q0.171875 0.296875 0.25 0.6875q0.09375 0.375 0.09375 0.8125l0 0.125q0 0.45313263 -0.09375 0.8437576q-0.078125 0.375 -0.25 0.65625q-0.1875 0.296875 -0.46875 0.46875q-0.28125 0.171875 -0.6875 0.171875q-0.40625 0 -0.703125 -0.171875q-0.28125 -0.171875 -0.46875 -0.46875q-0.171875 -0.28125 -0.265625 -0.65625q-0.078125 -0.390625 -0.078125 -0.8437576zm11.482574 -3.71875q-0.703125 0 -1.3125 0.34375q-0.59375 0.34375 -1.015625 0.9375l-0.015625 -0.15625l-0.078125 -1.0l-1.671875 0l0 7.0468826l1.796875 0l0 -4.2343826q0.125 -0.296875 0.3125 -0.515625q0.1875 -0.21875 0.453125 -0.359375q0.234375 -0.125 0.515625 -0.1875q0.28125 -0.0625 0.625 -0.0625q0.34375 0 0.71875 0.046875q0.375 0.03125 0.734375 0.125l0.265625 -1.8125q-0.21875 -0.0625 -0.5625 -0.109375q-0.34375 -0.0625 -0.765625 -0.0625zm6.357544 7.2968826q1.03125 0 1.78125 -0.390625q0.75 -0.390625 1.09375 -0.890625l-0.90625 -0.96875q-0.3125 0.40625 -0.8125 0.609375q-0.5 0.1875 -1.046875 0.1875q-0.375 0 -0.703125 -0.109375q-0.3125 -0.125 -0.546875 -0.328125q-0.25 -0.21875 -0.390625 -0.46875q-0.140625 -0.265625 -0.234375 -0.6875l0 -0.015625l4.78125 0l0 -0.7656326q0 -0.78125 -0.21875 -1.421875q-0.21875 -0.640625 -0.625 -1.09375q-0.421875 -0.453125 -1.015625 -0.703125q-0.59375 -0.25 -1.359375 -0.25q-0.734375 0 -1.359375 0.265625q-0.625 0.265625 -1.078125 0.75q-0.453125 0.484375 -0.703125 1.15625q-0.25 0.65625 -0.25 1.46875l0 0.25q0 0.7187576 0.25 1.3437576q0.265625 0.609375 0.734375 1.078125q0.46875 0.453125 1.125 0.71875q0.671875 0.265625 1.484375 0.265625zm-0.203125 -5.8281326q0.34375 0 0.59375 0.109375q0.265625 0.09375 0.453125 0.28125q0.1875 0.1875 0.28125 0.453125q0.109375 0.25 0.109375 0.53125l0 0.140625l-2.96875 0q0.0625 -0.34375 0.1875 -0.625q0.140625 -0.28125 0.34375 -0.484375q0.1875 -0.203125 0.4375 -0.296875q0.25 -0.109375 0.5625 -0.109375zm6.9981995 6.5156326l3.546875 -10.281258l-1.6875 0l-3.546875 10.281258l1.6875 0zm8.420044 -6.6093826l-1.796875 2.140625l1.15625 0.7968826l1.375 -2.3593826l1.375 2.4218826l1.15625 -0.8281326l-1.75 -2.109375l2.59375 -0.59375l-0.421875 -1.359375l-2.421875 1.0625l0.25 -2.84375l-1.421875 0l0.234375 2.796875l-2.4375 -1.078125l-0.4375 1.328125l2.546875 0.625z" fill="#ffffff"/><path fill-rule="evenodd" d="m232.21391 170.41576l0 0c0 -2.965866 2.4043274 -5.3701935 5.3701935 -5.3701935l135.99979 0c1.4242554 0 2.7901917 0.5657959 3.7973022 1.5728912c1.0071106 1.0071106 1.572876 2.3730316 1.572876 3.7973022l0 21.480103c0 2.965866 -2.4042969 5.370178 -5.370178 5.370178l-135.99979 0c-2.965866 0 -5.3701935 -2.4043121 -5.3701935 -5.370178z" fill="#4a9fea"/><path fill-rule="evenodd" d="m232.21391 170.41576l0 0c0 -2.965866 2.4043274 -5.3701935 5.3701935 -5.3701935l135.99979 0c1.4242554 0 2.7901917 0.5657959 3.7973022 1.5728912c1.0071106 1.0071106 1.572876 2.3730316 1.572876 3.7973022l0 21.480103c0 2.965866 -2.4042969 5.370178 -5.370178 5.370178l-135.99979 0c-2.965866 0 -5.3701935 -2.4043121 -5.3701935 -5.370178z" stroke-linecap="butt" stroke-linejoin="round" stroke-width="2.0" stroke="#4a9fea"/><path fill-rule="nonzero" d="m250.84671 176.48706l0 1.46875l1.8125 0l0 6.53125l-1.8125 0l0 1.46875l5.484375 0l0 -1.46875l-1.84375 0l0 -6.53125l1.84375 0l0 -1.46875l-5.484375 0zm7.670044 9.46875l1.8125 0l0 -5.0q0.09375 -0.140625 0.203125 -0.25q0.109375 -0.125 0.25 -0.21875q0.15625 -0.109375 0.375 -0.171875q0.21875 -0.0625 0.484375 -0.0625q0.3125 0 0.5625 0.0625q0.25 0.0625 0.421875 0.21875q0.171875 0.15625 0.265625 0.4375q0.09375 0.265625 0.09375 0.671875l0 4.3125l1.8125 0l0 -4.328125q0 -0.78125 -0.1875 -1.3125q-0.171875 -0.53125 -0.484375 -0.875q-0.328125 -0.34375 -0.78125 -0.5q-0.4375 -0.15625 -0.96875 -0.15625q-0.421875 0 -0.796875 0.125q-0.359375 0.109375 -0.671875 0.328125q-0.1875 0.125 -0.34375 0.296875q-0.15625 0.15625 -0.296875 0.359375l-0.109375 -0.984375l-1.640625 0l0 7.046875zm11.310699 -8.765625l-1.8125 0l0 1.71875l-1.609375 0l0 1.34375l1.609375 0l0 3.203125q0 0.6875 0.1875 1.1875q0.1875 0.5 0.515625 0.8125q0.34375 0.328125 0.8125 0.484375q0.46875 0.15625 1.046875 0.15625q0.296875 0 0.609375 -0.03125q0.3125 -0.03125 0.59375 -0.078125q0.28125 -0.0625 0.53125 -0.140625q0.265625 -0.078125 0.453125 -0.1875l-0.171875 -1.25q-0.125 0.03125 -0.296875 0.078125q-0.171875 0.03125 -0.375 0.046875q-0.203125 0.03125 -0.421875 0.0625q-0.21875 0.015625 -0.421875 0.015625q-0.28125 0 -0.515625 -0.0625q-0.234375 -0.078125 -0.390625 -0.234375q-0.171875 -0.140625 -0.265625 -0.390625q-0.078125 -0.265625 -0.078125 -0.65625l0 -3.015625l2.625 0l0 -1.34375l-2.625 0l0 -1.71875zm8.091919 8.890625q1.03125 0 1.78125 -0.390625q0.75 -0.390625 1.09375 -0.890625l-0.90625 -0.96875q-0.3125 0.40625 -0.8125 0.609375q-0.5 0.1875 -1.046875 0.1875q-0.375 0 -0.703125 -0.109375q-0.3125 -0.125 -0.546875 -0.328125q-0.25 -0.21875 -0.390625 -0.46875q-0.140625 -0.265625 -0.234375 -0.6875l0 -0.015625l4.78125 0l0 -0.765625q0 -0.78125 -0.21875 -1.421875q-0.21875 -0.640625 -0.625 -1.09375q-0.421875 -0.453125 -1.015625 -0.703125q-0.59375 -0.25 -1.359375 -0.25q-0.734375 0 -1.359375 0.265625q-0.625 0.265625 -1.078125 0.75q-0.453125 0.484375 -0.703125 1.15625q-0.25 0.65625 -0.25 1.46875l0 0.25q0 0.71875 0.25 1.34375q0.265625 0.609375 0.734375 1.078125q0.46875 0.453125 1.125 0.71875q0.671875 0.265625 1.484375 0.265625zm-0.203125 -5.828125q0.34375 0 0.59375 0.109375q0.265625 0.09375 0.453125 0.28125q0.1875 0.1875 0.28125 0.453125q0.109375 0.25 0.109375 0.53125l0 0.140625l-2.96875 0q0.0625 -0.34375 0.1875 -0.625q0.140625 -0.28125 0.34375 -0.484375q0.1875 -0.203125 0.4375 -0.296875q0.25 -0.109375 0.5625 -0.109375zm4.6075745 2.125l0 0.140625q0 0.765625 0.1875 1.421875q0.203125 0.65625 0.578125 1.125q0.375 0.484375 0.890625 0.75q0.53125 0.265625 1.1875 0.265625q0.328125 0 0.609375 -0.078125q0.296875 -0.0625 0.546875 -0.1875q0.15625 -0.09375 0.296875 -0.203125q0.15625 -0.125 0.28125 -0.265625l0 0.40625q0 0.359375 -0.109375 0.640625q-0.09375 0.28125 -0.28125 0.484375q-0.203125 0.203125 -0.515625 0.3125q-0.3125 0.125 -0.703125 0.125q-0.25 0 -0.484375 -0.0625q-0.234375 -0.046875 -0.453125 -0.140625q-0.21875 -0.09375 -0.421875 -0.25q-0.203125 -0.15625 -0.375 -0.359375l-0.8125 1.109375q0.234375 0.296875 0.546875 0.5q0.328125 0.21875 0.671875 0.34375q0.359375 0.140625 0.71875 0.203125q0.375 0.0625 0.6875 0.0625q0.75 0 1.359375 -0.203125q0.625 -0.1875 1.0625 -0.578125q0.4375 -0.375 0.671875 -0.9375q0.25 -0.5625 0.25 -1.28125l0 -6.8125l-1.640625 0l-0.078125 0.671875q-0.125 -0.15625 -0.28125 -0.28125q-0.15625 -0.140625 -0.34375 -0.234375q-0.234375 -0.140625 -0.53125 -0.203125q-0.296875 -0.078125 -0.65625 -0.078125q-0.671875 0 -1.203125 0.265625q-0.515625 0.25 -0.890625 0.734375q-0.375 0.46875 -0.578125 1.140625q-0.1875 0.65625 -0.1875 1.453125zm1.8125 0.140625l0 -0.140625q0 -0.4375 0.09375 -0.828125q0.09375 -0.390625 0.28125 -0.671875q0.1875 -0.296875 0.453125 -0.453125q0.28125 -0.171875 0.671875 -0.171875q0.203125 0 0.375 0.046875q0.1875 0.03125 0.34375 0.109375q0.171875 0.078125 0.3125 0.21875q0.140625 0.140625 0.234375 0.3125l0 2.984375q-0.09375 0.15625 -0.21875 0.296875q-0.125 0.125 -0.28125 0.21875q-0.15625 0.078125 -0.359375 0.125q-0.1875 0.046875 -0.421875 0.046875q-0.375 0 -0.65625 -0.15625q-0.28125 -0.171875 -0.46875 -0.453125q-0.171875 -0.28125 -0.265625 -0.65625q-0.09375 -0.390625 -0.09375 -0.828125zm11.420044 -3.734375q-0.703125 0 -1.3125 0.34375q-0.59375 0.34375 -1.015625 0.9375l-0.015625 -0.15625l-0.078125 -1.0l-1.671875 0l0 7.046875l1.796875 0l0 -4.234375q0.125 -0.296875 0.3125 -0.515625q0.1875 -0.21875 0.453125 -0.359375q0.234375 -0.125 0.515625 -0.1875q0.28125 -0.0625 0.625 -0.0625q0.34375 0 0.71875 0.046875q0.375 0.03125 0.734375 0.125l0.265625 -1.8125q-0.21875 -0.0625 -0.5625 -0.109375q-0.34375 -0.0625 -0.765625 -0.0625zm7.3419495 7.171875l1.84375 0l0 -0.109375q-0.140625 -0.265625 -0.21875 -0.640625q-0.0625 -0.375 -0.0625 -0.9375l0 -3.015625q0 -0.609375 -0.234375 -1.078125q-0.21875 -0.46875 -0.625 -0.765625q-0.40625 -0.3125 -0.953125 -0.46875q-0.546875 -0.15625 -1.1875 -0.15625q-0.71875 0 -1.265625 0.1875q-0.546875 0.171875 -0.921875 0.46875q-0.390625 0.3125 -0.59375 0.71875q-0.1875 0.40625 -0.1875 0.84375l1.8125 0q0 -0.1875 0.046875 -0.34375q0.0625 -0.15625 0.171875 -0.265625q0.140625 -0.125 0.34375 -0.1875q0.203125 -0.0625 0.5 -0.0625q0.3125 0 0.5625 0.078125q0.25 0.078125 0.40625 0.234375q0.15625 0.140625 0.234375 0.34375q0.078125 0.1875 0.078125 0.4375l0 0.421875l-1.015625 0q-0.765625 0 -1.375 0.140625q-0.609375 0.140625 -1.015625 0.40625q-0.453125 0.28125 -0.6875 0.734375q-0.21875 0.453125 -0.21875 1.046875q0 0.453125 0.171875 0.84375q0.1875 0.390625 0.515625 0.65625q0.328125 0.28125 0.78125 0.4375q0.453125 0.15625 0.984375 0.15625q0.34375 0 0.625 -0.0625q0.28125 -0.0625 0.53125 -0.171875q0.234375 -0.09375 0.421875 -0.234375q0.203125 -0.15625 0.34375 -0.3125q0.03125 0.1875 0.078125 0.359375q0.046875 0.171875 0.109375 0.296875zm-1.71875 -1.265625q-0.25 0 -0.453125 -0.0625q-0.1875 -0.0625 -0.3125 -0.171875q-0.140625 -0.109375 -0.203125 -0.265625q-0.0625 -0.15625 -0.0625 -0.34375q0 -0.25 0.078125 -0.453125q0.09375 -0.203125 0.28125 -0.359375q0.203125 -0.140625 0.5 -0.21875q0.296875 -0.078125 0.71875 -0.078125l0.921875 0l0 1.203125q-0.078125 0.140625 -0.21875 0.28125q-0.125 0.125 -0.328125 0.234375q-0.1875 0.09375 -0.421875 0.171875q-0.234375 0.0625 -0.5 0.0625zm8.638794 -7.5l-1.8125 0l0 1.71875l-1.609375 0l0 1.34375l1.609375 0l0 3.203125q0 0.6875 0.1875 1.1875q0.1875 0.5 0.515625 0.8125q0.34375 0.328125 0.8125 0.484375q0.46875 0.15625 1.046875 0.15625q0.296875 0 0.609375 -0.03125q0.3125 -0.03125 0.59375 -0.078125q0.28125 -0.0625 0.53125 -0.140625q0.265625 -0.078125 0.453125 -0.1875l-0.171875 -1.25q-0.125 0.03125 -0.296875 0.078125q-0.171875 0.03125 -0.375 0.046875q-0.203125 0.03125 -0.421875 0.0625q-0.21875 0.015625 -0.421875 0.015625q-0.28125 0 -0.515625 -0.0625q-0.234375 -0.078125 -0.390625 -0.234375q-0.171875 -0.140625 -0.265625 -0.390625q-0.078125 -0.265625 -0.078125 -0.65625l0 -3.015625l2.625 0l0 -1.34375l-2.625 0l0 -1.71875zm5.1700745 1.71875l0 1.484375l2.0 0l0 4.09375l-2.0 0l0 1.46875l5.734375 0l0 -1.46875l-1.90625 0l0 -5.578125l-3.828125 0zm1.875 -1.796875q0 0.203125 0.0625 0.390625q0.078125 0.171875 0.21875 0.296875q0.140625 0.125 0.328125 0.203125q0.1875 0.078125 0.421875 0.078125q0.484375 0 0.765625 -0.265625q0.28125 -0.28125 0.28125 -0.703125q0 -0.421875 -0.28125 -0.6875q-0.28125 -0.28125 -0.765625 -0.28125q-0.234375 0 -0.421875 0.078125q-0.1875 0.0625 -0.328125 0.1875q-0.140625 0.140625 -0.21875 0.328125q-0.0625 0.171875 -0.0625 0.375zm5.388794 5.265625l0 0.125q0 0.78125 0.21875 1.4375q0.21875 0.65625 0.65625 1.125q0.421875 0.484375 1.03125 0.765625q0.625 0.265625 1.421875 0.265625q0.796875 0 1.40625 -0.265625q0.625 -0.28125 1.046875 -0.765625q0.421875 -0.46875 0.640625 -1.125q0.21875 -0.65625 0.21875 -1.4375l0 -0.125q0 -0.78125 -0.21875 -1.421875q-0.21875 -0.65625 -0.640625 -1.140625q-0.4375 -0.484375 -1.0625 -0.75q-0.609375 -0.28125 -1.40625 -0.28125q-0.78125 0 -1.40625 0.28125q-0.609375 0.265625 -1.03125 0.75q-0.4375 0.484375 -0.65625 1.140625q-0.21875 0.640625 -0.21875 1.421875zm1.8125 0.125l0 -0.125q0 -0.4375 0.078125 -0.8125q0.09375 -0.390625 0.265625 -0.6875q0.1875 -0.296875 0.46875 -0.453125q0.28125 -0.171875 0.6875 -0.171875q0.421875 0 0.703125 0.171875q0.28125 0.15625 0.46875 0.453125q0.171875 0.296875 0.25 0.6875q0.09375 0.375 0.09375 0.8125l0 0.125q0 0.453125 -0.09375 0.84375q-0.078125 0.375 -0.25 0.65625q-0.1875 0.296875 -0.46875 0.46875q-0.28125 0.171875 -0.6875 0.171875q-0.40625 0 -0.703125 -0.171875q-0.28125 -0.171875 -0.46875 -0.46875q-0.171875 -0.28125 -0.265625 -0.65625q-0.078125 -0.390625 -0.078125 -0.84375zm6.4356995 3.453125l1.8125 0l0 -5.0q0.09375 -0.140625 0.203125 -0.25q0.109375 -0.125 0.25 -0.21875q0.15625 -0.109375 0.375 -0.171875q0.21875 -0.0625 0.484375 -0.0625q0.3125 0 0.5625 0.0625q0.25 0.0625 0.421875 0.21875q0.171875 0.15625 0.265625 0.4375q0.09375 0.265625 0.09375 0.671875l0 4.3125l1.8125 0l0 -4.328125q0 -0.78125 -0.1875 -1.3125q-0.171875 -0.53125 -0.484375 -0.875q-0.328125 -0.34375 -0.78125 -0.5q-0.4375 -0.15625 -0.96875 -0.15625q-0.421875 0 -0.796875 0.125q-0.359375 0.109375 -0.671875 0.328125q-0.1875 0.125 -0.34375 0.296875q-0.15625 0.15625 -0.296875 0.359375l-0.109375 -0.984375l-1.640625 0l0 7.046875zm12.529419 -1.9375q0 0.171875 -0.078125 0.3125q-0.078125 0.125 -0.234375 0.234375q-0.171875 0.109375 -0.4375 0.171875q-0.265625 0.046875 -0.609375 0.046875q-0.296875 0 -0.578125 -0.046875q-0.28125 -0.0625 -0.484375 -0.1875q-0.21875 -0.125 -0.359375 -0.328125q-0.140625 -0.21875 -0.15625 -0.5l-1.71875 0q0 0.4375 0.203125 0.859375q0.21875 0.421875 0.625 0.75q0.40625 0.34375 1.015625 0.5625q0.609375 0.203125 1.40625 0.203125q0.71875 0 1.296875 -0.15625q0.59375 -0.171875 1.015625 -0.453125q0.40625 -0.28125 0.625 -0.671875q0.234375 -0.40625 0.234375 -0.875q0 -0.5 -0.234375 -0.859375q-0.21875 -0.375 -0.609375 -0.640625q-0.40625 -0.25 -0.953125 -0.40625q-0.546875 -0.171875 -1.171875 -0.28125q-0.453125 -0.0625 -0.734375 -0.140625q-0.28125 -0.09375 -0.453125 -0.203125q-0.171875 -0.109375 -0.234375 -0.234375q-0.0625 -0.140625 -0.0625 -0.296875q0 -0.15625 0.078125 -0.296875q0.078125 -0.140625 0.21875 -0.234375q0.15625 -0.125 0.390625 -0.1875q0.25 -0.0625 0.59375 -0.0625q0.390625 0 0.65625 0.09375q0.28125 0.09375 0.4375 0.265625q0.125 0.125 0.171875 0.28125q0.0625 0.140625 0.0625 0.3125l1.8125 0q0 -0.484375 -0.21875 -0.890625q-0.203125 -0.421875 -0.609375 -0.734375q-0.40625 -0.296875 -1.0 -0.46875q-0.578125 -0.171875 -1.3125 -0.171875q-0.703125 0 -1.265625 0.1875q-0.5625 0.171875 -0.953125 0.46875q-0.390625 0.296875 -0.609375 0.703125q-0.203125 0.390625 -0.203125 0.828125q0 0.4375 0.203125 0.78125q0.21875 0.34375 0.578125 0.609375q0.359375 0.265625 0.875 0.453125q0.515625 0.1875 1.125 0.3125q0.484375 0.09375 0.796875 0.1875q0.328125 0.078125 0.53125 0.1875q0.1875 0.109375 0.25 0.234375q0.078125 0.125 0.078125 0.28125zm5.6700745 2.75l3.546875 -10.28125l-1.6875 0l-3.546875 10.28125l1.6875 0zm8.420044 -6.609375l-1.796875 2.140625l1.15625 0.796875l1.375 -2.359375l1.375 2.421875l1.15625 -0.828125l-1.75 -2.109375l2.59375 -0.59375l-0.421875 -1.359375l-2.421875 1.0625l0.25 -2.84375l-1.421875 0l0.234375 2.796875l-2.4375 -1.078125l-0.4375 1.328125l2.546875 0.625z" fill="#ffffff"/><path fill-rule="evenodd" d="m447.89233 115.13123l146.74017 0l0 38.3937l-146.74017 0z" fill="#ffffff"/><path fill-rule="evenodd" d="m447.89233 115.13123l146.74017 0l0 38.3937l-146.74017 0z" stroke-linecap="butt" stroke-linejoin="round" stroke-width="2.0" stroke="#434343"/><path fill-rule="nonzero" d="m504.62723 138.0187l0 -3.734375l-3.390625 0l0 1.375l1.5625 0l0 1.71875q-0.078125 0.078125 -0.21875 0.15625q-0.125 0.078125 -0.3125 0.125q-0.1875 0.0625 -0.390625 0.09375q-0.203125 0.03125 -0.421875 0.03125q-0.359375 0 -0.640625 -0.109375q-0.265625 -0.109375 -0.46875 -0.3125q-0.125 -0.125 -0.234375 -0.28125q-0.09375 -0.171875 -0.171875 -0.359375q-0.125 -0.328125 -0.203125 -0.75q-0.0625 -0.421875 -0.0625 -0.9375l0 -1.296875q0 -0.40625 0.046875 -0.75q0.046875 -0.359375 0.140625 -0.640625q0.125 -0.375 0.296875 -0.640625q0.1875 -0.28125 0.40625 -0.453125q0.171875 -0.125 0.359375 -0.1875q0.203125 -0.0625 0.40625 -0.0625q0.375 0 0.65625 0.109375q0.28125 0.09375 0.46875 0.296875q0.15625 0.171875 0.25 0.4375q0.09375 0.265625 0.140625 0.609375l1.78125 0q-0.078125 -0.671875 -0.3125 -1.21875q-0.21875 -0.546875 -0.625 -0.9375q-0.421875 -0.375 -1.015625 -0.578125q-0.59375 -0.203125 -1.390625 -0.203125q-0.515625 0 -0.984375 0.15625q-0.46875 0.140625 -0.875 0.40625q-0.328125 0.25 -0.625 0.59375q-0.28125 0.34375 -0.484375 0.765625q-0.234375 0.46875 -0.359375 1.0625q-0.125 0.578125 -0.125 1.25l0 1.28125q0 0.71875 0.125 1.328125q0.125 0.59375 0.375 1.078125q0.21875 0.4375 0.53125 0.78125q0.3125 0.328125 0.6875 0.5625q0.375 0.234375 0.828125 0.34375q0.46875 0.125 0.984375 0.125q0.609375 0 1.125 -0.109375q0.515625 -0.109375 0.9375 -0.28125q0.421875 -0.1875 0.71875 -0.40625q0.3125 -0.21875 0.484375 -0.4375zm2.045044 -5.9375l0 1.484375l2.0 0l0 4.09375l-2.0 0l0 1.46875l5.7344055 0l0 -1.46875l-1.9062805 0l0 -5.578125l-3.828125 0zm1.875 -1.796875q0 0.203125 0.0625 0.390625q0.078125 0.171875 0.21875 0.296875q0.140625 0.125 0.328125 0.203125q0.1875 0.078125 0.421875 0.078125q0.484375 0 0.765625 -0.265625q0.28125 -0.28125 0.28125 -0.703125q0 -0.421875 -0.28125 -0.6875q-0.28125 -0.28125 -0.765625 -0.28125q-0.234375 0 -0.421875 0.078125q-0.1875 0.0625 -0.328125 0.1875q-0.140625 0.140625 -0.21875 0.328125q-0.0625 0.171875 -0.0625 0.375zm8.951324 0.078125l-1.8125 0l0 1.71875l-1.609375 0l0 1.34375l1.609375 0l0 3.203125q0 0.6875 0.1875 1.1875q0.1875 0.5 0.515625 0.8125q0.34375 0.328125 0.8125 0.484375q0.46875 0.15625 1.046875 0.15625q0.296875 0 0.609375 -0.03125q0.3125 -0.03125 0.59375 -0.078125q0.28125 -0.0625 0.53125 -0.140625q0.265625 -0.078125 0.453125 -0.1875l-0.171875 -1.25q-0.125 0.03125 -0.296875 0.078125q-0.171875 0.03125 -0.375 0.046875q-0.203125 0.03125 -0.421875 0.0625q-0.21875 0.015625 -0.421875 0.015625q-0.28125 0 -0.515625 -0.0625q-0.234375 -0.078125 -0.390625 -0.234375q-0.171875 -0.140625 -0.265625 -0.390625q-0.078125 -0.265625 -0.078125 -0.65625l0 -3.015625l2.625 0l0 -1.34375l-2.625 0l0 -1.71875zm10.873169 8.765625l0 -9.46875l-1.8125 0l0 3.875l-2.6875 0l0 -3.875l-1.8125 0l0 9.46875l1.8125 0l0 -4.109375l2.6875 0l0 4.109375l1.8125 0zm6.404419 0l1.640625 0l0 -7.046875l-1.8125 0l0 4.9375q-0.09375 0.171875 -0.21875 0.3125q-0.109375 0.140625 -0.25 0.234375q-0.1875 0.109375 -0.421875 0.171875q-0.21875 0.0625 -0.515625 0.0625q-0.3125 0 -0.53125 -0.078125q-0.21875 -0.078125 -0.359375 -0.265625q-0.140625 -0.171875 -0.203125 -0.46875q-0.0625 -0.296875 -0.0625 -0.71875l0 -4.1875l-1.8125 0l0 4.171875q0 0.796875 0.171875 1.375q0.1875 0.5625 0.515625 0.921875q0.328125 0.375 0.78125 0.546875q0.453125 0.171875 1.0 0.171875q0.609375 0 1.109375 -0.296875q0.5 -0.3125 0.859375 -0.828125l0.109375 0.984375zm9.74823 -3.453125l0 -0.125q0 -0.640625 -0.125 -1.203125q-0.109375 -0.5625 -0.34375 -1.015625q-0.140625 -0.28125 -0.34375 -0.515625q-0.1875 -0.234375 -0.4375 -0.40625q-0.296875 -0.21875 -0.6875 -0.328125q-0.375 -0.125 -0.828125 -0.125q-0.328125 0 -0.609375 0.078125q-0.28125 0.0625 -0.53125 0.203125q-0.15625 0.078125 -0.3125 0.21875q-0.15625 0.125 -0.28125 0.265625l0 -3.59375l-1.8125 0l0 10.0l1.625 0l0.09375 -0.75q0.109375 0.140625 0.234375 0.265625q0.125 0.125 0.265625 0.21875q0.265625 0.1875 0.59375 0.28125q0.34375 0.109375 0.75 0.109375q0.453125 0 0.828125 -0.109375q0.375 -0.109375 0.671875 -0.328125q0.328125 -0.234375 0.5625 -0.578125q0.25 -0.34375 0.40625 -0.765625q0.140625 -0.375 0.203125 -0.828125q0.078125 -0.453125 0.078125 -0.96875zm-1.8125 -0.125l0 0.125q0 0.28125 -0.03125 0.53125q-0.015625 0.25 -0.0625 0.46875q-0.0625 0.296875 -0.203125 0.53125q-0.125 0.21875 -0.328125 0.359375q-0.140625 0.109375 -0.34375 0.171875q-0.1875 0.0625 -0.421875 0.0625q-0.28125 0 -0.5 -0.0625q-0.21875 -0.078125 -0.375 -0.203125q-0.140625 -0.09375 -0.25 -0.21875q-0.09375 -0.140625 -0.171875 -0.296875l0 -2.8125q0.0625 -0.125 0.125 -0.234375q0.078125 -0.109375 0.15625 -0.1875q0.1875 -0.171875 0.421875 -0.265625q0.25 -0.09375 0.578125 -0.09375q0.234375 0 0.421875 0.0625q0.203125 0.046875 0.34375 0.15625q0.234375 0.1875 0.34375 0.40625q0.109375 0.203125 0.1875 0.46875q0.0625 0.21875 0.078125 0.484375q0.03125 0.265625 0.03125 0.546875z" fill="#434343"/><path fill-rule="evenodd" d="m447.89233 134.32808l-54.92914 -0.09448242" fill-opacity="0.0" fill="#000000"/><path fill-rule="evenodd" d="m447.8923 134.32808l-42.92914 -0.07383728" stroke-linecap="butt" stroke-linejoin="round" stroke-width="2.0" stroke="#434343"/><path fill-rule="evenodd" d="m404.96884 130.95078l-9.081879 3.287857l9.070496 3.3190613z" stroke-linecap="butt" stroke-width="2.0" stroke="#434343" fill="#434343"/><path fill-rule="evenodd" d="m128.12599 233.27296l341.03937 0l0 32.220474l-341.03937 0z" fill-opacity="0.0" fill="#000000"/><path fill-rule="nonzero" d="m142.89162 252.5886q0 -0.5625 -0.390625 -0.84375q-0.390625 -0.296875 -1.40625 -0.625q-1.015625 -0.328125 -1.609375 -0.65625q-1.625 -0.875 -1.625 -2.34375q0 -0.765625 0.4375 -1.359375q0.4375 -0.609375 1.25 -0.953125q0.8125 -0.34375 1.8125 -0.34375q1.015625 0 1.8125 0.375q0.796875 0.359375 1.234375 1.03125q0.4375 0.671875 0.4375 1.53125l-1.953125 0q0 -0.65625 -0.40625 -1.015625q-0.40625 -0.359375 -1.15625 -0.359375q-0.71875 0 -1.125 0.3125q-0.390625 0.296875 -0.390625 0.78125q0 0.46875 0.46875 0.78125q0.46875 0.3125 1.375 0.578125q1.671875 0.5 2.421875 1.25q0.765625 0.734375 0.765625 1.84375q0 1.234375 -0.9375 1.9375q-0.921875 0.6875 -2.5 0.6875q-1.09375 0 -2.0 -0.390625q-0.890625 -0.40625 -1.359375 -1.09375q-0.46875 -0.703125 -0.46875 -1.625l1.953125 0q0 1.578125 1.875 1.578125q0.703125 0 1.09375 -0.28125q0.390625 -0.296875 0.390625 -0.796875zm6.0840454 1.09375q0.515625 0 0.84375 -0.28125q0.328125 -0.28125 0.328125 -0.765625l1.765625 0q0 0.71875 -0.390625 1.3125q-0.375 0.59375 -1.046875 0.921875q-0.671875 0.328125 -1.46875 0.328125q-1.515625 0 -2.390625 -0.953125q-0.875 -0.96875 -0.875 -2.65625l0 -0.125q0 -1.625 0.859375 -2.59375q0.875 -0.96875 2.390625 -0.96875q1.3125 0 2.109375 0.75q0.8125 0.75 0.8125 2.0l-1.765625 0q0 -0.546875 -0.328125 -0.890625q-0.328125 -0.34375 -0.859375 -0.34375q-0.65625 0 -1.0 0.484375q-0.328125 0.484375 -0.328125 1.546875l0 0.203125q0 1.078125 0.328125 1.5625q0.328125 0.46875 1.015625 0.46875zm5.856659 -4.890625q0.75 -0.890625 1.875 -0.890625q2.296875 0 2.328125 2.65625l0 4.515625l-1.890625 0l0 -4.453125q0 -0.609375 -0.265625 -0.890625q-0.25 -0.296875 -0.859375 -0.296875q-0.828125 0 -1.1875 0.640625l0 5.0l-1.890625 0l0 -10.0l1.890625 0l0 3.71875zm8.864273 6.40625q-1.546875 0 -2.53125 -0.9375q-0.96875 -0.953125 -0.96875 -2.53125l0 -0.1875q0 -1.0625 0.40625 -1.890625q0.40625 -0.84375 1.15625 -1.296875q0.765625 -0.453125 1.71875 -0.453125q1.453125 0 2.28125 0.921875q0.828125 0.90625 0.828125 2.578125l0 0.765625l-4.484375 0q0.09375 0.6875 0.546875 1.109375q0.46875 0.40625 1.171875 0.40625q1.078125 0 1.6875 -0.78125l0.921875 1.03125q-0.421875 0.59375 -1.140625 0.9375q-0.71875 0.328125 -1.59375 0.328125zm-0.21875 -5.78125q-0.5625 0 -0.90625 0.390625q-0.34375 0.375 -0.453125 1.078125l2.625 0l0 -0.15625q-0.015625 -0.625 -0.34375 -0.96875q-0.328125 -0.34375 -0.921875 -0.34375zm5.9385986 -1.390625l0.0625 0.796875q0.75 -0.921875 2.015625 -0.921875q1.359375 0 1.875 1.078125q0.734375 -1.078125 2.109375 -1.078125q1.15625 0 1.703125 0.671875q0.5625 0.65625 0.5625 2.0l0 4.5l-1.890625 0l0 -4.484375q0 -0.609375 -0.234375 -0.875q-0.234375 -0.28125 -0.8125 -0.28125q-0.859375 0 -1.171875 0.8125l0 4.828125l-1.875 0l0 -4.484375q0 -0.609375 -0.25 -0.875q-0.234375 -0.28125 -0.8125 -0.28125q-0.796875 0 -1.15625 0.65625l0 4.984375l-1.890625 0l0 -7.046875l1.765625 0zm13.850967 7.046875q-0.125 -0.25 -0.1875 -0.625q-0.671875 0.75 -1.765625 0.75q-1.046875 0 -1.734375 -0.59375q-0.671875 -0.59375 -0.671875 -1.515625q0 -1.109375 0.828125 -1.703125q0.84375 -0.609375 2.40625 -0.609375l0.859375 0l0 -0.40625q0 -0.484375 -0.25 -0.78125q-0.25 -0.296875 -0.78125 -0.296875q-0.484375 0 -0.75 0.234375q-0.265625 0.21875 -0.265625 0.625l-1.890625 0q0 -0.609375 0.375 -1.125q0.390625 -0.53125 1.078125 -0.828125q0.6875 -0.296875 1.546875 -0.296875q1.296875 0 2.0625 0.65625q0.765625 0.65625 0.765625 1.84375l0 3.046875q0.015625 1.0 0.28125 1.515625l0 0.109375l-1.90625 0zm-1.546875 -1.3125q0.40625 0 0.75 -0.171875q0.359375 -0.1875 0.53125 -0.5l0 -1.21875l-0.703125 0q-1.40625 0 -1.5 0.984375l0 0.109375q0 0.34375 0.234375 0.578125q0.25 0.21875 0.6875 0.21875zm12.433411 1.3125l-1.890625 0l0 -7.25l-2.234375 0.703125l0 -1.53125l3.921875 -1.40625l0.203125 0l0 9.484375zm3.240509 -0.921875q0 -0.453125 0.296875 -0.734375q0.3125 -0.28125 0.765625 -0.28125q0.46875 0 0.765625 0.28125q0.3125 0.28125 0.3125 0.734375q0 0.4375 -0.3125 0.71875q-0.296875 0.28125 -0.765625 0.28125q-0.453125 0 -0.765625 -0.28125q-0.296875 -0.28125 -0.296875 -0.71875z" fill="#000000"/><path fill-rule="nonzero" d="m211.8474 253.82297q-0.484375 0.703125 -1.34375 1.046875q-0.859375 0.328125 -2.0 0.328125q-1.171875 0 -2.0625 -0.53125q-0.890625 -0.546875 -1.390625 -1.546875q-0.484375 -1.015625 -0.5 -2.328125l0 -0.828125q0 -2.140625 1.0 -3.3125q1.0 -1.1875 2.796875 -1.1875q1.484375 0 2.390625 0.765625q0.90625 0.75 1.109375 2.140625l-1.25 0q-0.34375 -1.875 -2.234375 -1.875q-1.265625 0 -1.90625 0.890625q-0.640625 0.875 -0.65625 2.546875l0 0.78125q0 1.59375 0.71875 2.53125q0.734375 0.9375 1.984375 0.9375q0.703125 0 1.234375 -0.15625q0.53125 -0.15625 0.875 -0.53125l0 -2.125l-2.203125 0l0 -1.015625l3.4375 0l0 3.46875zm1.5784912 -2.328125q0 -1.046875 0.40625 -1.875q0.40625 -0.828125 1.125 -1.265625q0.734375 -0.453125 1.65625 -0.453125q1.4375 0 2.328125 1.0q0.890625 0.984375 0.890625 2.640625l0 0.09375q0 1.015625 -0.390625 1.84375q-0.390625 0.8125 -1.125 1.265625q-0.734375 0.453125 -1.6875 0.453125q-1.421875 0 -2.3125 -0.984375q-0.890625 -1.0 -0.890625 -2.640625l0 -0.078125zm1.203125 0.140625q0 1.171875 0.546875 1.875q0.546875 0.703125 1.453125 0.703125q0.921875 0 1.453125 -0.71875q0.546875 -0.71875 0.546875 -2.0q0 -1.171875 -0.546875 -1.890625q-0.546875 -0.71875 -1.46875 -0.71875q-0.890625 0 -1.4375 0.71875q-0.546875 0.703125 -0.546875 2.03125zm6.3980713 -0.140625q0 -1.046875 0.40625 -1.875q0.40625 -0.828125 1.125 -1.265625q0.734375 -0.453125 1.65625 -0.453125q1.4375 0 2.328125 1.0q0.890625 0.984375 0.890625 2.640625l0 0.09375q0 1.015625 -0.390625 1.84375q-0.390625 0.8125 -1.125 1.265625q-0.734375 0.453125 -1.6875 0.453125q-1.421875 0 -2.3125 -0.984375q-0.890625 -1.0 -0.890625 -2.640625l0 -0.078125zm1.203125 0.140625q0 1.171875 0.546875 1.875q0.546875 0.703125 1.453125 0.703125q0.921875 0 1.453125 -0.71875q0.546875 -0.71875 0.546875 -2.0q0 -1.171875 -0.546875 -1.890625q-0.546875 -0.71875 -1.46875 -0.71875q-0.890625 0 -1.4375 0.71875q-0.546875 0.703125 -0.546875 2.03125zm6.4293213 -0.140625q0 -1.640625 0.75 -2.609375q0.765625 -0.984375 2.03125 -0.984375q1.28125 0 2.015625 0.90625l0.046875 -0.78125l1.109375 0l0 6.875q0 1.375 -0.8125 2.15625q-0.8125 0.78125 -2.1875 0.78125q-0.75 0 -1.484375 -0.328125q-0.734375 -0.3125 -1.109375 -0.875l0.625 -0.734375q0.765625 0.96875 1.890625 0.96875q0.875 0 1.359375 -0.5q0.5 -0.5 0.5 -1.390625l0 -0.609375q-0.71875 0.828125 -1.96875 0.828125q-1.234375 0 -2.0 -0.984375q-0.765625 -1.0 -0.765625 -2.71875zm1.203125 0.140625q0 1.1875 0.484375 1.875q0.5 0.671875 1.375 0.671875q1.140625 0 1.671875 -1.03125l0 -3.21875q-0.546875 -1.015625 -1.65625 -1.015625q-0.875 0 -1.375 0.6875q-0.5 0.6875 -0.5 2.03125zm7.8681793 3.4375l-1.203125 0l0 -10.0l1.203125 0l0 10.0zm4.843796 0.125q-1.421875 0 -2.328125 -0.9375q-0.890625 -0.9375 -0.890625 -2.515625l0 -0.21875q0 -1.046875 0.390625 -1.859375q0.40625 -0.828125 1.125 -1.296875q0.71875 -0.46875 1.5625 -0.46875q1.375 0 2.125 0.90625q0.765625 0.90625 0.765625 2.59375l0 0.5l-4.765625 0q0.015625 1.03125 0.59375 1.671875q0.59375 0.640625 1.484375 0.640625q0.640625 0 1.078125 -0.25q0.453125 -0.265625 0.78125 -0.6875l0.734375 0.5625q-0.875 1.359375 -2.65625 1.359375zm-0.140625 -6.3125q-0.734375 0 -1.234375 0.53125q-0.484375 0.53125 -0.609375 1.484375l3.53125 0l0 -0.078125q-0.046875 -0.921875 -0.5 -1.421875q-0.4375 -0.515625 -1.1875 -0.515625zm10.563675 1.96875q-1.609375 -0.46875 -2.34375 -1.140625q-0.734375 -0.671875 -0.734375 -1.65625q0 -1.125 0.890625 -1.859375q0.90625 -0.734375 2.34375 -0.734375q0.96875 0 1.734375 0.390625q0.765625 0.375 1.1875 1.046875q0.421875 0.65625 0.421875 1.4375l-1.265625 0q0 -0.859375 -0.546875 -1.34375q-0.546875 -0.5 -1.53125 -0.5q-0.921875 0 -1.453125 0.40625q-0.515625 0.40625 -0.515625 1.125q0 0.578125 0.484375 0.984375q0.5 0.40625 1.671875 0.734375q1.1875 0.328125 1.859375 0.734375q0.671875 0.390625 0.984375 0.9375q0.328125 0.53125 0.328125 1.25q0 1.15625 -0.90625 1.84375q-0.890625 0.6875 -2.390625 0.6875q-0.984375 0 -1.828125 -0.375q-0.84375 -0.375 -1.3125 -1.015625q-0.453125 -0.65625 -0.453125 -1.484375l1.265625 0q0 0.859375 0.625 1.359375q0.640625 0.5 1.703125 0.5q0.984375 0 1.515625 -0.40625q0.53125 -0.40625 0.53125 -1.09375q0 -0.703125 -0.5 -1.078125q-0.484375 -0.390625 -1.765625 -0.75zm6.125824 -1.96875q0.8125 -0.984375 2.09375 -0.984375q2.234375 0 2.25 2.515625l0 4.65625l-1.203125 0l0 -4.65625q-0.015625 -0.765625 -0.359375 -1.125q-0.328125 -0.375 -1.0625 -0.375q-0.578125 0 -1.03125 0.3125q-0.4375 0.3125 -0.6875 0.828125l0 5.015625l-1.203125 0l0 -10.0l1.203125 0l0 3.8125zm9.059631 6.3125q-1.421875 0 -2.328125 -0.9375q-0.890625 -0.9375 -0.890625 -2.515625l0 -0.21875q0 -1.046875 0.390625 -1.859375q0.40625 -0.828125 1.125 -1.296875q0.71875 -0.46875 1.5625 -0.46875q1.375 0 2.125 0.90625q0.765625 0.90625 0.765625 2.59375l0 0.5l-4.765625 0q0.015625 1.03125 0.59375 1.671875q0.59375 0.640625 1.484375 0.640625q0.640625 0 1.078125 -0.25q0.453125 -0.265625 0.78125 -0.6875l0.734375 0.5625q-0.875 1.359375 -2.65625 1.359375zm-0.140625 -6.3125q-0.734375 0 -1.234375 0.53125q-0.484375 0.53125 -0.609375 1.484375l3.53125 0l0 -0.078125q-0.046875 -0.921875 -0.5 -1.421875q-0.4375 -0.515625 -1.1875 -0.515625zm7.20166 6.3125q-1.421875 0 -2.328125 -0.9375q-0.890625 -0.9375 -0.890625 -2.515625l0 -0.21875q0 -1.046875 0.390625 -1.859375q0.40625 -0.828125 1.125 -1.296875q0.71875 -0.46875 1.5625 -0.46875q1.375 0 2.125 0.90625q0.765625 0.90625 0.765625 2.59375l0 0.5l-4.765625 0q0.015625 1.03125 0.59375 1.671875q0.59375 0.640625 1.484375 0.640625q0.640625 0 1.078125 -0.25q0.453125 -0.265625 0.78125 -0.6875l0.734375 0.5625q-0.875 1.359375 -2.65625 1.359375zm-0.140625 -6.3125q-0.734375 0 -1.234375 0.53125q-0.484375 0.53125 -0.609375 1.484375l3.53125 0l0 -0.078125q-0.046875 -0.921875 -0.5 -1.421875q-0.4375 -0.515625 -1.1875 -0.515625zm5.9204407 -2.5625l0 1.703125l1.3125 0l0 0.9375l-1.3125 0l0 4.359375q0 0.421875 0.171875 0.640625q0.171875 0.21875 0.59375 0.21875q0.21875 0 0.578125 -0.078125l0 0.96875q-0.46875 0.125 -0.921875 0.125q-0.8125 0 -1.21875 -0.484375q-0.40625 -0.484375 -0.40625 -1.390625l0 -4.359375l-1.28125 0l0 -0.9375l1.28125 0l0 -1.703125l1.203125 0zm6.82251 6.875q0 -0.484375 -0.375 -0.75q-0.359375 -0.265625 -1.28125 -0.453125q-0.90625 -0.203125 -1.453125 -0.46875q-0.53125 -0.28125 -0.796875 -0.65625q-0.25 -0.390625 -0.25 -0.90625q0 -0.859375 0.734375 -1.453125q0.734375 -0.609375 1.875 -0.609375q1.1875 0 1.9375 0.625q0.75 0.609375 0.75 1.578125l-1.21875 0q0 -0.5 -0.421875 -0.859375q-0.421875 -0.359375 -1.046875 -0.359375q-0.65625 0 -1.03125 0.296875q-0.375 0.28125 -0.375 0.75q0 0.421875 0.34375 0.65625q0.34375 0.21875 1.25 0.421875q0.90625 0.203125 1.453125 0.484375q0.5625 0.265625 0.828125 0.671875q0.28125 0.390625 0.28125 0.953125q0 0.9375 -0.765625 1.515625q-0.75 0.5625 -1.953125 0.5625q-0.84375 0 -1.5 -0.296875q-0.640625 -0.296875 -1.015625 -0.828125q-0.359375 -0.546875 -0.359375 -1.171875l1.203125 0q0.03125 0.609375 0.484375 0.96875q0.453125 0.34375 1.1875 0.34375q0.6875 0 1.09375 -0.265625q0.421875 -0.28125 0.421875 -0.75zm11.484314 -2.3125l-3.984375 0l0 4.1875l-1.25 0l0 -9.46875l5.875 0l0 1.015625l-4.625 0l0 3.25l3.984375 0l0 1.015625zm3.2575378 4.1875l-1.203125 0l0 -7.046875l1.203125 0l0 7.046875zm-1.296875 -8.90625q0 -0.296875 0.171875 -0.5q0.1875 -0.203125 0.53125 -0.203125q0.359375 0 0.53125 0.203125q0.1875 0.203125 0.1875 0.5q0 0.296875 -0.1875 0.5q-0.171875 0.1875 -0.53125 0.1875q-0.34375 0 -0.53125 -0.1875q-0.171875 -0.203125 -0.171875 -0.5zm4.531311 8.90625l-1.203125 0l0 -10.0l1.203125 0l0 10.0zm4.8437805 0.125q-1.421875 0 -2.328125 -0.9375q-0.890625 -0.9375 -0.890625 -2.515625l0 -0.21875q0 -1.046875 0.390625 -1.859375q0.40625 -0.828125 1.125 -1.296875q0.71875 -0.46875 1.5625 -0.46875q1.375 0 2.125 0.90625q0.765625 0.90625 0.765625 2.59375l0 0.5l-4.765625 0q0.015625 1.03125 0.59375 1.671875q0.59375 0.640625 1.484375 0.640625q0.640625 0 1.078125 -0.25q0.453125 -0.265625 0.78125 -0.6875l0.734375 0.5625q-0.875 1.359375 -2.65625 1.359375zm-0.140625 -6.3125q-0.734375 0 -1.234375 0.53125q-0.484375 0.53125 -0.609375 1.484375l3.53125 0l0 -0.078125q-0.046875 -0.921875 -0.5 -1.421875q-0.4375 -0.515625 -1.1875 -0.515625zm8.389191 4.3125q0 -0.484375 -0.375 -0.75q-0.359375 -0.265625 -1.28125 -0.453125q-0.90625 -0.203125 -1.453125 -0.46875q-0.53125 -0.28125 -0.796875 -0.65625q-0.25 -0.390625 -0.25 -0.90625q0 -0.859375 0.734375 -1.453125q0.734375 -0.609375 1.875 -0.609375q1.1875 0 1.9375 0.625q0.75 0.609375 0.75 1.578125l-1.21875 0q0 -0.5 -0.421875 -0.859375q-0.421875 -0.359375 -1.046875 -0.359375q-0.65625 0 -1.03125 0.296875q-0.375 0.28125 -0.375 0.75q0 0.421875 0.34375 0.65625q0.34375 0.21875 1.25 0.421875q0.90625 0.203125 1.453125 0.484375q0.5625 0.265625 0.828125 0.671875q0.28125 0.390625 0.28125 0.953125q0 0.9375 -0.765625 1.515625q-0.75 0.5625 -1.953125 0.5625q-0.84375 0 -1.5 -0.296875q-0.640625 -0.296875 -1.015625 -0.828125q-0.359375 -0.546875 -0.359375 -1.171875l1.203125 0q0.03125 0.609375 0.484375 0.96875q0.453125 0.34375 1.1875 0.34375q0.6875 0 1.09375 -0.265625q0.421875 -0.28125 0.421875 -0.75zm9.046814 -2.34375q-1.609375 -0.46875 -2.34375 -1.140625q-0.734375 -0.671875 -0.734375 -1.65625q0 -1.125 0.890625 -1.859375q0.90625 -0.734375 2.34375 -0.734375q0.96875 0 1.734375 0.390625q0.765625 0.375 1.1875 1.046875q0.421875 0.65625 0.421875 1.4375l-1.265625 0q0 -0.859375 -0.546875 -1.34375q-0.546875 -0.5 -1.53125 -0.5q-0.921875 0 -1.453125 0.40625q-0.515625 0.40625 -0.515625 1.125q0 0.578125 0.484375 0.984375q0.5 0.40625 1.671875 0.734375q1.1875 0.328125 1.859375 0.734375q0.671875 0.390625 0.984375 0.9375q0.328125 0.53125 0.328125 1.25q0 1.15625 -0.90625 1.84375q-0.890625 0.6875 -2.390625 0.6875q-0.984375 0 -1.828125 -0.375q-0.84375 -0.375 -1.3125 -1.015625q-0.453125 -0.65625 -0.453125 -1.484375l1.265625 0q0 0.859375 0.625 1.359375q0.640625 0.5 1.703125 0.5q0.984375 0 1.515625 -0.40625q0.53125 -0.40625 0.53125 -1.09375q0 -0.703125 -0.5 -1.078125q-0.484375 -0.390625 -1.765625 -0.75zm6.563324 -4.53125l0 1.703125l1.3125 0l0 0.9375l-1.3125 0l0 4.359375q0 0.421875 0.171875 0.640625q0.171875 0.21875 0.59375 0.21875q0.21875 0 0.578125 -0.078125l0 0.96875q-0.46875 0.125 -0.921875 0.125q-0.8125 0 -1.21875 -0.484375q-0.40625 -0.484375 -0.40625 -1.390625l0 -4.359375l-1.28125 0l0 -0.9375l1.28125 0l0 -1.703125l1.203125 0zm6.119385 2.78125q-0.265625 -0.03125 -0.59375 -0.03125q-1.1875 0 -1.609375 1.0l0 5.0l-1.203125 0l0 -7.046875l1.171875 0l0.03125 0.8125q0.578125 -0.9375 1.671875 -0.9375q0.34375 0 0.53125 0.09375l0 1.109375zm5.4631042 5.265625q-0.703125 0.828125 -2.0625 0.828125q-1.140625 0 -1.734375 -0.640625q-0.578125 -0.65625 -0.578125 -1.9375l0 -4.59375l1.203125 0l0 4.546875q0 1.609375 1.296875 1.609375q1.375 0 1.828125 -1.03125l0 -5.125l1.21875 0l0 7.046875l-1.15625 0l-0.015625 -0.703125zm5.8161316 -0.15625q0.640625 0 1.125 -0.390625q0.484375 -0.390625 0.53125 -0.96875l1.140625 0q-0.03125 0.609375 -0.421875 1.15625q-0.375 0.546875 -1.015625 0.875q-0.640625 0.3125 -1.359375 0.3125q-1.4375 0 -2.296875 -0.953125q-0.84375 -0.96875 -0.84375 -2.625l0 -0.203125q0 -1.03125 0.375 -1.828125q0.390625 -0.796875 1.09375 -1.234375q0.703125 -0.453125 1.671875 -0.453125q1.171875 0 1.953125 0.71875q0.796875 0.703125 0.84375 1.828125l-1.140625 0q-0.046875 -0.671875 -0.515625 -1.109375q-0.46875 -0.453125 -1.140625 -0.453125q-0.921875 0 -1.4375 0.671875q-0.5 0.65625 -0.5 1.90625l0 0.21875q0 1.21875 0.5 1.875q0.515625 0.65625 1.4375 0.65625zm5.7889404 -7.890625l0 1.703125l1.3125 0l0 0.9375l-1.3125 0l0 4.359375q0 0.421875 0.171875 0.640625q0.171875 0.21875 0.59375 0.21875q0.21875 0 0.578125 -0.078125l0 0.96875q-0.46875 0.125 -0.921875 0.125q-0.8125 0 -1.21875 -0.484375q-0.40625 -0.484375 -0.40625 -1.390625l0 -4.359375l-1.28125 0l0 -0.9375l1.28125 0l0 -1.703125l1.203125 0zm7.0725403 8.046875q-0.703125 0.828125 -2.0625 0.828125q-1.140625 0 -1.734375 -0.640625q-0.578125 -0.65625 -0.578125 -1.9375l0 -4.59375l1.203125 0l0 4.546875q0 1.609375 1.296875 1.609375q1.375 0 1.828125 -1.03125l0 -5.125l1.21875 0l0 7.046875l-1.15625 0l-0.015625 -0.703125zm6.3942566 -5.265625q-0.265625 -0.03125 -0.59375 -0.03125q-1.1875 0 -1.609375 1.0l0 5.0l-1.203125 0l0 -7.046875l1.171875 0l0.03125 0.8125q0.578125 -0.9375 1.671875 -0.9375q0.34375 0 0.53125 0.09375l0 1.109375zm3.901886 6.09375q-1.421875 0 -2.328125 -0.9375q-0.890625 -0.9375 -0.890625 -2.515625l0 -0.21875q0 -1.046875 0.390625 -1.859375q0.40625 -0.828125 1.125 -1.296875q0.71875 -0.46875 1.5625 -0.46875q1.375 0 2.125 0.90625q0.765625 0.90625 0.765625 2.59375l0 0.5l-4.765625 0q0.015625 1.03125 0.59375 1.671875q0.59375 0.640625 1.484375 0.640625q0.640625 0 1.078125 -0.25q0.453125 -0.265625 0.78125 -0.6875l0.734375 0.5625q-0.875 1.359375 -2.65625 1.359375zm-0.140625 -6.3125q-0.734375 0 -1.234375 0.53125q-0.484375 0.53125 -0.609375 1.484375l3.53125 0l0 -0.078125q-0.046875 -0.921875 -0.5 -1.421875q-0.4375 -0.515625 -1.1875 -0.515625zm15.06369 1.75q0 1.390625 -0.46875 2.4375q-0.46875 1.03125 -1.328125 1.578125q-0.859375 0.546875 -2.0 0.546875q-1.125 0 -2.0 -0.546875q-0.859375 -0.546875 -1.34375 -1.5625q-0.46875 -1.015625 -0.484375 -2.359375l0 -0.6875q0 -1.359375 0.46875 -2.40625q0.484375 -1.0625 1.34375 -1.609375q0.875 -0.5625 2.0 -0.5625q1.140625 0 2.0 0.5625q0.875 0.546875 1.34375 1.59375q0.46875 1.03125 0.46875 2.421875l0 0.59375zm-1.25 -0.609375q0 -1.6875 -0.671875 -2.578125q-0.671875 -0.90625 -1.890625 -0.90625q-1.1875 0 -1.875 0.90625q-0.671875 0.890625 -0.6875 2.5l0 0.6875q0 1.640625 0.6875 2.578125q0.6875 0.921875 1.890625 0.921875q1.203125 0 1.859375 -0.875q0.671875 -0.875 0.6875 -2.53125l0 -0.703125zm5.256836 3.40625l1.75 -5.40625l1.21875 0l-2.515625 7.046875l-0.921875 0l-2.546875 -7.046875l1.21875 0l1.796875 5.40625zm6.964905 1.765625q-1.421875 0 -2.328125 -0.9375q-0.890625 -0.9375 -0.890625 -2.515625l0 -0.21875q0 -1.046875 0.390625 -1.859375q0.40625 -0.828125 1.125 -1.296875q0.71875 -0.46875 1.5625 -0.46875q1.375 0 2.125 0.90625q0.765625 0.90625 0.765625 2.59375l0 0.5l-4.765625 0q0.015625 1.03125 0.59375 1.671875q0.59375 0.640625 1.484375 0.640625q0.640625 0 1.078125 -0.25q0.453125 -0.265625 0.78125 -0.6875l0.734375 0.5625q-0.875 1.359375 -2.65625 1.359375zm-0.140625 -6.3125q-0.734375 0 -1.234375 0.53125q-0.484375 0.53125 -0.609375 1.484375l3.53125 0l0 -0.078125q-0.046875 -0.921875 -0.5 -1.421875q-0.4375 -0.515625 -1.1875 -0.515625zm7.686035 0.21875q-0.265625 -0.03125 -0.59375 -0.03125q-1.1875 0 -1.609375 1.0l0 5.0l-1.203125 0l0 -7.046875l1.171875 0l0.03125 0.8125q0.578125 -0.9375 1.671875 -0.9375q0.34375 0 0.53125 0.09375l0 1.109375zm3.5490417 4.328125l1.75 -5.40625l1.21875 0l-2.515625 7.046875l-0.921875 0l-2.546875 -7.046875l1.21875 0l1.796875 5.40625zm5.4401855 1.640625l-1.203125 0l0 -7.046875l1.203125 0l0 7.046875zm-1.296875 -8.90625q0 -0.296875 0.171875 -0.5q0.1875 -0.203125 0.53125 -0.203125q0.359375 0 0.53125 0.203125q0.1875 0.203125 0.1875 0.5q0 0.296875 -0.1875 0.5q-0.171875 0.1875 -0.53125 0.1875q-0.34375 0 -0.53125 -0.1875q-0.171875 -0.203125 -0.171875 -0.5zm6.1406555 9.03125q-1.421875 0 -2.328125 -0.9375q-0.890625 -0.9375 -0.890625 -2.515625l0 -0.21875q0 -1.046875 0.390625 -1.859375q0.40625 -0.828125 1.125 -1.296875q0.71875 -0.46875 1.5625 -0.46875q1.375 0 2.125 0.90625q0.765625 0.90625 0.765625 2.59375l0 0.5l-4.765625 0q0.015625 1.03125 0.59375 1.671875q0.59375 0.640625 1.484375 0.640625q0.640625 0 1.078125 -0.25q0.453125 -0.265625 0.78125 -0.6875l0.734375 0.5625q-0.875 1.359375 -2.65625 1.359375zm-0.140625 -6.3125q-0.734375 0 -1.234375 0.53125q-0.484375 0.53125 -0.609375 1.484375l3.53125 0l0 -0.078125q-0.046875 -0.921875 -0.5 -1.421875q-0.4375 -0.515625 -1.1875 -0.515625zm10.514191 4.53125l1.359375 -5.390625l1.203125 0l-2.046875 7.046875l-0.984375 0l-1.703125 -5.34375l-1.671875 5.34375l-0.96875 0l-2.046875 -7.046875l1.203125 0l1.375 5.28125l1.640625 -5.28125l0.96875 0l1.671875 5.390625z" fill="#000000"/></g></svg>