<svg xmlns="http://www.w3.org/2000/svg" width="48" height="48" fill="none"><ellipse cx="23.75" cy="24" fill="#041D4F" rx="23.75" ry="24"/><path fill="#fff" d="M21.5077 2.84545c.1328 0 .2989.06766.4429.27063-.6423-.93593.7198-.52998.7973-1.4208.7751-.58637.4983-.969756.7197-.992308L23.7112.5c-.4761.180419-.6422.214248-.7751.214248H22.7147c-.1661 0-.443.033828-1.0963.2368-1.4949.112762-2.569 1.759092-3.0784 1.804192-.5204.28191-.4983.33829-.3765.33829.0333 0 .0776-.01128.1219-.01128.0442 0 .0775-.01128.1107-.01128.1218 0 .0886.05638-.6201.39467.1661.04511-1.2402.67657-1.2513 1.66888-.0443.38339.1107.64274.3654.64274.2215 0 .4983-.16914.7973-.59764.9966-1.17272 3.1005-1.28548 4.0085-1.99588-.5647-.04511-.454-.33829-.1882-.33829Zm-5.0605.39467c-.0997 0 .0332-.12404.1772-.24808.155-.12404.3322-.24808.3322-.24808l-.0111.01128c.5979-.2368.2325-.29318.5536-.45105h-.0221c-.0664 0 .0554-.09021.1661-.19169.1107-.09021.2104-.1917.1107-.1917-.0553 0-.1993.03383-.4429.13532.0775-.11277.3765-.1917.7973-.4285-.6091.20297-1.0852.32701-1.1406.32701-.0443 0 .2104-.09021.9745-.32701.0332 0 .0664.01128.0886.01128.0775 0 .1107-.02256.0996-.04511-.011-.02255-.0553-.03383-.1329-.03383-1.0962.09021-1.9156.78934-1.672.87955.1439-.04511.2436-.06766.31-.06766.144 0 .0775.12404-.2104.30446.1329.31573-2.2146 1.12762-2.4804 1.4208.1329-.07894.2215-.10149.2658-.10149.1772 0-.0554.34956-.2879.51871.1439.13531.2547.18042.3433.18042.2325 0 .3322-.32701.5315-.4285.0443.09021.0886.13532.1439.13532.1883 0 .4208-.4736.6091-.72168.0553.05638.1218.10148.2103.10148.1772 0 .443-.14659.8638-.56381-.0886.01128-.1551.02256-.1772.02256Zm-2.5469 2.07482c-.3986.24807-.609.34956-.6976.34956-.1661 0 .0554-.31573.2547-.64274.1993-.31574.3765-.63147.1218-.63147-.1218 0-.3433.06766-.6976.24808-.9634.65402-2.5911 2.45821-3.3109 2.45821h-.06644c1.16274-.86827.81944-2.57098 2.44714-3.01075 1.6057-.93592 2.7019-.64274 4.1304-1.71398-.4208.21425-1.0409.45105-1.1849.45105-.0886 0 .0443-.11276.6201-.39467-.0553.01128-.0996.02255-.1328.02255-.3876 0 2.5468-1.07124 2.6908-1.09379-1.207.16914-3.1559 1.19528-3.4217 1.19528-.0332 0-.0332-.01128-.0332-.03383.0443-.03383.0443-.05638 0-.05638-.1439 0-.7419.20297-1.3509.40594-.598.20297-1.207.41722-1.3399.41722-.0443 0-.0443-.02255.0221-.06766C6.72487 6.23959 2.36201 11.3364 1 17.3805c.56474 1.3193.17717 3.8339 1.10733 4.5668 1.06303.9134-.90801 3.5633-.38757 5.1984.53152 2.9543 2.82368 4.9728 3.06729 7.9948.42079 2.0748 1.95997 4.612 2.60222 5.9313C7.87649 41.5679 9.21635 43 9.44889 43c.08859 0 .03322-.2142-.32112-.7893-.22147-.6428-1.50596-2.3229-.88586-2.3229.03322 0 .06644 0 .11073.0112-.76405-.7893 1.69416-.575-.02215-1.6463-.19931-.2481-.24361-.327-.19931-.327.05536 0 .21039.0902.38756.1804.18824.0902.40971.1804.58688.1804.27683 0 .46508-.1916.35435-.8908.04429.0226.08858.0226.1218.0226.28791 0 .18825-.5751.21039-1.1502.02215-.5751.1661-1.1502.94124-1.1502.0886 0 .1882.0113.2879.0226 1.7939-.9923.2325-3.7324 2.2922-4.736-.0776-2.2778-3.0784-2.3906-4.20788-3.3152-.18824.1127-.36542.1466-.54259.1466-.19932 0-.37649-.0451-.53151-.1015-.15503-.0451-.29898-.1015-.39864-.1015-.02215 0-.04429 0-.06644.0113 1.92675-.5187.52044-3.2476-1.07411-3.2476H6.3816c-.1218-1.184-.71976-.7329-.7862-1.714-.09966.0564-.19932.079-.29898.079-.26576 0-.50937-.1917-.71976-.3721-.21039-.1917-.38756-.3721-.54259-.3721-.1218 0-.23254.124-.3322.4848.11074-.5525.07752-.7329-.03322-.7329-.11073 0-.31005.1917-.53151.3834-.21039.1917-.45401.3834-.64225.3834h-.05537c-1.29557-.936.01108-2.5936-.67547-3.8678.44293-.4849.62011-1.308.42079-1.308-.09966 0-.29898.203-.60903.7555-.44293-1.1502.73083-3.755 1.72743-3.9016.03322 0 .05536-.0113.08858-.0113.17717 0 .35435.0903.50937.282.08859.5299-.13288 1.6463-.04429 1.6463.04429 0 .13288-.2255.35434-.8119.28791-1.3419 2.30324-2.3116 2.51363-3.1348.01108.0113.01108.0113.02215.0113.23254 0 1.72743-1.3419 2.38075-1.4885.25468-.25933.43186-.34954.56474-.34954.14395 0 .22146.11276.27683.21425.05536.11279.09966.21429.15506.21429.0443 0 .0996-.0677.1993-.2594-.34329-.68785.5426-1.34186.299-1.34186-.0886 0-.3544.09021-.89698.31573-.08858.0451-.13288.05638-.15502.05638-.06644 0 .19932-.18042.5869-.36084.3875-.18042.8748-.36084 1.2845-.36084.1993 0 .3765.04511.5093.15787 1.7164-.41722.7752-.9923.8638-.9923h.0221c.4872-.29319.3433-1.39825 1.063-2.0861ZM6.22658 9.9269c-.02215 0 .07751-.14659.40971-.56381.68654-.5187 1.2402-.86826.60903-1.20655.27683-.12404.54258-.27063.79727-.4285-.01107.55254-.46508 1.89441-.70869 1.89441-.05536 0-.11073-.07894-.13288-.24808.14395-.25935.15503-.36084.09966-.36084-.08858 0-.34327.22553-.58688.46233-.24361.21424-.46508.45104-.48722.45104Zm.63117.3045c-.29898 0-.24361-.1917.67547-.38343.39864-.05638.08859-.03383.56474-.14659-.46508.38342-.98552.53002-1.24021.53002ZM24.0767 9.09247c.1328-.02256.2325-.02256.31-.02256.3211 0 .1772.13532-.0111.27063-.1882.13532-.4207.27063-.2879.27063.0775 0 .2879-.0451.7198-.16914 2.1814-.15787-.8526-2.04099-.3654-2.67246l-.1329-.04511c-.8969 1.16145.598 1.184-.2325 2.36801Zm-.908.0451c.155 0 .3543-.18042.5647-.68785.2879-.34956.1661-.39467-.144-.56381-.8526.22553-.7751 1.25166-.4207 1.25166Zm7.6405 3.57453c-.0332 0-.0554.0113-.0775.0226.0886.0225.1772.0451.2657.0451-.0885-.0451-.1439-.0677-.1882-.0677Zm14.8714 2.8078c.1882.4172.2879.5864.299.5864.0775 0-1.3953-3.6535-2.0043-4.3075-3.178-5.32241-8.4046-9.39312-14.362-10.915409h-.0111c-.155 0 .0222.078933.2326.157869.2103.07893.465.15786.465.15786s-.1661-.05638-.6754-.202967C29.0596.82701 28.4838.702972 27.8969.657867c-.0996.033828 2.4251 1.048683 4.1193 1.578663-.5648-.18041-1.1516-.33828-1.2956-.33828-.0996 0 0 .06766.4097.24808-.4983-.1466-.7087-.21425-.7308-.21425-.0332 0 .6644.2368 1.3177.4736.6644.2368 1.2956.4736 1.1184.4736-.0443 0-.1661-.02255-.3543-.05638.5647.31573.764.43977.7308.43977-.0554 0-.753-.33829-1.4727-.67657-.7087-.33829-1.4285-.67657-1.5282-.67657-.0553 0 .0886.11276.5759.40594.6643.29318 1.3287.58636 1.1405.58636-.0886 0-.3433-.05638-.8416-.20297 1.1074.57509-.7862.34956-.1439 1.12762-.3544-.33829-.4983-.45105-.5315-.45105-.0333 0 .0553.13532.1439.27063.0886.13531.155.27063.0775.27063h-.0221c.7751.85699-.5426.09021.3986.85699-.7087-.32701-1.9157-.86827-1.3731-.86827.1329 0 .3876.03383.7862.12404-.7197-.85699-2.7572-.89082-2.8015-.9923-.5094.03382-.5204.42849-.4319 1.15017-.011 1.13889-1.1073 1.16145-.9633 1.81547 0-.01128.011-.01128.011-.01128.0222 0 .0333.22552.0997.46232.0775.22553.2104.46233.4983.46233.155 0 .3543-.06766.598-.2368.3432.63147.6533.85699.8969.85699.3654 0 .5869-.50743.5647-.96975-.3986-.22553-.9191-2.09738-.3432-2.09738.0885 0 .1993.04511.3432.14659-.8969 2.24397 3.5435.74423 1.0298 1.77037.5648.7555-.3543.72167-.0885 1.63505-.4319.12403-.9081.2368-1.3288.2368-.6201 0-1.0963-.27063-1.0409-1.21783-.7752.41722.7751 1.82674-.7641 1.82674h-.0886c-.7419 1.38696-3.5213.91337-1.3398 2.37926.1218.6428-.2769.7555-.7862.7555-.1329 0-.2769-.0113-.4208-.0225-.144-.0113-.2879-.0113-.4208-.0113-.5758 0-.9855.1466-.6312 1.06-.2547.9472.3433 1.3644 1.0741 1.3644.8859 0 1.9711-.5864 2.0486-1.5561.4761-.733 1.0852-1.0374 1.7163-1.0374.9966 0 2.0486.7667 2.7351 1.7139.0554.0902.0997.1241.1218.1241.0554 0 0-.2255-.0221-.4511-.0221-.1804-.0222-.3608.0443-.4172-.9855-.2819-1.7385-1.4997-1.4063-1.4997.1107 0 .3433.1353.7197.4961h.0554c.6201 0 1.1073.4962 1.4838.9923.3876.4962.6755.9923.9302.9923.0996 0 .1993-.0902.2879-.2931-.0443-.0677-.155-.2594-.2104-.4511-.0664-.2368-.0664-.4736.2325-.4736.1218 0 .2879.0451.5205.1353.753-.203-.4762-2.1988.5204-2.1988.0997 0 .2215.0225.3765.0676-.0111.3496.144.4736.2879.4736.2879 0 .5758-.4172-.1218-.5412.2658-.2594.4208-.3609.5315-.3609.3876 0 .0775 1.3081 1.4174 1.3081.454 1.0938-3.9421.0789-2.5358 2.1763.3212.2368.7198.2819 1.1074.2819.1218 0 .2325 0 .3432-.0113.1108 0 .2215-.0113.3211-.0113.6866 0 1.1738.1692.8748 1.6125-.3654.2706-.7751.3609-1.1959.3609-.3765 0-.753-.0677-1.1184-.1354-.3654-.0676-.7197-.1353-1.0409-.1353-.4983 0-.8969.1692-1.1405.7555-1.2956-.5412-3.0009-.5638-2.8348-2.1988-2.2589.327-4.6175.1578-6.2785 1.5674-.0997 2.0635-3.5767 2.7288-2.7351 5.0743-1.0077 2.165 1.2181 5.1983 3.4881 5.1983.0775 0 .1661 0 .2436-.0113 1.2402-.0113 2.4915-.5751 3.5877-.5751.5648 0 1.0741.1466 1.5171.5977.0996-.0113.1882-.0226.2657-.0226 1.6942 0-.5426 2.7401 1.4838 3.2024 1.8382 1.9396-1.1294 3.9354.3212 5.796.155 1.4546.8637 2.6725.8637 4.0933.1882.0225.3654.0338.5536.0338 2.3365 0 3.7982-2.0748 5.1713-3.6422-.4208-2.3455 3.2666-2.8078 2.0042-5.4351-.5869-2.8755 2.7794-4.5782 2.5912-7.4536.0332-.4059-.0776-.53-.2437-.53s-.4097.1241-.6422.2368c-.2436.1241-.5094.2368-.7198.2368-.2768 0-.4872-.1917-.5093-.8231-1.6278-1.5449-2.3697-3.6423-3.8868-5.345 1.9711.9698 3.0895 3.1574 3.9975 5.142.0775.0225.155.0338.2436.0338 1.6056 0 3.8424-3.9128 1.4063-4.86-.1329.3721-.31.5074-.5204.5074-.3655 0-.7862-.4511-1.0852-.8908-.299-.4511-.454-.9021-.2879-.9021.1107 0 .3543.1804.7751.654.4762.3045.9412.3834 1.4285.3834.4761 0 .9633-.0789 1.4727-.124.6423.2593.9191 1.0937 1.1184 1.0937.0332 0 .0775-.0338.1107-.1127.5094 1.2404 1.0963 3.4505 1.6278 4.0481-.2768-1.8944-.3433-3.9015-.8194-5.7621Zm-6.1789-2.6048c-1.2513-.327-1.661-1.9057-2.6465-2.8191-.0111-.24803.3543-.20292.2658-.62014 1.3287.41722.8969.83444.7751.91334.4872.8232 1.8492 1.387 1.6056 2.5259ZM22.3049 4.33391c-1.2069.36084-1.373-.03383-1.1626.72168.0885.06765.2546.0902.4207.0902.5869.01128 1.3842-.33828.7419-.81188ZM40.0332 35.3998c1.5835-1.3644 1.7828-2.9881 1.8603-4.6345-.7087 1.4096-2.8126 2.9657-1.8603 4.6345Zm-7.2087-21.9885c-.011.0112-.011.0112-.011.0225.011.0226.0221.0226.0221.0226s0-.0113-.0111-.0451Z"/></svg>