<svg xmlns="http://www.w3.org/2000/svg" width="48" height="48" fill="none"><path fill="#000" d="M24 .296875C10.74.296875 0 11.0862 0 24.3935c0 10.6488 6.876 19.679 16.41 22.8617 1.2.2269 1.64-.518 1.64-1.1586 0-.5723-.02-2.0884-.03-4.0964-6.676 1.4538-8.084-3.233-8.084-3.233-1.092-2.7812-2.67-3.5241-2.67-3.5241-2.174-1.494.168-1.4639.168-1.4639 2.41.1687 3.676 2.4819 3.676 2.4819 2.14 3.6848 5.618 2.6205 6.99 2.0041.216-1.5583.834-2.6205 1.52-3.223-5.33-.6024-10.932-2.6747-10.932-11.9077 0-2.6306.93-4.7792 2.47-6.466-.27-.6084-1.08-3.0582.21-6.3775 0 0 2.01-.64663 6.6 2.4699 1.92-.5362 3.96-.8012 6-.8133 2.04.0121 4.08.2771 6 .8133 4.56-3.11653 6.57-2.4699 6.57-2.4699 1.29 3.3193.48 5.7691.24 6.3775 1.53 1.6868 2.46 3.8354 2.46 6.466 0 9.2571-5.61 11.2953-10.95 11.8877.84.7229 1.62 2.2008 1.62 4.4578 0 3.225-.03 5.8154-.03 6.5985 0 .6326.42 1.3856 1.65 1.1446C41.13 44.0624 48 35.0262 48 24.3935 48 11.0862 37.254.296875 24 .296875Z"/></svg>