<svg xmlns="http://www.w3.org/2000/svg" width="48" height="48" fill="none"><path fill="#004F70" d="M48 0H0v48h48V0Z"/><path fill="#FEF4B7" d="M43.826 5H4.17383v38H43.826V5Z"/><path fill="#004F70" d="M29.9555 11.9523H18.2272l5.864-1.8871 5.8643 1.8871Z"/><path fill="#004F70" d="m18.2272 11.9523 5.864-1.8871 5.8643 1.8871H18.2272Zm-3.0331 6.654h2.3255v13.9436h-2.3255V18.6063Zm3.842 0h2.2244v13.9436h-2.2244V18.6063Zm-7.5828 0h2.2243v13.9436h-2.2243V18.6063Zm11.4248 0h2.2239v13.9436h-2.2239V18.6063Zm7.5824 0h2.3258v13.9436h-2.3258V18.6063Zm-3.7408 0h2.2246v13.9436h-2.2246V18.6063Zm7.5831 0h2.2243v13.9436h-2.2243V18.6063Z"/><path fill="#004F70" d="M4.17383 32.5501h1.61768l1.61767-1.425V17.6132h1.41538v-4.7671h7.17854v-1.9863l6.5716-2.28429v-.89399h2.8307v.89399l6.471 2.28429v1.9863h7.3803v4.7671h1.6182l.0497 13.5119 1.4258 1.425h1.4756V5H4.17383v27.5501ZM43.826 40.5547h-3.4569v-.1987l-.2023-.1987h-.1011v-.0994h-.1012l-.1011-.298.2023-.1983v-.0993h.1011v-.1988l.1012-.0993v-.2981h.1011v-1.2912h-.1011v-.0993h-.1012v-.0994h-.1011l-.1012-.0994h-.1011v-.1987h-.1012v-.1987h-.2023V36.78h-.2023v-.1987h-.1011v-.0993l-.1007-.0994-.1011-.0994h-.2023l-.1012-.1982v.0989h-.1011v.0993h-.2023l-.1012.0994h-.1011v.1987h-.1012v.1987h-.2023v.0994h-.2023v.0994l-.1011.0993v.1987h-.2023v.0994h-.2018v.0994l-.1012.0993v1.2912h.1012v.2981l.1011.0993v.1988h.1007v.1987h.2023v.3969h-.2023v.0994h-.1007v.0994h-.1011v.0993l-.1012.0994v.0993h-4.329L32.787 42.05h-6.0673l-.0007-7.6525h-5.3576l.0007 7.6525h-6.1673v-1.5343l-4.4494.039v-.0993l-.1009-.0994v-.0993h-.1011v-.0994h-.1012v-.0994h-.2023v-.298l.2023-.1983v-.1987h.1012v-.2981h.1011v-.4968h.1009v-.7944l-.1009-.0993v-.1987h-.1011v-.0994h-.2023v-.0994h-.1012v-.0993h-.1011v-.1987h-.1009v-.0994h-.10117V36.78h-.30321v-.298h-.10115v-.0994h-.10115v-.0994h-.30321v-.1982h-.10115v.1982h-.30321v.0994H8.6225v.0994h-.10115v.1987l-.10115.0993h-.2023v.0994h-.10115v.0994h-.10091v.1987h-.10115v.0993h-.10115l-.10115.0994h-.10115v.0994h-.10115v.0993l-.10091.0994v.4963l.10091.1987v.5962l.10115.0993v.2981h.10115v.1987h.10115v.0994h.10115v.3969h-.10115v.0994h-.10115l-.2023.1987v.1987H4.17383V43H43.826v-2.4453Z"/></svg>