<svg width="24" height="24" viewBox="0 0 24 24" fill="none" xmlns="http://www.w3.org/2000/svg"><path d="M22.5048 17.2905V13.4143L22.0857 13.1524L12.0286 18.6524L2.49524 13.4143V11.1619L12.0286 16.3476L22.5571 10.6381V6.81429L22.1381 6.55238L12.0286 12.1048L2.8619 7.07619L12.0286 2.04762L19.4143 6.08095L19.9905 5.76667V5.34762L12.0286 1L1.5 6.70952V7.28571L12.0286 13.0476L21.5619 7.80952V10.1143L12.0286 15.3524L1.91905 9.8L1.5 10.0619V13.9381L12.0286 19.6476L21.5619 14.4619V16.7143L12.0286 21.9524L1.91905 16.4524L1.5 16.7143V17.2905L12.0286 23L22.5048 17.2905Z" fill="#FF3621"/></svg>