<svg width="24" height="24" viewBox="0 0 24 24" fill="none" xmlns="http://www.w3.org/2000/svg"><path d="M12.3938 0C11.6198 0 10.9075 0.428193 10.541 1.11165C10.1787 1.79512 10.2199 2.6268 10.6522 3.26909L11.5498 2.37565C11.5209 2.28507 11.5045 2.19449 11.5045 2.09979C11.5045 1.60984 11.8997 1.21459 12.3897 1.21459C12.8796 1.21459 13.2749 1.60984 13.2749 2.09979C13.2749 2.58974 12.8796 2.985 12.3897 2.985C12.295 2.985 12.2044 2.96853 12.1138 2.93971L11.2163 3.83315C11.9615 4.33957 12.9455 4.31075 13.6619 3.76727C14.3783 3.2238 14.6665 2.28095 14.3783 1.42868C14.0942 0.572296 13.2914 0 12.3938 0Z" fill="#34A853"/><path d="M11.5575 6.11431C11.5575 5.40615 11.3311 4.71445 10.9029 4.15039L9.74183 5.31145C10.1041 5.97844 9.97651 6.80189 9.4248 7.32478L10.0589 8.86875C10.9894 8.26351 11.5575 7.22597 11.5575 6.11431Z" fill="#FBBC04"/><path d="M8.30488 7.78209H8.27606C7.56378 7.78209 6.92973 7.32919 6.69916 6.65396C6.4686 5.97874 6.69093 5.23352 7.25499 4.79297C7.81905 4.35243 8.59721 4.32361 9.19421 4.71886L10.347 3.56604C9.22715 2.65613 7.64613 2.58613 6.44801 3.39311C5.24989 4.20009 4.72289 5.69053 5.14285 7.06981C5.5628 8.44908 6.83503 9.39193 8.27606 9.39193C8.49839 9.39193 8.72073 9.37134 8.93894 9.32605L8.30488 7.78209Z" fill="#EA4335"/><path d="M12.435 9.11572C11.7062 9.11572 10.9816 9.22277 10.2858 9.42863L11.208 11.6808C11.6074 11.5819 12.0191 11.5325 12.435 11.5325C14.8312 11.5325 16.8898 13.2247 17.3592 15.5757C17.8244 17.9266 16.5687 20.2776 14.3577 21.1916C12.1468 22.1056 9.59407 21.3316 8.2642 19.3429C6.93433 17.3543 7.1896 14.6987 8.88179 13.0024C9.23587 12.6483 9.63936 12.3519 10.0799 12.1172L9.16999 9.87329C5.77327 11.5367 4.16343 15.4851 5.43154 19.0506C6.69965 22.6161 10.4381 24.6624 14.123 23.806C17.808 22.9538 20.266 19.4706 19.8378 15.7115C19.4096 11.9525 16.2269 9.11572 12.4432 9.11572H12.435Z" fill="#4285F4"/></svg>