<svg width="24" height="24" viewBox="0 0 24 24" fill="none" xmlns="http://www.w3.org/2000/svg"><path d="M3.0542 4C3.0542 3.44772 3.50191 3 4.0542 3H20.0542C20.6065 3 21.0542 3.44772 21.0542 4V20C21.0542 20.5523 20.6065 21 20.0542 21H4.0542C3.50191 21 3.0542 20.5523 3.0542 20V4Z" fill="#FF9800"/><path d="M5.5 5.5H11.5V7H5.5V5.5Z" fill="white"/><path d="M5.5 8H11.5V9.5H5.5V8Z" fill="white"/><path d="M5.5 10.5H11.5V12H5.5V10.5Z" fill="white"/><path d="M5.5 13H11.5V14.5H5.5V13Z" fill="white"/><path d="M12.5 5.5H18.5V7H12.5V5.5Z" fill="white"/><path d="M12.5 8H18.5V9.5H12.5V8Z" fill="white"/><path d="M12.5 10.5H18.5V12H12.5V10.5Z" fill="white"/><path d="M12.5 13H18.5V14.5H12.5V13Z" fill="white"/><path d="M12.5 15.5H18.5V17H12.5V15.5Z" fill="white"/><path d="M6.5 17.5C6.5 16.3954 7.39543 15.5 8.5 15.5C9.60457 15.5 10.5 16.3954 10.5 17.5C10.5 18.6046 9.60457 19.5 8.5 19.5C7.39543 19.5 6.5 18.6046 6.5 17.5Z" fill="white"/></svg>