<svg width="24" height="24" viewBox="0 0 24 24" fill="none" xmlns="http://www.w3.org/2000/svg"><path d="M13.1113 3.11111C13.1113 2.49746 13.6088 2 14.2224 2H18.6669C19.2805 2 19.778 2.49746 19.778 3.11111V20.8889C19.778 21.5025 19.2805 22 18.6669 22H14.2224C13.6088 22 13.1113 21.5025 13.1113 20.8889V3.11111Z" fill="url(#paint0_linear_10_2390)"/><g filter="url(#filter0_d_10_2390)"><path d="M8.66699 8.11111C8.66699 7.49746 9.16445 7 9.7781 7H14.2225C14.8362 7 15.3337 7.49746 15.3337 8.11111V22H9.7781C9.16445 22 8.66699 21.5025 8.66699 20.8889V8.11111Z" fill="url(#paint1_linear_10_2390)"/></g><g filter="url(#filter1_d_10_2390)"><path d="M4.22266 13.1111C4.22266 12.4975 4.72012 12 5.33377 12H9.77821C10.3919 12 10.8893 12.4975 10.8893 13.1111V22H5.33377C4.72012 22 4.22266 21.5025 4.22266 20.8889V13.1111Z" fill="url(#paint2_linear_10_2390)"/></g><defs><filter id="filter0_d_10_2390" x="8.66699" y="5" width="10.667" height="19" filterUnits="userSpaceOnUse" color-interpolation-filters="sRGB"><feFlood flood-opacity="0" result="BackgroundImageFix"/><feColorMatrix in="SourceAlpha" type="matrix" values="0 0 0 0 0 0 0 0 0 0 0 0 0 0 0 0 0 0 127 0" result="hardAlpha"/><feOffset dx="2"/><feGaussianBlur stdDeviation="1"/><feComposite in2="hardAlpha" operator="out"/><feColorMatrix type="matrix" values="0 0 0 0 0 0 0 0 0 0 0 0 0 0 0 0 0 0 0.05 0"/><feBlend mode="normal" in2="BackgroundImageFix" result="effect1_dropShadow_10_2390"/><feBlend mode="normal" in="SourceGraphic" in2="effect1_dropShadow_10_2390" result="shape"/></filter><filter id="filter1_d_10_2390" x="4.22266" y="10" width="10.667" height="14" filterUnits="userSpaceOnUse" color-interpolation-filters="sRGB"><feFlood flood-opacity="0" result="BackgroundImageFix"/><feColorMatrix in="SourceAlpha" type="matrix" values="0 0 0 0 0 0 0 0 0 0 0 0 0 0 0 0 0 0 127 0" result="hardAlpha"/><feOffset dx="2"/><feGaussianBlur stdDeviation="1"/><feComposite in2="hardAlpha" operator="out"/><feColorMatrix type="matrix" values="0 0 0 0 0 0 0 0 0 0 0 0 0 0 0 0 0 0 0.05 0"/><feBlend mode="normal" in2="BackgroundImageFix" result="effect1_dropShadow_10_2390"/><feBlend mode="normal" in="SourceGraphic" in2="effect1_dropShadow_10_2390" result="shape"/></filter><linearGradient id="paint0_linear_10_2390" x1="16.4447" y1="2" x2="16.4447" y2="22" gradientUnits="userSpaceOnUse"><stop stop-color="#E3A810"/><stop offset="1" stop-color="#C87F0E"/></linearGradient><linearGradient id="paint1_linear_10_2390" x1="12.0003" y1="7" x2="12.0003" y2="22" gradientUnits="userSpaceOnUse"><stop stop-color="#F4D34B"/><stop offset="1" stop-color="#E7B015"/></linearGradient><linearGradient id="paint2_linear_10_2390" x1="7.55599" y1="12" x2="7.55599" y2="22" gradientUnits="userSpaceOnUse"><stop stop-color="#F9E585"/><stop offset="1" stop-color="#F6D752"/></linearGradient></defs></svg>