<svg width="24" height="24" viewBox="0 0 24 24" fill="none" xmlns="http://www.w3.org/2000/svg"><path d="M20.5741 18.2911L15.508 15.3644C14.7963 14.9546 13.8861 15.1983 13.4742 15.91C13.3146 16.1904 13.2521 16.4988 13.2823 16.7986V22.5182C13.2823 23.3356 13.9465 23.9999 14.7661 23.9999C15.5835 23.9999 16.2477 23.3356 16.2477 22.5182V19.2292L19.086 20.8683C19.7977 21.2803 20.71 21.0344 21.1198 20.3227C21.5317 19.611 21.288 18.7008 20.5741 18.2911Z" fill="#29B5E8"/><path d="M7.97452 12.0193C7.98315 11.4909 7.70493 10.9991 7.2477 10.7339L2.18157 7.80934C1.96158 7.68209 1.70924 7.61523 1.45691 7.61523C0.937136 7.61523 0.454031 7.89345 0.195224 8.34205C-0.205926 9.03651 0.0334704 9.92724 0.727934 10.3284L3.64814 12.0128L0.727934 13.6993C0.391486 13.8935 0.149933 14.2062 0.0507242 14.5814C-0.0506419 14.9567 0.00111943 15.3492 0.195224 15.6857C0.454031 16.1343 0.937136 16.4125 1.45475 16.4125C1.70924 16.4125 1.96158 16.3456 2.18157 16.2184L7.2477 13.2939C7.70062 13.0308 7.97883 12.5433 7.97452 12.0193Z" fill="#29B5E8"/><path d="M3.3314 5.73688L8.39754 8.66139C8.98848 9.00431 9.71745 8.89216 10.1833 8.43709C10.4788 8.16535 10.6621 7.77714 10.6621 7.34579V1.48382C10.6621 0.66427 9.99783 0 9.18043 0C8.36087 0 7.6966 0.66427 7.6966 1.48382V4.82027L4.81954 3.1596C4.10782 2.74766 3.19768 2.99137 2.78575 3.70309C2.37381 4.41481 2.61968 5.32494 3.3314 5.73688Z" fill="#29B5E8"/><path d="M14.7229 12.2568C14.7229 12.3689 14.6582 12.5242 14.5784 12.6062L12.5705 14.6141C12.4907 14.6939 12.3333 14.7586 12.2212 14.7586H11.71C11.5979 14.7586 11.4404 14.6939 11.3606 14.6141L9.35056 12.6062C9.27076 12.5242 9.20605 12.3689 9.20605 12.2568V11.7457C9.20605 11.6313 9.27076 11.4761 9.35056 11.3963L11.3606 9.3862C11.4404 9.3064 11.5979 9.2417 11.71 9.2417H12.2212C12.3333 9.2417 12.4907 9.3064 12.5705 9.3862L14.5784 11.3963C14.6582 11.4761 14.7229 11.6313 14.7229 11.7457V12.2568ZM12.9307 12.0109V11.9894C12.9307 11.9074 12.8833 11.7931 12.825 11.7327L12.2319 11.1418C12.1737 11.0814 12.0594 11.0339 11.9753 11.0339H11.9537C11.8718 11.0339 11.7575 11.0814 11.6971 11.1418L11.1061 11.7327C11.0479 11.7909 11.0004 11.9053 11.0004 11.9894V12.0109C11.0004 12.095 11.0479 12.2093 11.1061 12.2676L11.6971 12.8607C11.7575 12.9189 11.8718 12.9664 11.9537 12.9664H11.9753C12.0594 12.9664 12.1737 12.9189 12.2319 12.8607L12.825 12.2676C12.8833 12.2093 12.9307 12.095 12.9307 12.0109Z" fill="#29B5E8"/><path d="M15.5074 8.66139L20.5735 5.73688C21.2853 5.3271 21.5311 4.41481 21.1192 3.70309C20.7073 2.99137 19.7971 2.74766 19.0854 3.1596L16.2472 4.7987V1.48382C16.2472 0.66427 15.5829 0 14.7655 0C13.9459 0 13.2817 0.66427 13.2817 1.48382V7.22933C13.2536 7.52696 13.3119 7.83752 13.4736 8.1179C13.8855 8.82962 14.7957 9.07333 15.5074 8.66139Z" fill="#29B5E8"/><path d="M9.41335 15.1918C9.07691 15.1271 8.71673 15.181 8.39754 15.3643L3.3314 18.291C2.61968 18.7008 2.37381 19.6109 2.78575 20.3226C3.19768 21.0365 4.10782 21.2802 4.81954 20.8683L7.6966 19.2076V22.5182C7.6966 23.3356 8.36087 23.9998 9.18043 23.9998C9.99783 23.9998 10.6621 23.3356 10.6621 22.5182V16.6562C10.6621 15.9164 10.1208 15.3039 9.41335 15.1918Z" fill="#29B5E8"/><path d="M23.7407 8.32503C23.3309 7.61116 22.4186 7.36745 21.7069 7.77938L16.6408 10.7039C16.1555 10.9843 15.8881 11.4976 15.8967 12.0195C15.8924 12.5393 16.1598 13.0461 16.6408 13.3222L21.7069 16.2488C22.4186 16.6586 23.3288 16.4149 23.7407 15.7032C24.1526 14.9915 23.9067 14.0813 23.195 13.6694L20.3266 12.013L23.195 10.3567C23.9089 9.94689 24.1526 9.03675 23.7407 8.32503Z" fill="#29B5E8"/></svg>