<svg width="24" height="24" viewBox="0 0 24 24" fill="none" xmlns="http://www.w3.org/2000/svg"><path d="M12.4667 0L2 5.98667V17.9467L12.4667 24L22.9333 18.0133V6.01334L12.4667 0ZM21 16.76L12.4667 21.6934L3.93333 16.812V7.17334L12.4667 2.24L21 7.18667V16.76Z" fill="#0078D4"/><path d="M12.4667 0L2 5.98667L3.93333 7.17334L12.4667 2.24L21 7.17334L22.9333 5.98667L12.4667 0Z" fill="url(#paint0_linear_19_1260)"/><path d="M17.4535 13.9668C17.3517 13.7992 17.2016 13.6663 17.0229 13.5855C16.4805 12.4016 15.6497 11.3727 14.6065 10.5933C13.5634 9.8138 12.3412 9.30865 11.0522 9.12412L19.6882 4.13345L17.6802 2.98145L7.84552 8.66678C7.65445 8.77676 7.50509 8.9468 7.42065 9.15044C7.33622 9.35409 7.32144 9.57992 7.37862 9.79283C7.4358 10.0057 7.56174 10.1938 7.73684 10.3277C7.91194 10.4617 8.12639 10.534 8.34685 10.5335C8.3875 10.526 8.42759 10.5157 8.46685 10.5028L8.63352 11.2001C9.88738 10.9045 11.2042 11.0378 12.3733 11.5787C13.5425 12.1197 14.4965 13.037 15.0829 14.1841L5.28418 19.8468L7.28418 21.0015L17.0882 15.3335C17.2189 15.2553 17.3294 15.1475 17.4109 15.0188L17.5109 14.9948C17.5015 14.9561 17.4869 14.9215 17.4775 14.8828C17.5485 14.7397 17.5834 14.5815 17.5792 14.4218C17.575 14.2622 17.5319 14.106 17.4535 13.9668Z" fill="#50E6FF"/><path d="M16.588 12.0176C16.1001 12.0176 15.6232 12.1623 15.2176 12.4333C14.812 12.7044 14.4958 13.0896 14.3091 13.5403C14.1224 13.9911 14.0736 14.487 14.1687 14.9655C14.2639 15.444 14.4988 15.8835 14.8438 16.2285C15.1888 16.5735 15.6283 16.8084 16.1068 16.9036C16.5853 16.9987 17.0812 16.9499 17.532 16.7632C17.9827 16.5765 18.3679 16.2603 18.639 15.8547C18.91 15.4491 19.0547 14.9721 19.0547 14.4843C19.0547 13.8301 18.7948 13.2027 18.3322 12.7401C17.8696 12.2775 17.2422 12.0176 16.588 12.0176ZM8.34533 7.02295C7.85747 7.02295 7.38057 7.16762 6.97492 7.43866C6.56928 7.7097 6.25312 8.09494 6.06643 8.54566C5.87973 8.99639 5.83088 9.49235 5.92606 9.97084C6.02124 10.4493 6.25616 10.8888 6.60113 11.2338C6.9461 11.5788 7.38562 11.8137 7.86411 11.9089C8.3426 12.0041 8.83856 11.9552 9.28928 11.7685C9.74001 11.5818 10.1253 11.2657 10.3963 10.86C10.6673 10.4544 10.812 9.97748 10.812 9.48962C10.812 8.83542 10.5521 8.20801 10.0895 7.74542C9.62694 7.28283 8.99953 7.02295 8.34533 7.02295Z" fill="url(#paint1_linear_19_1260)"/><defs><linearGradient id="paint0_linear_19_1260" x1="12.4667" y1="7.17334" x2="12.4667" y2="0" gradientUnits="userSpaceOnUse"><stop offset="0.199" stop-color="#005BA1"/><stop offset="1" stop-color="#0078D4"/></linearGradient><linearGradient id="paint1_linear_19_1260" x1="12.4667" y1="16.951" x2="12.4667" y2="7.04962" gradientUnits="userSpaceOnUse"><stop stop-color="#198AB3"/><stop offset="0.172" stop-color="#32BEDD"/><stop offset="0.5" stop-color="#198AB3"/><stop offset="0.662" stop-color="#32BEDD"/><stop offset="0.975" stop-color="#50E6FF"/></linearGradient></defs></svg>