<svg width="24" height="24" viewBox="0 0 24 24" fill="none" xmlns="http://www.w3.org/2000/svg"><path d="M11.6557 2.8589V3.7213H10V4.28221H11.6557V6H12.3029V4.28221H14V3.7213H12.3029V2H11.6557V2.8589Z" fill="#7099A6"/><path d="M6.51479 5.28803V6.57607H4V7.38425H6.51479V10H7.44745V7.38425H10V6.57607H7.44745V4H6.51479V5.28803Z" fill="#EB912C"/><path d="M16.5148 5.28803V6.57607H14V7.42393H16.5148V10H17.4852V7.42393H20V6.57607H17.4852V4H16.5148V5.28803Z" fill="#59879B"/><path d="M11.4949 10.2645V11.529H9V12.471H11.4949V15H12.5051V12.471H15V11.529H12.5051V9H11.4949V10.2645Z" fill="#E8762C"/><path d="M19.6007 10.8299V11.6631H18V12.3369H19.6007V14H20.3993V12.3369H22V11.6631H20.3993V10H19.6007V10.8299Z" fill="#5B6591"/><path d="M3.65569 10.8496V11.6991H2V12.3009H3.65569V14H4.30292V12.3009L6 12.2442V11.6991H4.30292V10H3.65569V10.8496Z" fill="#7099A6"/><path d="M6.51479 14.5027V16.0054H4V16.9946H6.51479V20H7.48521V16.9946H10V16.0054H7.48521V13H6.51479V14.5027Z" fill="#C72035"/><path d="M16.5148 14.5027V16.0054H14V16.9483H16.5148V20H17.4852V16.9483H20V16.0054H17.4852V13H16.5148V14.5027Z" fill="#1F447E"/><path d="M11.6007 18.8332V19.6631H10V20.3369H11.6007V22H12.3993V20.3369H14V19.6631H12.3993V18H11.6007V18.8332Z" fill="#5B6591"/></svg>