<svg xmlns="http://www.w3.org/2000/svg" width="48" height="48" fill="none"><path fill="#0A66C2" d="M40.8983 40.8992h-7.1121V29.761c0-2.656-.0474-6.0751-3.699-6.0751-3.7043 0-4.271 2.8938-4.271 5.8817v11.3309h-7.1121V17.9938h6.8276v3.1302h.0956c.6833-1.1684 1.6706-2.1295 2.8569-2.781 1.1863-.6516 2.5271-.9691 3.8796-.9189 7.2084 0 8.5375 4.7415 8.5375 10.91l-.003 12.5651Zm-30.219-26.0363c-.81634.0001-1.61436-.2418-2.29316-.6952-.67881-.4534-1.20788-1.0979-1.5204-1.852-.31252-.7542-.39442-1.584-.23531-2.38469.15911-.80066.55207-1.53616 1.12917-2.11349.5771-.57732 1.31244-.97055 2.11302-1.12995.80058-.1594 1.63038-.07781 2.38468.23444.7542.31226 1.3988.84116 1.8525 1.51982.4536.67866.6958 1.47661.696 2.29297.0001.542-.1066 1.0787-.3139 1.5795-.2074.5008-.5113.9558-.8944 1.3392-.3832.3833-.8382.6874-1.3389.8949-.5007.2075-1.0374.3144-1.5793.3145Zm3.556 26.0363H7.11579V17.9938h7.11951v22.9054ZM44.444.00327032H3.54198C2.61362-.00720657 1.71904.351327 1.05488 1.00008.390724 1.64884.0113301 2.53475 0 3.46313V44.5362c.0109423.9288.390114 1.8153 1.05425 2.4647.66413.6495 1.55891 1.0087 2.48773.9988H44.444c.9306.0117 1.8279-.3465 2.4947-.9959.6667-.6494 1.0484-1.537 1.0613-2.4676V3.46017c-.0133-.93023-.3952-1.81714-1.062-2.465882-.6668-.648742-1.5638-1.0062509-2.494-.99398236"/></svg>