<svg xmlns="http://www.w3.org/2000/svg" width="48" height="48" fill="none"><path fill="#1977F3" d="M48 24C48 10.7462 37.2538 0 24 0S0 10.7462 0 24c0 11.9781 8.77514 21.9075 20.2503 23.7097V30.9391H14.155V24h6.0953v-5.2887c0-6.0144 3.5843-9.33878 9.0654-9.33878 2.6258 0 5.3731.46913 5.3731.46913V15.748h-3.0274c-2.9802 0-3.9117 1.8495-3.9117 3.7497V24h6.6556l-1.0632 6.9391h-5.5924v16.7706C39.2249 45.9108 48 35.9814 48 24Z"/><path fill="#FEFEFE" d="m33.3415 30.9401 1.0631-6.9391H27.749v-4.5023c0-1.8968.9281-3.7497 3.9117-3.7497h3.0274V9.84267s-2.7473-.46913-5.3731-.46913c-5.4811 0-9.0654 3.32106-9.0654 9.33876v5.2887h-6.0953v6.9391h6.0953v16.7707c1.2218.1923 2.474.2902 3.7497.2902 1.2758 0 2.5279-.1012 3.7497-.2902V30.9401h5.5925Z"/></svg>