<?xml version="1.0" encoding="UTF-8" standalone="no"?>
<svg
   version="1.1"
   viewBox="0 0 593648.5 229365.91"
   fill="none"
   stroke="none"
   stroke-linecap="square"
   stroke-miterlimit="10"
   id="svg39"
   width="593648.5"
   height="229365.91"
   xmlns="http://www.w3.org/2000/svg"
   xmlns:svg="http://www.w3.org/2000/svg">
  <defs
     id="defs39" />
  <clipPath
     id="p.0">
    <path
       d="M 0,0 H 1024 V 768 H 0 Z"
       clip-rule="nonzero"
       id="path1" />
  </clipPath>
  <g
     clip-path="url(#p.0)"
     id="g39"
     transform="translate(1025.3406,1.0079232)">
    <path
       fill="#000000"
       fill-opacity="0"
       d="M 0,0 H 1024 V 768 H 0 Z"
       fill-rule="evenodd"
       id="path2" />
    <path
       fill="#ffffff"
       d="M 203.30714,46.03806 H 374.42526 V 256.9357 H 203.30714 Z"
       fill-rule="evenodd"
       id="path3" />
    <path
       stroke="#4a9fea"
       stroke-width="2"
       stroke-linejoin="round"
       stroke-linecap="butt"
       d="M 203.30714,46.03806 H 374.42526 V 256.9357 H 203.30714 Z"
       fill-rule="evenodd"
       id="path4" />
    <path
       fill="#1e88e5"
       d="m 215.11964,66.35368 v -7.984375 h -1.84375 v 9.46875 h 6.28125 V 66.35368 Z m 6.59193,-5.5625 v 1.484375 h 2 v 4.09375 h -2 v 1.46875 h 5.73438 v -1.46875 H 225.5397 V 60.79118 Z m 1.875,-1.796875 q 0,0.203125 0.0625,0.390625 0.0781,0.171875 0.21875,0.296875 0.14063,0.125 0.32813,0.203125 0.1875,0.07813 0.42187,0.07813 0.48438,0 0.76563,-0.265625 0.28125,-0.28125 0.28125,-0.703125 0,-0.421875 -0.28125,-0.6875 -0.28125,-0.28125 -0.76563,-0.28125 -0.23437,0 -0.42187,0.07813 -0.1875,0.0625 -0.32813,0.1875 -0.14062,0.140625 -0.21875,0.328125 -0.0625,0.171875 -0.0625,0.375 z m 11.98256,5.390625 v -0.125 q 0,-0.640625 -0.125,-1.203125 -0.10937,-0.5625 -0.34375,-1.015625 -0.14062,-0.28125 -0.34375,-0.515625 -0.1875,-0.234375 -0.4375,-0.40625 -0.29687,-0.21875 -0.6875,-0.328125 -0.375,-0.125 -0.82812,-0.125 -0.32813,0 -0.60938,0.07813 -0.28125,0.0625 -0.53125,0.203125 -0.15625,0.07813 -0.3125,0.21875 -0.15625,0.125 -0.28125,0.265625 v -3.59375 h -1.8125 v 10 h 1.625 l 0.0937,-0.75 q 0.10938,0.140625 0.23438,0.265625 0.125,0.125 0.26562,0.21875 0.26563,0.1875 0.59375,0.28125 0.34375,0.109375 0.75,0.109375 0.45313,0 0.82813,-0.109375 0.375,-0.109375 0.67187,-0.328125 0.32813,-0.234375 0.5625,-0.578125 0.25,-0.34375 0.40625,-0.765625 0.14063,-0.375 0.20313,-0.828125 0.0781,-0.453125 0.0781,-0.96875 z m -1.8125,-0.125 v 0.125 q 0,0.28125 -0.0312,0.53125 -0.0156,0.25 -0.0625,0.46875 -0.0625,0.296875 -0.20312,0.53125 -0.125,0.21875 -0.32813,0.359375 -0.14062,0.109375 -0.34375,0.171875 -0.1875,0.0625 -0.42187,0.0625 -0.28125,0 -0.5,-0.0625 -0.21875,-0.07813 -0.375,-0.203125 -0.14063,-0.09375 -0.25,-0.21875 -0.0937,-0.140625 -0.17188,-0.296875 v -2.8125 q 0.0625,-0.125 0.125,-0.234375 0.0781,-0.109375 0.15625,-0.1875 0.1875,-0.171875 0.42188,-0.265625 0.25,-0.09375 0.57812,-0.09375 0.23438,0 0.42188,0.0625 0.20312,0.04687 0.34375,0.15625 0.23437,0.1875 0.34375,0.40625 0.10937,0.203125 0.1875,0.46875 0.0625,0.21875 0.0781,0.484375 0.0312,0.265625 0.0312,0.546875 z m 8.51381,-3.59375 q -0.70312,0 -1.3125,0.34375 -0.59375,0.34375 -1.01562,0.9375 l -0.0156,-0.15625 -0.0781,-1 h -1.67188 v 7.046875 h 1.79688 V 63.60368 q 0.125,-0.296875 0.3125,-0.515625 0.1875,-0.21875 0.45312,-0.359375 0.23438,-0.125 0.51563,-0.1875 0.28125,-0.0625 0.625,-0.0625 0.34375,0 0.71875,0.04687 0.375,0.03125 0.73437,0.125 l 0.26563,-1.8125 q -0.21875,-0.0625 -0.5625,-0.109375 -0.34375,-0.0625 -0.76563,-0.0625 z m 7.34194,7.171875 h 1.84375 V 67.72868 q -0.14063,-0.265625 -0.21875,-0.640625 -0.0625,-0.375 -0.0625,-0.9375 V 63.13493 q 0,-0.609375 -0.23438,-1.078125 -0.21875,-0.46875 -0.625,-0.765625 -0.40625,-0.3125 -0.95312,-0.46875 -0.54688,-0.15625 -1.1875,-0.15625 -0.71875,0 -1.26563,0.1875 -0.54687,0.171875 -0.92187,0.46875 -0.39063,0.3125 -0.59375,0.71875 -0.1875,0.40625 -0.1875,0.84375 h 1.8125 q 0,-0.1875 0.0469,-0.34375 0.0625,-0.15625 0.17188,-0.265625 0.14062,-0.125 0.34375,-0.1875 0.20312,-0.0625 0.5,-0.0625 0.3125,0 0.5625,0.07813 0.25,0.07813 0.40625,0.234375 0.15625,0.140625 0.23437,0.34375 0.0781,0.1875 0.0781,0.4375 v 0.421875 h -1.01563 q -0.76562,0 -1.375,0.140625 -0.60937,0.140625 -1.01562,0.40625 -0.45313,0.28125 -0.6875,0.734375 -0.21875,0.453125 -0.21875,1.046875 0,0.453125 0.17187,0.84375 0.1875,0.390625 0.51563,0.65625 0.32812,0.28125 0.78125,0.4375 0.45312,0.15625 0.98437,0.15625 0.34375,0 0.625,-0.0625 0.28125,-0.0625 0.53125,-0.171875 0.23438,-0.09375 0.42188,-0.234375 0.20312,-0.15625 0.34375,-0.3125 0.0312,0.1875 0.0781,0.359375 0.0469,0.171875 0.10938,0.296875 z m -1.71875,-1.265625 q -0.25,0 -0.45313,-0.0625 -0.1875,-0.0625 -0.3125,-0.171875 -0.14062,-0.109375 -0.20312,-0.265625 -0.0625,-0.15625 -0.0625,-0.34375 0,-0.25 0.0781,-0.453125 0.0937,-0.203125 0.28125,-0.359375 0.20313,-0.140625 0.5,-0.21875 0.29688,-0.07813 0.71875,-0.07813 h 0.92188 v 1.203125 q -0.0781,0.140625 -0.21875,0.28125 -0.125,0.125 -0.32813,0.234375 -0.1875,0.09375 -0.42187,0.171875 -0.23438,0.0625 -0.5,0.0625 z m 10.37318,-5.90625 q -0.70312,0 -1.3125,0.34375 -0.59375,0.34375 -1.01562,0.9375 l -0.0156,-0.15625 -0.0781,-1 h -1.67188 v 7.046875 h 1.79688 V 63.60368 q 0.125,-0.296875 0.3125,-0.515625 0.1875,-0.21875 0.45312,-0.359375 0.23438,-0.125 0.51563,-0.1875 0.28125,-0.0625 0.625,-0.0625 0.34375,0 0.71875,0.04687 0.375,0.03125 0.73437,0.125 l 0.26563,-1.8125 q -0.21875,-0.0625 -0.5625,-0.109375 -0.34375,-0.0625 -0.76563,-0.0625 z m 4.0607,10.015625 q 0.54687,0 0.9375,-0.1875 0.40625,-0.171875 0.6875,-0.4375 0.28125,-0.265625 0.46875,-0.578125 0.1875,-0.3125 0.29687,-0.59375 l 3.57813,-8.09375 h -2 l -1.60938,4.140625 -0.26562,0.703125 -0.1875,-0.71875 -1.625,-4.125 h -1.96875 l 2.96875,6.75 -0.40625,0.765625 q -0.0781,0.15625 -0.14063,0.234375 -0.0469,0.07813 -0.17187,0.234375 -0.10938,0.15625 -0.28125,0.28125 -0.17188,0.140625 -0.375,0.140625 -0.10938,0 -0.28125,-0.01563 -0.17188,-0.01563 -0.28125,-0.01563 l -0.21875,1.390625 q 0.23437,0.0625 0.42187,0.09375 0.1875,0.03125 0.45313,0.03125 z"
       fill-rule="nonzero"
       id="path5" />
    <path
       fill="#e4f0fb"
       d="m 220.11673,150.63927 v 0 c 0,-2.96588 2.40431,-5.37019 5.37018,-5.37019 H 361.4867 c 1.42425,0 2.79019,0.56579 3.7973,1.57289 1.00711,1.00711 1.57288,2.37303 1.57288,3.7973 v 21.4801 c 0,2.96587 -2.4043,5.37018 -5.37018,5.37018 H 225.48691 c -2.96587,0 -5.37018,-2.40431 -5.37018,-5.37018 z"
       fill-rule="evenodd"
       id="path6" />
    <path
       stroke="#4a9fea"
       stroke-width="1"
       stroke-linejoin="round"
       stroke-linecap="butt"
       d="m 220.11673,150.63927 v 0 c 0,-2.96588 2.40431,-5.37019 5.37018,-5.37019 H 361.4867 c 1.42425,0 2.79019,0.56579 3.7973,1.57289 1.00711,1.00711 1.57288,2.37303 1.57288,3.7973 v 21.4801 c 0,2.96587 -2.4043,5.37018 -5.37018,5.37018 H 225.48691 c -2.96587,0 -5.37018,-2.40431 -5.37018,-5.37018 z"
       fill-rule="evenodd"
       id="path7" />
    <path
       fill="#e4f0fb"
       d="m 220.11673,95.657295 v 0 c 0,-2.965874 2.40431,-5.370186 5.37018,-5.370186 H 361.4867 c 1.42425,0 2.79019,0.565781 3.7973,1.572891 1.00711,1.007103 1.57288,2.373032 1.57288,3.797295 v 21.480095 c 0,2.96587 -2.4043,5.37019 -5.37018,5.37019 H 225.48691 c -2.96587,0 -5.37018,-2.40432 -5.37018,-5.37019 z"
       fill-rule="evenodd"
       id="path8" />
    <path
       stroke="#4a9fea"
       stroke-width="1"
       stroke-linejoin="round"
       stroke-linecap="butt"
       d="m 220.11673,95.657295 v 0 c 0,-2.965874 2.40431,-5.370186 5.37018,-5.370186 H 361.4867 c 1.42425,0 2.79019,0.565781 3.7973,1.572891 1.00711,1.007103 1.57288,2.373032 1.57288,3.797295 v 21.480095 c 0,2.96587 -2.4043,5.37019 -5.37018,5.37019 H 225.48691 c -2.96587,0 -5.37018,-2.40432 -5.37018,-5.37019 z"
       fill-rule="evenodd"
       id="path9" />
    <path
       fill="#000000"
       fill-opacity="0"
       d="M 73.36883,38.392387 V 135.36876"
       fill-rule="evenodd"
       id="path10" />
    <path
       stroke="#b7b7b7"
       stroke-width="2"
       stroke-linejoin="round"
       stroke-linecap="butt"
       d="M 73.36883,38.392387 V 135.36876"
       fill-rule="evenodd"
       id="path11" />
    <path
       fill="#49bc4e"
       d="m -0.00124961,6.3977656 v 0 c 0,-3.5341132 2.86496471,-6.399078 6.39907841,-6.399078 H 140.33983 c 1.69714,0 3.32477,0.67418665 4.52482,1.8742466 1.20008,1.20006 1.87426,2.8276906 1.87426,4.5248313 V 31.99331 c 0,3.534113 -2.86496,6.399077 -6.39908,6.399077 H 6.3978287 c -3.5341134,0 -6.39907841,-2.864964 -6.39907841,-6.399077 z"
       fill-rule="evenodd"
       id="path12" />
    <path
       fill="#ffffff"
       d="m 28.740007,22.886162 v -3.734375 h -3.390625 v 1.375 h 1.5625 v 1.71875 q -0.07813,0.07813 -0.21875,0.15625 -0.125,0.07813 -0.3125,0.125 -0.1875,0.0625 -0.390625,0.09375 -0.203125,0.03125 -0.421875,0.03125 -0.359375,0 -0.640625,-0.109375 -0.265625,-0.109375 -0.46875,-0.3125 -0.125,-0.125 -0.234375,-0.28125 -0.09375,-0.171875 -0.171875,-0.359375 -0.125,-0.328125 -0.203125,-0.75 -0.0625,-0.421875 -0.0625,-0.9375 v -1.296875 q 0,-0.40625 0.04687,-0.75 0.04687,-0.359375 0.140625,-0.640625 0.125,-0.375 0.296875,-0.640625 0.1875,-0.28125 0.40625,-0.453125 0.171875,-0.125 0.359375,-0.1875 0.203125,-0.0625 0.40625,-0.0625 0.375,0 0.65625,0.109375 0.28125,0.09375 0.46875,0.296875 0.15625,0.171875 0.25,0.4375 0.09375,0.265625 0.140625,0.609375 h 1.78125 q -0.07813,-0.671875 -0.3125,-1.21875 -0.21875,-0.546875 -0.625,-0.9375 -0.421875,-0.375 -1.015625,-0.578125 -0.59375,-0.203125 -1.390625,-0.203125 -0.515625,0 -0.984375,0.15625 -0.46875,0.140625 -0.875,0.40625 -0.328125,0.25 -0.625,0.59375 -0.28125,0.34375 -0.484375,0.765625 -0.234375,0.46875 -0.359375,1.0625 -0.125,0.578125 -0.125,1.25 v 1.28125 q 0,0.71875 0.125,1.328125 0.125,0.59375 0.375,1.078125 0.21875,0.4375 0.53125,0.78125 0.3125,0.328125 0.6875,0.5625 0.375,0.234375 0.828125,0.34375 0.46875,0.125 0.984375,0.125 0.609375,0 1.125,-0.109375 0.515625,-0.109375 0.9375,-0.28125 0.421875,-0.1875 0.71875,-0.40625 0.3125,-0.21875 0.484375,-0.4375 z m 1.310684,-2.46875 v 0.125 q 0,0.78125 0.21875,1.4375 0.21875,0.65625 0.65625,1.125 0.421875,0.484375 1.03125,0.765625 0.625002,0.265625 1.421877,0.265625 0.796875,0 1.40625,-0.265625 0.625,-0.28125 1.046875,-0.765625 0.421875,-0.46875 0.640625,-1.125 0.21875,-0.65625 0.21875,-1.4375 v -0.125 q 0,-0.78125 -0.21875,-1.421875 -0.21875,-0.65625 -0.640625,-1.140625 -0.4375,-0.484375 -1.0625,-0.75 -0.609375,-0.28125 -1.40625,-0.28125 -0.78125,0 -1.406252,0.28125 -0.609375,0.265625 -1.03125,0.75 -0.4375,0.484375 -0.65625,1.140625 -0.21875,0.640625 -0.21875,1.421875 z m 1.8125,0.125 v -0.125 q 0,-0.4375 0.07813,-0.8125 0.09375,-0.390625 0.265627,-0.6875 0.1875,-0.296875 0.46875,-0.453125 0.28125,-0.171875 0.6875,-0.171875 0.421875,0 0.703125,0.171875 0.28125,0.15625 0.46875,0.453125 0.171875,0.296875 0.25,0.6875 0.09375,0.375 0.09375,0.8125 v 0.125 q 0,0.453125 -0.09375,0.84375 -0.07813,0.375 -0.25,0.65625 -0.1875,0.296875 -0.46875,0.46875 -0.28125,0.171875 -0.6875,0.171875 -0.40625,0 -0.703125,-0.171875 -0.28125,-0.171875 -0.46875,-0.46875 -0.171875,-0.28125 -0.265627,-0.65625 -0.07813,-0.390625 -0.07813,-0.84375 z m 6.185686,-0.125 v 0.125 q 0,0.78125 0.21875,1.4375 0.21875,0.65625 0.65625,1.125 0.421875,0.484375 1.03125,0.765625 0.625,0.265625 1.421875,0.265625 0.796875,0 1.40625,-0.265625 0.625,-0.28125 1.046875,-0.765625 0.421875,-0.46875 0.640625,-1.125 0.21875,-0.65625 0.21875,-1.4375 v -0.125 q 0,-0.78125 -0.21875,-1.421875 -0.21875,-0.65625 -0.640625,-1.140625 -0.4375,-0.484375 -1.0625,-0.75 -0.609375,-0.28125 -1.40625,-0.28125 -0.78125,0 -1.40625,0.28125 -0.609375,0.265625 -1.03125,0.75 -0.4375,0.484375 -0.65625,1.140625 -0.21875,0.640625 -0.21875,1.421875 z m 1.8125,0.125 v -0.125 q 0,-0.4375 0.07813,-0.8125 0.09375,-0.390625 0.265625,-0.6875 0.1875,-0.296875 0.46875,-0.453125 0.28125,-0.171875 0.6875,-0.171875 0.421875,0 0.703125,0.171875 0.28125,0.15625 0.46875,0.453125 0.171875,0.296875 0.25,0.6875 0.09375,0.375 0.09375,0.8125 v 0.125 q 0,0.453125 -0.09375,0.84375 -0.07813,0.375 -0.25,0.65625 -0.1875,0.296875 -0.46875,0.46875 -0.28125,0.171875 -0.6875,0.171875 -0.40625,0 -0.703125,-0.171875 -0.28125,-0.171875 -0.46875,-0.46875 -0.171875,-0.28125 -0.265625,-0.65625 -0.07813,-0.390625 -0.07813,-0.84375 z m 6.248184,-0.125 v 0.140625 q 0,0.765625 0.1875,1.421875 0.203125,0.65625 0.578125,1.125 0.375,0.484375 0.890625,0.75 0.53125,0.265625 1.1875,0.265625 0.328125,0 0.609375,-0.07813 0.296875,-0.0625 0.546875,-0.1875 0.15625,-0.09375 0.296875,-0.203125 0.15625,-0.125 0.28125,-0.265625 v 0.40625 q 0,0.359375 -0.109375,0.640625 -0.09375,0.28125 -0.28125,0.484375 -0.203125,0.203125 -0.515625,0.3125 -0.3125,0.125 -0.703125,0.125 -0.25,0 -0.484375,-0.0625 -0.234375,-0.04687 -0.453125,-0.140625 -0.21875,-0.09375 -0.421875,-0.25 -0.203125,-0.15625 -0.375,-0.359375 l -0.8125,1.109375 q 0.234375,0.296875 0.546875,0.5 0.328125,0.21875 0.671875,0.34375 0.359375,0.140625 0.71875,0.203125 0.375,0.0625 0.6875,0.0625 0.75,0 1.359375,-0.203125 0.625,-0.1875 1.0625,-0.578125 0.4375,-0.375 0.671875,-0.9375 0.25,-0.5625 0.25,-1.28125 v -6.8125 h -1.640625 l -0.07813,0.671875 q -0.125,-0.15625 -0.28125,-0.28125 -0.15625,-0.140625 -0.34375,-0.234375 -0.234375,-0.140625 -0.53125,-0.203125 -0.296875,-0.07813 -0.65625,-0.07813 -0.671875,0 -1.203125,0.265625 -0.515625,0.25 -0.890625,0.734375 -0.375,0.46875 -0.578125,1.140625 -0.1875,0.65625 -0.1875,1.453125 z m 1.8125,0.140625 v -0.140625 q 0,-0.4375 0.09375,-0.828125 0.09375,-0.390625 0.28125,-0.671875 0.1875,-0.296875 0.453125,-0.453125 0.28125,-0.171875 0.671875,-0.171875 0.203125,0 0.375,0.04687 0.1875,0.03125 0.34375,0.109375 0.171875,0.07813 0.3125,0.21875 0.140625,0.140625 0.234375,0.3125 v 2.984375 q -0.09375,0.15625 -0.21875,0.296875 -0.125,0.125 -0.28125,0.21875 -0.15625,0.07813 -0.359375,0.125 -0.1875,0.04687 -0.421875,0.04687 -0.375,0 -0.65625,-0.15625 -0.28125,-0.171875 -0.46875,-0.453125 -0.171875,-0.28125 -0.265625,-0.65625 -0.09375,-0.390625 -0.09375,-0.828125 z m 6.748184,-6.5625 v 1.484375 h 2.109375 v 7.046875 h -2.109375 v 1.46875 h 5.953125 v -1.46875 h -2.015625 v -8.53125 z m 11.02943,10.125 q 1.031258,0 1.781258,-0.390625 0.75,-0.390625 1.09375,-0.890625 l -0.90625,-0.96875 q -0.3125,0.40625 -0.8125,0.609375 -0.5,0.1875 -1.046883,0.1875 -0.375,0 -0.703125,-0.109375 -0.3125,-0.125 -0.546875,-0.328125 -0.25,-0.21875 -0.390625,-0.46875 -0.140625,-0.265625 -0.234371,-0.6875 v -0.01563 h 4.781254 v -0.765625 q 0,-0.78125 -0.21875,-1.421875 -0.21875,-0.640625 -0.625,-1.09375 -0.421875,-0.453125 -1.015625,-0.703125 -0.59375,-0.25 -1.359383,-0.25 -0.734375,0 -1.359375,0.265625 -0.624996,0.265625 -1.078121,0.75 -0.453125,0.484375 -0.703125,1.15625 -0.25,0.65625 -0.25,1.46875 v 0.25 q 0,0.71875 0.25,1.34375 0.265625,0.609375 0.734375,1.078125 0.46875,0.453125 1.124996,0.71875 0.671875,0.265625 1.484375,0.265625 z M 65.49655,18.292412 q 0.34375,0 0.593758,0.109375 0.265625,0.09375 0.453125,0.28125 0.1875,0.1875 0.28125,0.453125 0.109375,0.25 0.109375,0.53125 v 0.140625 h -2.968754 q 0.0625,-0.34375 0.187496,-0.625 0.140625,-0.28125 0.34375,-0.484375 0.1875,-0.203125 0.4375,-0.296875 0.25,-0.109375 0.5625,-0.109375 z m 17.637001,3.234375 q 0,0.25 -0.109375,0.46875 -0.09375,0.203125 -0.28125,0.359375 -0.203125,0.140625 -0.484375,0.234375 -0.28125,0.07813 -0.640625,0.07813 -0.421875,0 -0.765625,-0.09375 -0.328125,-0.09375 -0.578125,-0.28125 -0.25,-0.203125 -0.390625,-0.5 -0.125,-0.3125 -0.140625,-0.734375 h -1.796875 q 0,0.734375 0.28125,1.28125 0.28125,0.546875 0.78125,0.953125 0.5,0.40625 1.1875,0.625 0.703125,0.203125 1.421875,0.203125 0.71875,0 1.328125,-0.171875 0.609375,-0.171875 1.046875,-0.515625 0.453125,-0.328125 0.703125,-0.8125 0.25,-0.484375 0.25,-1.109375 0,-0.71875 -0.34375,-1.265625 -0.328125,-0.5625 -0.875,-0.984375 -0.375,-0.25 -0.828125,-0.4375 -0.4375,-0.203125 -0.921875,-0.34375 -0.453125,-0.125 -0.828125,-0.265625 -0.359375,-0.140625 -0.609375,-0.3125 -0.25,-0.171875 -0.390625,-0.390625 -0.125,-0.21875 -0.125,-0.484375 0,-0.25 0.09375,-0.46875 0.109375,-0.21875 0.296875,-0.375 0.203125,-0.15625 0.484375,-0.234375 0.28125,-0.09375 0.640625,-0.09375 0.40625,0 0.703125,0.109375 0.296875,0.09375 0.5,0.28125 0.1875,0.203125 0.28125,0.46875 0.109375,0.265625 0.125,0.578125 h 1.78125 q 0,-0.625 -0.25,-1.15625 -0.25,-0.546875 -0.6875,-0.9375 -0.4375,-0.375 -1.0625,-0.59375 -0.609375,-0.21875 -1.359375,-0.21875 -0.703125,0 -1.328125,0.1875 -0.609375,0.1875 -1.046875,0.53125 -0.453125,0.34375 -0.71875,0.84375 -0.25,0.484375 -0.25,1.078125 0,0.515625 0.1875,0.96875 0.203125,0.4375 0.578125,0.796875 0.375,0.375 0.96875,0.6875 0.609375,0.296875 1.390625,0.5 0.5,0.140625 0.84375,0.3125 0.34375,0.15625 0.5625,0.34375 0.203125,0.1875 0.28125,0.40625 0.09375,0.21875 0.09375,0.484375 z m 4.966934,-3.609375 v -3.921875 h -1.8125 v 10 h 1.8125 v -5.078125 q 0.09375,-0.140625 0.21875,-0.25 0.125,-0.109375 0.28125,-0.1875 0.171875,-0.09375 0.375,-0.140625 0.21875,-0.04687 0.453125,-0.04687 0.3125,0 0.5625,0.09375 0.25,0.07813 0.421875,0.234375 0.171875,0.171875 0.265625,0.453125 0.109375,0.265625 0.109375,0.640625 v 4.28125 h 1.796875 v -4.265625 q 0,-0.765625 -0.1875,-1.3125 -0.171875,-0.5625 -0.515625,-0.90625 -0.328125,-0.359375 -0.796875,-0.515625 -0.453125,-0.171875 -1,-0.171875 -0.390625,0 -0.734375,0.109375 -0.328125,0.109375 -0.609375,0.3125 -0.171875,0.125 -0.34375,0.296875 -0.171875,0.171875 -0.296875,0.375 z m 9.591934,6.203125 q 1.03125,0 1.78125,-0.390625 0.750001,-0.390625 1.093751,-0.890625 l -0.906251,-0.96875 q -0.3125,0.40625 -0.8125,0.609375 -0.5,0.1875 -1.046875,0.1875 -0.375,0 -0.703125,-0.109375 -0.3125,-0.125 -0.546875,-0.328125 -0.25,-0.21875 -0.390625,-0.46875 -0.140625,-0.265625 -0.234375,-0.6875 v -0.01563 h 4.781246 v -0.765625 q 0,-0.78125 -0.21875,-1.421875 -0.21875,-0.640625 -0.624996,-1.09375 -0.421875,-0.453125 -1.015625,-0.703125 -0.59375,-0.25 -1.359375,-0.25 -0.734375,0 -1.359375,0.265625 -0.625,0.265625 -1.078125,0.75 -0.453125,0.484375 -0.703125,1.15625 -0.25,0.65625 -0.25,1.46875 v 0.25 q 0,0.71875 0.25,1.34375 0.265625,0.609375 0.734375,1.078125 0.46875,0.453125 1.125,0.71875 0.671875,0.265625 1.484375,0.265625 z m -0.203125,-5.828125 q 0.34375,0 0.59375,0.109375 0.265625,0.09375 0.453125,0.28125 0.1875,0.1875 0.28125,0.453125 0.109375,0.25 0.109375,0.53125 v 0.140625 h -2.96875 q 0.0625,-0.34375 0.1875,-0.625 0.140625,-0.28125 0.34375,-0.484375 0.1875,-0.203125 0.4375,-0.296875 0.25,-0.109375 0.5625,-0.109375 z m 8.201306,5.828125 q 1.03125,0 1.78125,-0.390625 0.75,-0.390625 1.09375,-0.890625 l -0.90625,-0.96875 q -0.3125,0.40625 -0.8125,0.609375 -0.5,0.1875 -1.04687,0.1875 -0.375,0 -0.70313,-0.109375 -0.3125,-0.125 -0.54687,-0.328125 -0.25,-0.21875 -0.39063,-0.46875 -0.14062,-0.265625 -0.23437,-0.6875 v -0.01563 h 4.78125 v -0.765625 q 0,-0.78125 -0.21875,-1.421875 -0.21875,-0.640625 -0.625,-1.09375 -0.42188,-0.453125 -1.01563,-0.703125 -0.59375,-0.25 -1.35937,-0.25 -0.73438,0 -1.35938,0.265625 -0.625,0.265625 -1.07812,0.75 -0.45313,0.484375 -0.70313,1.15625 -0.25,0.65625 -0.25,1.46875 v 0.25 q 0,0.71875 0.25,1.34375 0.26563,0.609375 0.73438,1.078125 0.46875,0.453125 1.125,0.71875 0.67187,0.265625 1.48437,0.265625 z m -0.20312,-5.828125 q 0.34375,0 0.59375,0.109375 0.26562,0.09375 0.45312,0.28125 0.1875,0.1875 0.28125,0.453125 0.10938,0.25 0.10938,0.53125 v 0.140625 h -2.96875 q 0.0625,-0.34375 0.1875,-0.625 0.14062,-0.28125 0.34375,-0.484375 0.1875,-0.203125 0.4375,-0.296875 0.25,-0.109375 0.5625,-0.109375 z m 8.10756,-3.0625 h -1.8125 v 1.71875 h -1.60938 v 1.34375 h 1.60938 v 3.203125 q 0,0.6875 0.1875,1.1875 0.1875,0.5 0.51562,0.8125 0.34375,0.328125 0.8125,0.484375 0.46875,0.15625 1.04688,0.15625 0.29687,0 0.60937,-0.03125 0.3125,-0.03125 0.59375,-0.07813 0.28125,-0.0625 0.53125,-0.140625 0.26563,-0.07813 0.45313,-0.1875 l -0.17188,-1.25 q -0.125,0.03125 -0.29687,0.07813 -0.17188,0.03125 -0.375,0.04687 -0.20313,0.03125 -0.42188,0.0625 -0.21875,0.01563 -0.42187,0.01563 -0.28125,0 -0.51563,-0.0625 -0.23437,-0.07813 -0.39062,-0.234375 -0.17188,-0.140625 -0.26563,-0.390625 -0.0781,-0.265625 -0.0781,-0.65625 v -3.015625 h 2.625 v -1.34375 h -2.625 z m 9.21693,6.828125 q 0,0.171875 -0.0781,0.3125 -0.0781,0.125 -0.23438,0.234375 -0.17187,0.109375 -0.4375,0.171875 -0.26562,0.04687 -0.60937,0.04687 -0.29688,0 -0.57813,-0.04687 -0.28125,-0.0625 -0.48437,-0.1875 -0.21875,-0.125 -0.35938,-0.328125 -0.14062,-0.21875 -0.15625,-0.5 h -1.71875 q 0,0.4375 0.20313,0.859375 0.21875,0.421875 0.625,0.75 0.40625,0.34375 1.01562,0.5625 0.60938,0.203125 1.40625,0.203125 0.71875,0 1.29688,-0.15625 0.59375,-0.171875 1.01562,-0.453125 0.40625,-0.28125 0.625,-0.671875 0.23438,-0.40625 0.23438,-0.875 0,-0.5 -0.23438,-0.859375 -0.21875,-0.375 -0.60937,-0.640625 -0.40625,-0.25 -0.95313,-0.40625 -0.54687,-0.171875 -1.17187,-0.28125 -0.45313,-0.0625 -0.73438,-0.140625 -0.28125,-0.09375 -0.45312,-0.203125 -0.17188,-0.109375 -0.23438,-0.234375 -0.0625,-0.140625 -0.0625,-0.296875 0,-0.15625 0.0781,-0.296875 0.0781,-0.140625 0.21875,-0.234375 0.15625,-0.125 0.39062,-0.1875 0.25,-0.0625 0.59375,-0.0625 0.39063,0 0.65625,0.09375 0.28125,0.09375 0.4375,0.265625 0.125,0.125 0.17188,0.28125 0.0625,0.140625 0.0625,0.3125 h 1.8125 q 0,-0.484375 -0.21875,-0.890625 -0.20313,-0.421875 -0.60938,-0.734375 -0.40625,-0.296875 -1,-0.46875 -0.57812,-0.171875 -1.3125,-0.171875 -0.70312,0 -1.26562,0.1875 -0.5625,0.171875 -0.95313,0.46875 -0.39062,0.296875 -0.60937,0.703125 -0.20313,0.390625 -0.20313,0.828125 0,0.4375 0.20313,0.78125 0.21875,0.34375 0.57812,0.609375 0.35938,0.265625 0.875,0.453125 0.51563,0.1875 1.125,0.3125 0.48438,0.09375 0.79688,0.1875 0.32812,0.07813 0.53125,0.1875 0.1875,0.109375 0.25,0.234375 0.0781,0.125 0.0781,0.28125 z"
       fill-rule="nonzero"
       id="path13" />
    <path
       fill="#4a9fea"
       d="m -0.00130919,140.74744 v 0 c 0,-2.96588 2.40431429,-5.37019 5.37018629,-5.37019 H 141.36867 c 1.42425,0 2.79019,0.56578 3.79728,1.57289 1.00711,1.00711 1.5729,2.37303 1.5729,3.7973 v 21.48009 c 0,2.96588 -2.40432,5.37019 -5.37018,5.37019 H 5.3688773 c -2.9658718,0 -5.37018629,-2.40431 -5.37018629,-5.37019 z"
       fill-rule="evenodd"
       id="path14" />
    <path
       stroke="#4a9fea"
       stroke-width="2"
       stroke-linejoin="round"
       stroke-linecap="butt"
       d="m -0.00130919,140.74744 v 0 c 0,-2.96588 2.40431429,-5.37019 5.37018629,-5.37019 H 141.36867 c 1.42425,0 2.79019,0.56578 3.79728,1.57289 1.00711,1.00711 1.5729,2.37303 1.5729,3.7973 v 21.48009 c 0,2.96588 -2.40432,5.37019 -5.37018,5.37019 H 5.3688773 c -2.9658718,0 -5.37018629,-2.40431 -5.37018629,-5.37019 z"
       fill-rule="evenodd"
       id="path15" />
    <path
       fill="#ffffff"
       d="m 52.812622,153.31873 h -1.828125 q -0.03125,0.4375 -0.15625,0.75 -0.109375,0.29687 -0.3125,0.48437 -0.203125,0.20313 -0.5,0.29688 -0.28125,0.0781 -0.625,0.0781 -0.28125,0 -0.5,-0.0625 -0.203125,-0.0625 -0.390625,-0.1875 -0.15625,-0.10937 -0.28125,-0.28125 -0.125,-0.1875 -0.21875,-0.40625 -0.125,-0.34375 -0.1875,-0.78125 -0.0625,-0.45312 -0.0625,-1.01562 v -1.28125 q 0,-0.42188 0.03125,-0.78125 0.04687,-0.35938 0.125,-0.65625 0.109375,-0.39063 0.296875,-0.67188 0.1875,-0.29687 0.453125,-0.45312 0.15625,-0.0937 0.34375,-0.14063 0.1875,-0.0469 0.390625,-0.0469 0.40625,0 0.6875,0.10937 0.296875,0.10938 0.5,0.3125 0.1875,0.21875 0.28125,0.54688 0.109375,0.3125 0.125,0.73437 h 1.828125 q -0.0625,-0.75 -0.3125,-1.32812 -0.25,-0.59375 -0.671875,-1.01563 -0.4375,-0.40625 -1.046875,-0.625 -0.609375,-0.21875 -1.390625,-0.21875 -0.515625,0 -0.984375,0.14063 -0.453125,0.125 -0.84375,0.375 -0.421875,0.28125 -0.765625,0.71875 -0.328125,0.42187 -0.546875,0.95312 -0.171875,0.45313 -0.265625,0.96875 -0.09375,0.51563 -0.09375,1.07813 v 1.28125 q 0,0.60937 0.09375,1.15625 0.109375,0.54687 0.296875,1 0.1875,0.45312 0.46875,0.84375 0.296875,0.375 0.65625,0.64062 0.390625,0.28125 0.890625,0.4375 0.5,0.15625 1.09375,0.15625 0.734375,0 1.34375,-0.21875 0.609375,-0.21875 1.0625,-0.625 0.4375,-0.40625 0.703125,-0.96875 0.265625,-0.57812 0.3125,-1.29687 z m 1.232559,-0.60938 v 0.125 q 0,0.78125 0.21875,1.4375 0.21875,0.65625 0.65625,1.125 0.421875,0.48438 1.03125,0.76563 0.625,0.26562 1.421875,0.26562 0.796875,0 1.40625,-0.26562 0.625,-0.28125 1.046875,-0.76563 0.421875,-0.46875 0.640625,-1.125 0.21875,-0.65625 0.21875,-1.4375 v -0.125 q 0,-0.78125 -0.21875,-1.42187 -0.21875,-0.65625 -0.640625,-1.14063 -0.4375,-0.48437 -1.0625,-0.75 -0.609375,-0.28125 -1.40625,-0.28125 -0.78125,0 -1.40625,0.28125 -0.609375,0.26563 -1.03125,0.75 -0.4375,0.48438 -0.65625,1.14063 -0.21875,0.64062 -0.21875,1.42187 z m 1.8125,0.125 v -0.125 q 0,-0.4375 0.07813,-0.8125 0.09375,-0.39062 0.265625,-0.6875 0.1875,-0.29687 0.46875,-0.45312 0.28125,-0.17188 0.6875,-0.17188 0.421875,0 0.703125,0.17188 0.28125,0.15625 0.46875,0.45312 0.171875,0.29688 0.25,0.6875 0.09375,0.375 0.09375,0.8125 v 0.125 q 0,0.45313 -0.09375,0.84375 -0.07813,0.375 -0.25,0.65625 -0.1875,0.29688 -0.46875,0.46875 -0.28125,0.17188 -0.6875,0.17188 -0.40625,0 -0.703125,-0.17188 -0.28125,-0.17187 -0.46875,-0.46875 -0.171875,-0.28125 -0.265625,-0.65625 -0.07813,-0.39062 -0.07813,-0.84375 z m 6.248184,-0.125 v 0.14063 q 0,0.76562 0.1875,1.42187 0.1875,0.65625 0.546875,1.125 0.34375,0.48438 0.859375,0.75 0.515625,0.26563 1.15625,0.26563 0.59375,0 1.03125,-0.21875 0.453125,-0.23438 0.78125,-0.64063 l 0.09375,0.73438 h 1.640625 v -10 h -1.8125 v 3.59375 q -0.328125,-0.375 -0.75,-0.5625 -0.421875,-0.20313 -0.96875,-0.20313 -0.65625,0 -1.171875,0.26563 -0.515625,0.25 -0.875,0.73437 -0.359375,0.46875 -0.546875,1.14063 -0.171875,0.65625 -0.171875,1.45312 z m 1.796875,0.14063 v -0.14063 q 0,-0.4375 0.07813,-0.82812 0.07812,-0.39063 0.25,-0.67188 0.171875,-0.29687 0.4375,-0.45312 0.28125,-0.17188 0.65625,-0.17188 0.46875,0 0.765625,0.20313 0.3125,0.20312 0.5,0.54687 v 2.85938 q -0.1875,0.34375 -0.5,0.54687 -0.3125,0.20313 -0.78125,0.20313 -0.375,0 -0.640625,-0.15625 -0.265625,-0.17188 -0.4375,-0.45313 -0.171875,-0.28125 -0.25,-0.65625 -0.07813,-0.39062 -0.07813,-0.82812 z m 9.795059,3.5625 q 1.03125,0 1.78125,-0.39063 0.75,-0.39062 1.09375,-0.89062 l -0.90625,-0.96875 q -0.3125,0.40625 -0.8125,0.60937 -0.5,0.1875 -1.046875,0.1875 -0.375,0 -0.703125,-0.10937 -0.3125,-0.125 -0.546875,-0.32813 -0.25,-0.21875 -0.390625,-0.46875 -0.140625,-0.26562 -0.234375,-0.6875 V 153.35 h 4.78125 v -0.76563 q 0,-0.78125 -0.21875,-1.42187 -0.21875,-0.64063 -0.625,-1.09375 -0.421875,-0.45313 -1.015625,-0.70313 -0.59375,-0.25 -1.359375,-0.25 -0.734375,0 -1.359375,0.26563 -0.625,0.26562 -1.078125,0.75 -0.453125,0.48437 -0.703125,1.15625 -0.25,0.65625 -0.25,1.46875 v 0.25 q 0,0.71875 0.25,1.34375 0.265625,0.60937 0.734375,1.07812 0.46875,0.45313 1.125,0.71875 0.671875,0.26563 1.484375,0.26563 z m -0.203125,-5.82813 q 0.34375,0 0.59375,0.10938 0.265625,0.0937 0.453125,0.28125 0.1875,0.1875 0.28125,0.45312 0.109375,0.25 0.109375,0.53125 v 0.14063 h -2.96875 q 0.0625,-0.34375 0.1875,-0.625 0.140625,-0.28125 0.34375,-0.48438 0.1875,-0.20312 0.4375,-0.29687 0.25,-0.10938 0.5625,-0.10938 z m 6.623184,4.65625 q 0,0.5 0.328125,0.84375 0.34375,0.32813 0.921875,0.32813 0.578125,0 0.921875,-0.32813 0.34375,-0.34375 0.34375,-0.84375 0,-0.51562 -0.34375,-0.85937 -0.328125,-0.34375 -0.921875,-0.34375 -0.59375,0 -0.921875,0.35937 -0.328125,0.34375 -0.328125,0.84375 z m 5.982559,-2.53125 v 0.14063 q 0,0.76562 0.1875,1.42187 0.203125,0.65625 0.578125,1.125 0.375,0.48438 0.890625,0.75 0.53125,0.26563 1.1875,0.26563 0.328125,0 0.609375,-0.0781 0.296875,-0.0625 0.546875,-0.1875 0.15625,-0.0937 0.296875,-0.20312 0.15625,-0.125 0.28125,-0.26563 v 0.40625 q 0,0.35938 -0.109375,0.64063 -0.09375,0.28125 -0.28125,0.48437 -0.203125,0.20313 -0.515625,0.3125 -0.3125,0.125 -0.703125,0.125 -0.25,0 -0.484375,-0.0625 -0.234375,-0.0469 -0.453125,-0.14062 -0.21875,-0.0937 -0.421875,-0.25 -0.203125,-0.15625 -0.375,-0.35938 l -0.8125,1.10938 q 0.234375,0.29687 0.546875,0.5 0.328125,0.21875 0.671875,0.34375 0.359375,0.14062 0.71875,0.20312 0.375,0.0625 0.6875,0.0625 0.75,0 1.359375,-0.20312 0.625,-0.1875 1.0625,-0.57813 0.4375,-0.375 0.671875,-0.9375 0.25,-0.5625 0.25,-1.28125 v -6.8125 h -1.640625 l -0.07813,0.67188 q -0.125,-0.15625 -0.28125,-0.28125 -0.15625,-0.14063 -0.34375,-0.23438 -0.234375,-0.14062 -0.53125,-0.20312 -0.296875,-0.0781 -0.65625,-0.0781 -0.671875,0 -1.203125,0.26563 -0.515625,0.25 -0.890625,0.73437 -0.375,0.46875 -0.578125,1.14063 -0.1875,0.65625 -0.1875,1.45312 z m 1.8125,0.14063 v -0.14063 q 0,-0.4375 0.09375,-0.82812 0.09375,-0.39063 0.28125,-0.67188 0.1875,-0.29687 0.453125,-0.45312 0.28125,-0.17188 0.671875,-0.17188 0.203125,0 0.375,0.0469 0.1875,0.0312 0.34375,0.10937 0.171875,0.0781 0.3125,0.21875 0.140625,0.14063 0.234375,0.3125 v 2.98438 q -0.09375,0.15625 -0.21875,0.29687 -0.125,0.125 -0.28125,0.21875 -0.15625,0.0781 -0.359375,0.125 -0.1875,0.0469 -0.421875,0.0469 -0.375,0 -0.65625,-0.15625 -0.28125,-0.17188 -0.46875,-0.45313 -0.171875,-0.28125 -0.265625,-0.65625 -0.09375,-0.39062 -0.09375,-0.82812 z m 10.904434,1.5 q 0,0.17187 -0.07813,0.3125 -0.07813,0.125 -0.234375,0.23437 -0.171875,0.10938 -0.4375,0.17188 -0.265625,0.0469 -0.609375,0.0469 -0.296875,0 -0.578125,-0.0469 -0.28125,-0.0625 -0.484375,-0.1875 -0.21875,-0.125 -0.359375,-0.32813 -0.140625,-0.21875 -0.15625,-0.5 h -1.71875 q 0,0.4375 0.203125,0.85938 0.21875,0.42187 0.625,0.75 0.40625,0.34375 1.015625,0.5625 0.609375,0.20312 1.40625,0.20312 0.71875,0 1.296875,-0.15625 0.59375,-0.17187 1.015625,-0.45312 0.406244,-0.28125 0.624994,-0.67188 0.23438,-0.40625 0.23438,-0.875 0,-0.5 -0.23438,-0.85937 -0.21875,-0.375 -0.609369,-0.64063 -0.40625,-0.25 -0.953125,-0.40625 -0.546875,-0.17187 -1.171875,-0.28125 -0.453125,-0.0625 -0.734375,-0.14062 -0.28125,-0.0937 -0.453125,-0.20313 -0.171875,-0.10937 -0.234375,-0.23437 -0.0625,-0.14063 -0.0625,-0.29688 0,-0.15625 0.07813,-0.29687 0.07813,-0.14063 0.21875,-0.23438 0.15625,-0.125 0.390625,-0.1875 0.25,-0.0625 0.59375,-0.0625 0.390625,0 0.65625,0.0937 0.28125,0.0937 0.4375,0.26563 0.125,0.125 0.171875,0.28125 0.0625,0.14062 0.0625,0.3125 h 1.812504 q 0,-0.48438 -0.21875,-0.89063 -0.20313,-0.42187 -0.609379,-0.73437 -0.40625,-0.29688 -1,-0.46875 -0.578125,-0.17188 -1.3125,-0.17188 -0.703125,0 -1.265625,0.1875 -0.5625,0.17188 -0.953125,0.46875 -0.390625,0.29688 -0.609375,0.70313 -0.203125,0.39062 -0.203125,0.82812 0,0.4375 0.203125,0.78125 0.21875,0.34375 0.578125,0.60938 0.359375,0.26562 0.875,0.45312 0.515625,0.1875 1.125,0.3125 0.484375,0.0937 0.796875,0.1875 0.328125,0.0781 0.53125,0.1875 0.1875,0.10938 0.25,0.23438 0.07813,0.125 0.07813,0.28125 z"
       fill-rule="nonzero"
       id="path16" />
    <path
       fill="#000000"
       fill-opacity="0"
       d="M 203.30714,151.48688 H 146.74021"
       fill-rule="evenodd"
       id="path17" />
    <path
       stroke="#4a9fea"
       stroke-width="2"
       stroke-linejoin="round"
       stroke-linecap="butt"
       d="M 203.30714,151.48688 H 158.74021"
       fill-rule="evenodd"
       id="path18" />
    <path
       fill="#4a9fea"
       stroke="#4a9fea"
       stroke-width="2"
       stroke-linecap="butt"
       d="m 158.74022,148.18341 -9.0762,3.30347 9.0762,3.30346 z"
       fill-rule="evenodd"
       id="path19" />
    <path
       fill="#4a9fea"
       d="m 215.31503,100.74743 v 0 c 0,-2.965874 2.40431,-5.370186 5.37018,-5.370186 H 356.685 c 1.42425,0 2.79019,0.565788 3.7973,1.572891 1.00711,1.007103 1.57288,2.373032 1.57288,3.797295 v 21.4801 c 0,2.96588 -2.4043,5.37019 -5.37018,5.37019 H 220.68521 c -2.96587,0 -5.37018,-2.40431 -5.37018,-5.37019 z"
       fill-rule="evenodd"
       id="path20" />
    <path
       stroke="#4a9fea"
       stroke-width="2"
       stroke-linejoin="round"
       stroke-linecap="butt"
       d="m 215.31503,100.74743 v 0 c 0,-2.965874 2.40431,-5.370186 5.37018,-5.370186 H 356.685 c 1.42425,0 2.79019,0.565788 3.7973,1.572891 1.00711,1.007103 1.57288,2.373032 1.57288,3.797295 v 21.4801 c 0,2.96588 -2.4043,5.37019 -5.37018,5.37019 H 220.68521 c -2.96587,0 -5.37018,-2.40431 -5.37018,-5.37019 z"
       fill-rule="evenodd"
       id="path21" />
    <path
       fill="#ffffff"
       d="m 272.12805,113.31873 h -1.82813 q -0.0312,0.4375 -0.15625,0.75 -0.10937,0.29688 -0.3125,0.48438 -0.20312,0.20312 -0.5,0.29687 -0.28125,0.0781 -0.625,0.0781 -0.28125,0 -0.5,-0.0625 -0.20312,-0.0625 -0.39062,-0.1875 -0.15625,-0.10938 -0.28125,-0.28125 -0.125,-0.1875 -0.21875,-0.40625 -0.125,-0.34375 -0.1875,-0.78125 -0.0625,-0.45313 -0.0625,-1.01563 v -1.28125 q 0,-0.42187 0.0312,-0.78125 0.0469,-0.35937 0.125,-0.65625 0.10937,-0.39062 0.29687,-0.67187 0.1875,-0.29688 0.45313,-0.45313 0.15625,-0.0937 0.34375,-0.14062 0.1875,-0.0469 0.39062,-0.0469 0.40625,0 0.6875,0.10938 0.29688,0.10937 0.5,0.3125 0.1875,0.21875 0.28125,0.54687 0.10938,0.3125 0.125,0.73438 h 1.82813 q -0.0625,-0.75 -0.3125,-1.32813 -0.25,-0.59375 -0.67188,-1.01562 -0.4375,-0.40625 -1.04687,-0.625 -0.60938,-0.21875 -1.39063,-0.21875 -0.51562,0 -0.98437,0.14062 -0.45313,0.125 -0.84375,0.375 -0.42188,0.28125 -0.76563,0.71875 -0.32812,0.42188 -0.54687,0.95313 -0.17188,0.45312 -0.26563,0.96875 -0.0937,0.51562 -0.0937,1.07812 v 1.28125 q 0,0.60938 0.0937,1.15625 0.10938,0.54688 0.29688,1 0.1875,0.45313 0.46875,0.84375 0.29687,0.375 0.65625,0.64063 0.39062,0.28125 0.89062,0.4375 0.5,0.15625 1.09375,0.15625 0.73438,0 1.34375,-0.21875 0.60938,-0.21875 1.0625,-0.625 0.4375,-0.40625 0.70313,-0.96875 0.26562,-0.57813 0.3125,-1.29688 z m 1.23257,-0.60937 v 0.125 q 0,0.78125 0.21875,1.4375 0.21875,0.65625 0.65625,1.125 0.42188,0.48437 1.03125,0.76562 0.625,0.26563 1.42188,0.26563 0.79687,0 1.40625,-0.26563 0.625,-0.28125 1.04687,-0.76562 0.42188,-0.46875 0.64063,-1.125 0.21875,-0.65625 0.21875,-1.4375 v -0.125 q 0,-0.78125 -0.21875,-1.42188 -0.21875,-0.65625 -0.64063,-1.14062 -0.4375,-0.48438 -1.0625,-0.75 -0.60937,-0.28125 -1.40625,-0.28125 -0.78125,0 -1.40625,0.28125 -0.60937,0.26562 -1.03125,0.75 -0.4375,0.48437 -0.65625,1.14062 -0.21875,0.64063 -0.21875,1.42188 z m 1.8125,0.125 v -0.125 q 0,-0.4375 0.0781,-0.8125 0.0937,-0.39063 0.26562,-0.6875 0.1875,-0.29688 0.46875,-0.45313 0.28125,-0.17187 0.6875,-0.17187 0.42188,0 0.70313,0.17187 0.28125,0.15625 0.46875,0.45313 0.17187,0.29687 0.25,0.6875 0.0937,0.375 0.0937,0.8125 v 0.125 q 0,0.45312 -0.0937,0.84375 -0.0781,0.375 -0.25,0.65625 -0.1875,0.29687 -0.46875,0.46875 -0.28125,0.17187 -0.6875,0.17187 -0.40625,0 -0.70313,-0.17187 -0.28125,-0.17188 -0.46875,-0.46875 -0.17187,-0.28125 -0.26562,-0.65625 -0.0781,-0.39063 -0.0781,-0.84375 z m 11.48255,-3.71875 q -0.70313,0 -1.3125,0.34375 -0.59375,0.34375 -1.01563,0.9375 l -0.0156,-0.15625 -0.0781,-1 h -1.67187 v 7.04687 h 1.79687 v -4.23437 q 0.125,-0.29688 0.3125,-0.51563 0.1875,-0.21875 0.45313,-0.35937 0.23437,-0.125 0.51562,-0.1875 0.28125,-0.0625 0.625,-0.0625 0.34375,0 0.71875,0.0469 0.375,0.0312 0.73438,0.125 l 0.26562,-1.8125 q -0.21875,-0.0625 -0.5625,-0.10937 -0.34375,-0.0625 -0.76562,-0.0625 z m 6.35757,7.29687 q 1.03125,0 1.78125,-0.39062 0.75,-0.39063 1.09375,-0.89063 l -0.90625,-0.96875 q -0.3125,0.40625 -0.8125,0.60938 -0.5,0.1875 -1.04687,0.1875 -0.375,0 -0.70313,-0.10938 -0.3125,-0.125 -0.54687,-0.32812 -0.25,-0.21875 -0.39063,-0.46875 -0.14062,-0.26563 -0.23437,-0.6875 v -0.0156 h 4.78125 v -0.76562 q 0,-0.78125 -0.21875,-1.42188 -0.21875,-0.64062 -0.625,-1.09375 -0.42188,-0.45312 -1.01563,-0.70312 -0.59375,-0.25 -1.35937,-0.25 -0.73438,0 -1.35938,0.26562 -0.625,0.26563 -1.07812,0.75 -0.45313,0.48438 -0.70313,1.15625 -0.25,0.65625 -0.25,1.46875 v 0.25 q 0,0.71875 0.25,1.34375 0.26563,0.60938 0.73438,1.07813 0.46875,0.45312 1.125,0.71875 0.67187,0.26562 1.48437,0.26562 z m -0.20312,-5.82812 q 0.34375,0 0.59375,0.10937 0.26562,0.0937 0.45312,0.28125 0.1875,0.1875 0.28125,0.45313 0.10938,0.25 0.10938,0.53125 v 0.14062 h -2.96875 q 0.0625,-0.34375 0.1875,-0.625 0.14062,-0.28125 0.34375,-0.48437 0.1875,-0.20313 0.4375,-0.29688 0.25,-0.10937 0.5625,-0.10937 z m 6.99817,6.51562 3.54687,-10.28125 h -1.6875 l -3.54687,10.28125 z m 8.42007,-6.60937 -1.79687,2.14062 1.15625,0.79688 1.375,-2.35938 1.375,2.42188 1.15625,-0.82813 -1.75,-2.10937 2.59375,-0.59375 -0.42188,-1.35938 -2.42187,1.0625 0.25,-2.84375 h -1.42188 l 0.23438,2.79688 -2.4375,-1.07813 -0.4375,1.32813 z"
       fill-rule="nonzero"
       id="path22" />
    <path
       fill="#4a9fea"
       d="m 215.31503,155.57455 v 0 c 0,-2.96588 2.40431,-5.37019 5.37018,-5.37019 H 356.685 c 1.42425,0 2.79019,0.56578 3.7973,1.57289 1.00711,1.00711 1.57288,2.37303 1.57288,3.7973 v 21.48009 c 0,2.96588 -2.4043,5.37019 -5.37018,5.37019 H 220.68521 c -2.96587,0 -5.37018,-2.40431 -5.37018,-5.37019 z"
       fill-rule="evenodd"
       id="path23" />
    <path
       stroke="#4a9fea"
       stroke-width="2"
       stroke-linejoin="round"
       stroke-linecap="butt"
       d="m 215.31503,155.57455 v 0 c 0,-2.96588 2.40431,-5.37019 5.37018,-5.37019 H 356.685 c 1.42425,0 2.79019,0.56578 3.7973,1.57289 1.00711,1.00711 1.57288,2.37303 1.57288,3.7973 v 21.48009 c 0,2.96588 -2.4043,5.37019 -5.37018,5.37019 H 220.68521 c -2.96587,0 -5.37018,-2.40431 -5.37018,-5.37019 z"
       fill-rule="evenodd"
       id="path24" />
    <path
       fill="#ffffff"
       d="m 258.4589,168.64584 q 0,0.25 -0.10937,0.46875 -0.0937,0.20312 -0.28125,0.35937 -0.20313,0.14063 -0.48438,0.23438 -0.28125,0.0781 -0.64062,0.0781 -0.42188,0 -0.76563,-0.0937 -0.32811,-0.0937 -0.57811,-0.28125 -0.25,-0.20312 -0.39062,-0.5 -0.125,-0.3125 -0.14063,-0.73437 h -1.79687 q 0,0.73437 0.28125,1.28125 0.28125,0.54687 0.78125,0.95312 0.5,0.40625 1.1875,0.625 0.70311,0.20313 1.42185,0.20313 0.71875,0 1.32813,-0.17188 0.60937,-0.17187 1.04687,-0.51562 0.45313,-0.32813 0.70313,-0.8125 0.25,-0.48438 0.25,-1.10938 0,-0.71875 -0.34375,-1.26562 -0.32813,-0.5625 -0.875,-0.98438 -0.375,-0.25 -0.82813,-0.4375 -0.4375,-0.20312 -0.92187,-0.34375 -0.45313,-0.125 -0.82813,-0.26562 -0.35937,-0.14063 -0.60935,-0.3125 -0.25,-0.17188 -0.39063,-0.39063 -0.125,-0.21875 -0.125,-0.48437 0,-0.25 0.0937,-0.46875 0.10938,-0.21875 0.29688,-0.375 0.20312,-0.15625 0.48435,-0.23438 0.28125,-0.0937 0.64063,-0.0937 0.40625,0 0.70312,0.10938 0.29688,0.0937 0.5,0.28125 0.1875,0.20312 0.28125,0.46875 0.10938,0.26562 0.125,0.57812 h 1.78125 q 0,-0.625 -0.25,-1.15625 -0.25,-0.54687 -0.6875,-0.9375 -0.4375,-0.375 -1.0625,-0.59375 -0.60937,-0.21875 -1.35937,-0.21875 -0.70313,0 -1.32811,0.1875 -0.60937,0.1875 -1.04687,0.53125 -0.45313,0.34375 -0.71875,0.84375 -0.25,0.48438 -0.25,1.07813 0,0.51562 0.1875,0.96875 0.20312,0.4375 0.57812,0.79687 0.375,0.375 0.96875,0.6875 0.60938,0.29688 1.39061,0.5 0.5,0.14063 0.84375,0.3125 0.34375,0.15625 0.5625,0.34375 0.20312,0.1875 0.28125,0.40625 0.0937,0.21875 0.0937,0.48438 z m 2.90445,-1.10938 v 0.125 q 0,0.78125 0.21875,1.4375 0.21875,0.65625 0.65625,1.125 0.42187,0.48438 1.03125,0.76563 0.625,0.26562 1.42187,0.26562 0.79688,0 1.40625,-0.26562 0.625,-0.28125 1.04688,-0.76563 0.42187,-0.46875 0.64062,-1.125 0.21875,-0.65625 0.21875,-1.4375 v -0.125 q 0,-0.78125 -0.21875,-1.42187 -0.21875,-0.65625 -0.64062,-1.14063 -0.4375,-0.48437 -1.0625,-0.75 -0.60938,-0.28125 -1.40625,-0.28125 -0.78125,0 -1.40625,0.28125 -0.60938,0.26563 -1.03125,0.75 -0.4375,0.48438 -0.65625,1.14063 -0.21875,0.64062 -0.21875,1.42187 z m 1.8125,0.125 v -0.125 q 0,-0.4375 0.0781,-0.8125 0.0937,-0.39062 0.26563,-0.6875 0.1875,-0.29687 0.46875,-0.45312 0.28125,-0.17188 0.6875,-0.17188 0.42187,0 0.70312,0.17188 0.28125,0.15625 0.46875,0.45312 0.17188,0.29688 0.25,0.6875 0.0937,0.375 0.0937,0.8125 v 0.125 q 0,0.45313 -0.0937,0.84375 -0.0781,0.375 -0.25,0.65625 -0.1875,0.29688 -0.46875,0.46875 -0.28125,0.17188 -0.6875,0.17188 -0.40625,0 -0.70312,-0.17188 -0.28125,-0.17187 -0.46875,-0.46875 -0.17188,-0.28125 -0.26563,-0.65625 -0.0781,-0.39062 -0.0781,-0.84375 z m 11.02942,3.45313 h 1.64062 v -7.04688 h -1.8125 v 4.9375 q -0.0937,0.17188 -0.21875,0.3125 -0.10937,0.14063 -0.25,0.23438 -0.1875,0.10937 -0.42187,0.17187 -0.21875,0.0625 -0.51563,0.0625 -0.3125,0 -0.53125,-0.0781 -0.21875,-0.0781 -0.35937,-0.26563 -0.14063,-0.17187 -0.20313,-0.46875 -0.0625,-0.29687 -0.0625,-0.71875 v -4.1875 h -1.8125 v 4.17188 q 0,0.79687 0.17188,1.375 0.1875,0.5625 0.51562,0.92187 0.32813,0.375 0.78125,0.54688 0.45313,0.17187 1,0.17187 0.60938,0 1.10938,-0.29687 0.5,-0.3125 0.85937,-0.82813 z m 8.45132,-7.17188 q -0.70312,0 -1.3125,0.34375 -0.59375,0.34375 -1.01562,0.9375 l -0.0156,-0.15625 -0.0781,-1 h -1.67188 v 7.04688 h 1.79688 v -4.23438 q 0.125,-0.29687 0.3125,-0.51562 0.1875,-0.21875 0.45312,-0.35938 0.23438,-0.125 0.51563,-0.1875 0.28125,-0.0625 0.625,-0.0625 0.34375,0 0.71875,0.0469 0.375,0.0312 0.73437,0.125 l 0.26563,-1.8125 q -0.21875,-0.0625 -0.5625,-0.10938 -0.34375,-0.0625 -0.76563,-0.0625 z m 6.06067,5.85938 q -0.4375,0 -0.71875,-0.17188 -0.28125,-0.1875 -0.4375,-0.46875 -0.17187,-0.29687 -0.23437,-0.67187 -0.0625,-0.375 -0.0625,-0.79688 v -0.1875 q 0,-0.40625 0.0625,-0.78125 0.0625,-0.375 0.23437,-0.67187 0.17188,-0.29688 0.4375,-0.46875 0.28125,-0.17188 0.71875,-0.17188 0.29688,0 0.53125,0.10938 0.25,0.0937 0.42188,0.25 0.1875,0.17187 0.26562,0.40625 0.0937,0.23437 0.0937,0.5 h 1.70313 q 0,-0.625 -0.21875,-1.125 -0.21875,-0.51563 -0.60938,-0.875 -0.40625,-0.34375 -0.96875,-0.53125 -0.54687,-0.20313 -1.20312,-0.20313 -0.8125,0 -1.42188,0.28125 -0.60937,0.28125 -1.03125,0.76563 -0.42187,0.46875 -0.625,1.125 -0.20312,0.64062 -0.20312,1.39062 v 0.1875 q 0,0.75 0.20312,1.40625 0.21875,0.64063 0.625,1.125 0.42188,0.46875 1.03125,0.75 0.625,0.28125 1.4375,0.28125 0.60938,0 1.15625,-0.1875 0.54688,-0.20312 0.95313,-0.53125 0.40625,-0.34375 0.64062,-0.8125 0.23438,-0.46875 0.23438,-1.01562 h -1.70313 q 0,0.25 -0.10937,0.45312 -0.0937,0.20313 -0.26563,0.34375 -0.1875,0.14063 -0.4375,0.21875 -0.23437,0.0781 -0.5,0.0781 z m 8.29508,1.4375 q 1.03125,0 1.78125,-0.39063 0.75,-0.39062 1.09375,-0.89062 l -0.90625,-0.96875 q -0.3125,0.40625 -0.8125,0.60937 -0.5,0.1875 -1.04688,0.1875 -0.375,0 -0.70312,-0.10937 -0.3125,-0.125 -0.54688,-0.32813 -0.25,-0.21875 -0.39062,-0.46875 -0.14063,-0.26562 -0.23438,-0.6875 v -0.0156 h 4.78125 v -0.76563 q 0,-0.78125 -0.21875,-1.42187 -0.21875,-0.64063 -0.625,-1.09375 -0.42187,-0.45313 -1.01562,-0.70313 -0.59375,-0.25 -1.35938,-0.25 -0.73437,0 -1.35937,0.26563 -0.625,0.26562 -1.07813,0.75 -0.45312,0.48437 -0.70312,1.15625 -0.25,0.65625 -0.25,1.46875 v 0.25 q 0,0.71875 0.25,1.34375 0.26562,0.60937 0.73437,1.07812 0.46875,0.45313 1.125,0.71875 0.67188,0.26563 1.48438,0.26563 z m -0.20313,-5.82813 q 0.34375,0 0.59375,0.10938 0.26563,0.0937 0.45313,0.28125 0.1875,0.1875 0.28125,0.45312 0.10937,0.25 0.10937,0.53125 v 0.14063 h -2.96875 q 0.0625,-0.34375 0.1875,-0.625 0.14063,-0.28125 0.34375,-0.48438 0.1875,-0.20312 0.4375,-0.29687 0.25,-0.10938 0.5625,-0.10938 z m 9.32629,3.76563 q 0,0.17187 -0.0781,0.3125 -0.0781,0.125 -0.23438,0.23437 -0.17187,0.10938 -0.4375,0.17188 -0.26562,0.0469 -0.60937,0.0469 -0.29688,0 -0.57813,-0.0469 -0.28125,-0.0625 -0.48437,-0.1875 -0.21875,-0.125 -0.35938,-0.32813 -0.14062,-0.21875 -0.15625,-0.5 h -1.71875 q 0,0.4375 0.20313,0.85938 0.21875,0.42187 0.625,0.75 0.40625,0.34375 1.01562,0.5625 0.60938,0.20312 1.40625,0.20312 0.71875,0 1.29688,-0.15625 0.59375,-0.17187 1.01562,-0.45312 0.40625,-0.28125 0.625,-0.67188 0.23438,-0.40625 0.23438,-0.875 0,-0.5 -0.23438,-0.85937 -0.21875,-0.375 -0.60937,-0.64063 -0.40625,-0.25 -0.95313,-0.40625 -0.54687,-0.17187 -1.17187,-0.28125 -0.45313,-0.0625 -0.73438,-0.14062 -0.28125,-0.0937 -0.45312,-0.20313 -0.17188,-0.10937 -0.23438,-0.23437 -0.0625,-0.14063 -0.0625,-0.29688 0,-0.15625 0.0781,-0.29687 0.0781,-0.14063 0.21875,-0.23438 0.15625,-0.125 0.39062,-0.1875 0.25,-0.0625 0.59375,-0.0625 0.39063,0 0.65625,0.0937 0.28125,0.0937 0.4375,0.26563 0.125,0.125 0.17188,0.28125 0.0625,0.14062 0.0625,0.3125 h 1.8125 q 0,-0.48438 -0.21875,-0.89063 -0.20313,-0.42187 -0.60938,-0.73437 -0.40625,-0.29688 -1,-0.46875 -0.57812,-0.17188 -1.3125,-0.17188 -0.70312,0 -1.26562,0.1875 -0.5625,0.17188 -0.95313,0.46875 -0.39062,0.29688 -0.60937,0.70313 -0.20313,0.39062 -0.20313,0.82812 0,0.4375 0.20313,0.78125 0.21875,0.34375 0.57812,0.60938 0.35938,0.26562 0.875,0.45312 0.51563,0.1875 1.125,0.3125 0.48438,0.0937 0.79688,0.1875 0.32812,0.0781 0.53125,0.1875 0.1875,0.10938 0.25,0.23438 0.0781,0.125 0.0781,0.28125 z m 5.67008,2.75 3.54687,-10.28125 h -1.6875 l -3.54687,10.28125 z m 8.42004,-6.60938 -1.79687,2.14063 1.15625,0.79687 1.375,-2.35937 1.375,2.42187 1.15625,-0.82812 -1.75,-2.10938 2.59375,-0.59375 -0.42188,-1.35937 -2.42187,1.0625 0.25,-2.84375 h -1.42188 l 0.23438,2.79687 -2.4375,-1.07812 -0.4375,1.32812 z"
       fill-rule="nonzero"
       id="path25" />
    <path
       fill="#ffffff"
       d="m 430.99344,132.29002 h 146.74014 v 38.39371 H 430.99344 Z"
       fill-rule="evenodd"
       id="path26" />
    <path
       stroke="#434343"
       stroke-width="2"
       stroke-linejoin="round"
       stroke-linecap="butt"
       d="m 430.99344,132.29002 h 146.74014 v 38.39371 H 430.99344 Z"
       fill-rule="evenodd"
       id="path27" />
    <path
       fill="#434343"
       d="m 487.72833,155.1775 v -3.73438 h -3.39062 v 1.375 h 1.5625 v 1.71875 q -0.0781,0.0781 -0.21875,0.15625 -0.125,0.0781 -0.3125,0.125 -0.1875,0.0625 -0.39063,0.0937 -0.20312,0.0312 -0.42187,0.0312 -0.35938,0 -0.64063,-0.10937 -0.26562,-0.10938 -0.46875,-0.3125 -0.125,-0.125 -0.23437,-0.28125 -0.0937,-0.17188 -0.17188,-0.35938 -0.125,-0.32812 -0.20312,-0.75 -0.0625,-0.42187 -0.0625,-0.9375 v -1.29687 q 0,-0.40625 0.0469,-0.75 0.0469,-0.35938 0.14063,-0.64063 0.125,-0.375 0.29687,-0.64062 0.1875,-0.28125 0.40625,-0.45313 0.17188,-0.125 0.35938,-0.1875 0.20312,-0.0625 0.40625,-0.0625 0.375,0 0.65625,0.10938 0.28125,0.0937 0.46875,0.29687 0.15625,0.17188 0.25,0.4375 0.0937,0.26563 0.14062,0.60938 h 1.78125 q -0.0781,-0.67188 -0.3125,-1.21875 -0.21875,-0.54688 -0.625,-0.9375 -0.42187,-0.375 -1.01562,-0.57813 -0.59375,-0.20312 -1.39063,-0.20312 -0.51562,0 -0.98437,0.15625 -0.46875,0.14062 -0.875,0.40625 -0.32813,0.25 -0.625,0.59375 -0.28125,0.34375 -0.48438,0.76562 -0.23437,0.46875 -0.35937,1.0625 -0.125,0.57813 -0.125,1.25 v 1.28125 q 0,0.71875 0.125,1.32813 0.125,0.59375 0.375,1.07812 0.21875,0.4375 0.53125,0.78125 0.3125,0.32813 0.6875,0.5625 0.375,0.23438 0.82812,0.34375 0.46875,0.125 0.98438,0.125 0.60937,0 1.125,-0.10937 0.51562,-0.10938 0.9375,-0.28125 0.42187,-0.1875 0.71875,-0.40625 0.3125,-0.21875 0.48437,-0.4375 z m 2.04507,-5.9375 v 1.48437 h 2 v 4.09375 h -2 v 1.46875 h 5.73438 v -1.46875 h -1.90625 V 149.24 Z m 1.875,-1.79688 q 0,0.20313 0.0625,0.39063 0.0781,0.17187 0.21875,0.29687 0.14063,0.125 0.32813,0.20313 0.1875,0.0781 0.42187,0.0781 0.48438,0 0.76563,-0.26562 0.28125,-0.28125 0.28125,-0.70313 0,-0.42187 -0.28125,-0.6875 -0.28125,-0.28125 -0.76563,-0.28125 -0.23437,0 -0.42187,0.0781 -0.1875,0.0625 -0.32813,0.1875 -0.14062,0.14062 -0.21875,0.32812 -0.0625,0.17188 -0.0625,0.375 z m 8.9513,0.0781 h -1.8125 V 149.24 h -1.60938 v 1.34375 h 1.60938 v 3.20312 q 0,0.6875 0.1875,1.1875 0.1875,0.5 0.51562,0.8125 0.34375,0.32813 0.8125,0.48438 0.46875,0.15625 1.04688,0.15625 0.29687,0 0.60937,-0.0312 0.3125,-0.0312 0.59375,-0.0781 0.28125,-0.0625 0.53125,-0.14062 0.26563,-0.0781 0.45313,-0.1875 l -0.17188,-1.25 q -0.125,0.0312 -0.29687,0.0781 -0.17188,0.0312 -0.375,0.0469 -0.20313,0.0312 -0.42188,0.0625 -0.21875,0.0156 -0.42187,0.0156 -0.28125,0 -0.51563,-0.0625 -0.23437,-0.0781 -0.39062,-0.23437 -0.17188,-0.14063 -0.26563,-0.39063 -0.0781,-0.26562 -0.0781,-0.65625 v -3.01562 h 2.625 V 149.24 h -2.625 z m 10.8732,8.76562 v -9.46875 h -1.8125 v 3.875 h -2.6875 v -3.875 h -1.8125 v 9.46875 h 1.8125 v -4.10937 h 2.6875 v 4.10937 z m 6.40442,0 h 1.64062 V 149.24 h -1.8125 v 4.9375 q -0.0937,0.17187 -0.21875,0.3125 -0.10937,0.14062 -0.25,0.23437 -0.1875,0.10938 -0.42187,0.17188 -0.21875,0.0625 -0.51563,0.0625 -0.3125,0 -0.53125,-0.0781 -0.21875,-0.0781 -0.35937,-0.26562 -0.14063,-0.17188 -0.20313,-0.46875 -0.0625,-0.29688 -0.0625,-0.71875 V 149.24 h -1.8125 v 4.17187 q 0,0.79688 0.17188,1.375 0.1875,0.5625 0.51562,0.92188 0.32813,0.375 0.78125,0.54687 0.45313,0.17188 1,0.17188 0.60938,0 1.10938,-0.29688 0.5,-0.3125 0.85937,-0.82812 z m 9.74817,-3.45312 v -0.125 q 0,-0.64063 -0.125,-1.20313 -0.10938,-0.5625 -0.34375,-1.01562 -0.14063,-0.28125 -0.34375,-0.51563 -0.1875,-0.23437 -0.4375,-0.40625 -0.29688,-0.21875 -0.6875,-0.32812 -0.375,-0.125 -0.82813,-0.125 -0.32812,0 -0.60937,0.0781 -0.28125,0.0625 -0.53125,0.20313 -0.15625,0.0781 -0.3125,0.21875 -0.15625,0.125 -0.28125,0.26562 v -3.59375 h -1.8125 v 10 h 1.625 l 0.0937,-0.75 q 0.10937,0.14063 0.23437,0.26563 0.125,0.125 0.26563,0.21875 0.26562,0.1875 0.59375,0.28125 0.34375,0.10937 0.75,0.10937 0.45312,0 0.82812,-0.10937 0.375,-0.10938 0.67188,-0.32813 0.32812,-0.23437 0.5625,-0.57812 0.25,-0.34375 0.40625,-0.76563 0.14062,-0.375 0.20312,-0.82812 0.0781,-0.45313 0.0781,-0.96875 z m -1.8125,-0.125 v 0.125 q 0,0.28125 -0.0312,0.53125 -0.0156,0.25 -0.0625,0.46875 -0.0625,0.29687 -0.20313,0.53125 -0.125,0.21875 -0.32812,0.35937 -0.14063,0.10938 -0.34375,0.17188 -0.1875,0.0625 -0.42188,0.0625 -0.28125,0 -0.5,-0.0625 -0.21875,-0.0781 -0.375,-0.20313 -0.14062,-0.0937 -0.25,-0.21875 -0.0937,-0.14062 -0.17187,-0.29687 v -2.8125 q 0.0625,-0.125 0.125,-0.23438 0.0781,-0.10937 0.15625,-0.1875 0.1875,-0.17187 0.42187,-0.26562 0.25,-0.0937 0.57813,-0.0937 0.23437,0 0.42187,0.0625 0.20313,0.0469 0.34375,0.15625 0.23438,0.1875 0.34375,0.40625 0.10938,0.20312 0.1875,0.46875 0.0625,0.21875 0.0781,0.48437 0.0312,0.26563 0.0312,0.54688 z"
       fill-rule="nonzero"
       id="path28" />
    <path
       fill="#000000"
       fill-opacity="0"
       d="M 430.99344,151.48688 H 374.42651"
       fill-rule="evenodd"
       id="path29" />
    <path
       stroke="#434343"
       stroke-width="2"
       stroke-linejoin="round"
       stroke-linecap="butt"
       d="M 430.99344,151.48688 H 386.42651"
       fill-rule="evenodd"
       id="path30" />
    <path
       fill="#434343"
       stroke="#434343"
       stroke-width="2"
       stroke-linecap="butt"
       d="m 386.4265,148.18341 -9.0762,3.30347 9.0762,3.30346 z"
       fill-rule="evenodd"
       id="path31" />
    <path
       fill="#000000"
       fill-opacity="0"
       d="m 111.2271,266.43176 h 341.03937 v 32.22046 H 111.2271 Z"
       fill-rule="evenodd"
       id="path32" />
    <path
       fill="#000000"
       d="m 126.00835,285.74738 q 0,-0.25 -0.0781,-0.45312 -0.0781,-0.20313 -0.28125,-0.375 -0.20312,-0.17188 -0.5625,-0.34375 -0.35937,-0.17188 -0.9375,-0.35938 -0.64062,-0.20312 -1.21875,-0.45312 -0.57812,-0.26563 -1.01562,-0.60938 -0.4375,-0.35937 -0.70313,-0.8125 -0.25,-0.46875 -0.25,-1.07812 0,-0.59375 0.26563,-1.07813 0.26562,-0.48437 0.73437,-0.82812 0.46875,-0.35938 1.10938,-0.54688 0.64062,-0.1875 1.40625,-0.1875 1.04687,0 1.82812,0.39063 0.78125,0.375 1.20313,1.03125 0.4375,0.65625 0.4375,1.5 h -1.9375 q 0,-0.42188 -0.17188,-0.73438 -0.17187,-0.3125 -0.51562,-0.5 -0.34375,-0.1875 -0.875,-0.1875 -0.51563,0 -0.85938,0.15625 -0.32812,0.15625 -0.5,0.42188 -0.17187,0.25 -0.17187,0.5625 0,0.25 0.125,0.45312 0.125,0.1875 0.35937,0.35938 0.25,0.15625 0.59375,0.3125 0.35938,0.15625 0.8125,0.29687 0.78125,0.23438 1.35938,0.53125 0.59375,0.28125 0.98437,0.65625 0.40625,0.35938 0.60938,0.82813 0.20312,0.45312 0.20312,1.03125 0,0.625 -0.25,1.125 -0.23437,0.48437 -0.6875,0.82812 -0.45312,0.32813 -1.09375,0.5 -0.625,0.17188 -1.40625,0.17188 -0.70312,0 -1.39062,-0.17188 -0.6875,-0.1875 -1.25,-0.5625 -0.54688,-0.39062 -0.875,-0.96875 -0.32813,-0.59375 -0.32813,-1.39062 h 1.95313 q 0,0.4375 0.14062,0.75 0.14063,0.3125 0.39063,0.5 0.25,0.1875 0.59375,0.28125 0.34375,0.0781 0.76562,0.0781 0.5,0 0.82813,-0.14062 0.32812,-0.15625 0.48437,-0.40625 0.17188,-0.25 0.17188,-0.57813 z m 6.06581,1.15625 q 0.34375,0 0.60938,-0.125 0.26562,-0.14062 0.42187,-0.39062 0.15625,-0.25 0.15625,-0.57813 h 1.76563 q 0,0.75 -0.39063,1.32813 -0.39062,0.5625 -1.0625,0.89062 -0.65625,0.32813 -1.46875,0.32813 -0.8125,0 -1.42187,-0.26563 -0.60938,-0.28125 -1.01563,-0.76562 -0.40625,-0.48438 -0.60937,-1.125 -0.20313,-0.65625 -0.20313,-1.39063 v -0.1875 q 0,-0.75 0.20313,-1.39062 0.20312,-0.65625 0.60937,-1.14063 0.40625,-0.48437 1,-0.75 0.60938,-0.28125 1.42188,-0.28125 0.875,0 1.53125,0.32813 0.65625,0.32812 1.03125,0.95312 0.375,0.60938 0.375,1.45313 h -1.76563 q 0,-0.35938 -0.14062,-0.64063 -0.14063,-0.28125 -0.40625,-0.45312 -0.26563,-0.17188 -0.65625,-0.17188 -0.40625,0 -0.67188,0.17188 -0.25,0.17187 -0.39062,0.46875 -0.14063,0.29687 -0.20313,0.67187 -0.0625,0.375 -0.0625,0.78125 v 0.1875 q 0,0.40625 0.0469,0.78125 0.0625,0.375 0.20312,0.67188 0.15625,0.29687 0.40625,0.46875 0.26563,0.17187 0.6875,0.17187 z m 5.86578,-8.67187 v 10 h -1.875 v -10 z m -0.26562,6.23437 h -0.51563 q 0,-0.73437 0.1875,-1.35937 0.1875,-0.625 0.53125,-1.07813 0.35938,-0.46875 0.84375,-0.71875 0.5,-0.25 1.09375,-0.25 0.53125,0 0.95313,0.15625 0.42187,0.14063 0.73437,0.46875 0.3125,0.3125 0.48438,0.84375 0.17187,0.51563 0.17187,1.25 v 4.45313 h -1.89062 v -4.46875 q 0,-0.46875 -0.14063,-0.73438 -0.125,-0.26562 -0.375,-0.375 -0.25,-0.125 -0.625,-0.125 -0.40625,0 -0.6875,0.15625 -0.28125,0.14063 -0.45312,0.40625 -0.15625,0.26563 -0.23438,0.625 -0.0781,0.34375 -0.0781,0.75 z m 9.13641,3.89063 q -0.8125,0 -1.46875,-0.25 -0.65625,-0.26563 -1.10937,-0.73438 -0.45313,-0.46875 -0.6875,-1.09375 -0.23438,-0.625 -0.23438,-1.32812 v -0.26563 q 0,-0.79687 0.21875,-1.45312 0.23438,-0.67188 0.65625,-1.15625 0.42188,-0.48438 1.03125,-0.75 0.625,-0.26563 1.39063,-0.26563 0.75,0 1.32812,0.25 0.57813,0.25 0.96875,0.70313 0.39063,0.45312 0.59375,1.09375 0.20313,0.625 0.20313,1.40625 v 0.78125 h -5.59375 v -1.25 h 3.75 v -0.14063 q 0,-0.39062 -0.14063,-0.70312 -0.14062,-0.3125 -0.42187,-0.48438 -0.28125,-0.1875 -0.71875,-0.1875 -0.35938,0 -0.625,0.17188 -0.26563,0.15625 -0.4375,0.45312 -0.17188,0.28125 -0.25,0.67188 -0.0781,0.39062 -0.0781,0.85937 v 0.26563 q 0,0.42187 0.10938,0.78125 0.125,0.35937 0.34375,0.625 0.23437,0.25 0.54687,0.40625 0.32813,0.14062 0.75,0.14062 0.5,0 0.9375,-0.20312 0.4375,-0.20313 0.76563,-0.60938 l 0.90625,1 q -0.21875,0.3125 -0.60938,0.60938 -0.375,0.29687 -0.90625,0.48437 -0.53125,0.17188 -1.21875,0.17188 z m 5.83834,-5.70313 v 5.57813 h -1.89063 v -7.04688 h 1.76563 z m -0.26563,1.8125 h -0.51562 q 0,-0.73437 0.17187,-1.35937 0.1875,-0.625 0.53125,-1.07813 0.34375,-0.46875 0.85938,-0.71875 0.51562,-0.25 1.1875,-0.25 0.46875,0 0.85937,0.14063 0.39063,0.14062 0.67188,0.4375 0.28125,0.29687 0.4375,0.76562 0.15625,0.46875 0.15625,1.125 v 4.70313 h -1.875 v -4.48438 q 0,-0.48437 -0.125,-0.75 -0.125,-0.26562 -0.375,-0.35937 -0.23438,-0.10938 -0.5625,-0.10938 -0.35938,0 -0.64063,0.15625 -0.26562,0.14063 -0.4375,0.40625 -0.17187,0.26563 -0.26562,0.625 -0.0781,0.34375 -0.0781,0.75 z m 4.1875,-0.21875 -0.67187,0.0937 q 0,-0.70312 0.17187,-1.28125 0.17188,-0.59375 0.51563,-1.04687 0.34375,-0.45313 0.84375,-0.70313 0.51562,-0.25 1.1875,-0.25 0.5,0 0.90625,0.15625 0.42187,0.14063 0.71875,0.45313 0.29687,0.3125 0.45312,0.82812 0.17188,0.5 0.17188,1.23438 v 4.5 h -1.89063 v -4.5 q 0,-0.48438 -0.125,-0.73438 -0.125,-0.26562 -0.35937,-0.35937 -0.23438,-0.10938 -0.5625,-0.10938 -0.34375,0 -0.59375,0.14063 -0.25,0.125 -0.42188,0.35937 -0.17187,0.23438 -0.26562,0.54688 -0.0781,0.3125 -0.0781,0.67187 z m 9.54497,2.39063 v -3.125 q 0,-0.34375 -0.10938,-0.57813 -0.10937,-0.25 -0.34375,-0.39062 -0.23437,-0.14063 -0.59375,-0.14063 -0.3125,0 -0.54687,0.10938 -0.21875,0.10937 -0.34375,0.3125 -0.125,0.1875 -0.125,0.45312 h -1.875 q 0,-0.4375 0.20312,-0.84375 0.21875,-0.40625 0.60938,-0.70312 0.39062,-0.3125 0.9375,-0.48438 0.5625,-0.1875 1.23437,-0.1875 0.82813,0 1.46875,0.28125 0.64063,0.26563 1,0.8125 0.375,0.54688 0.375,1.35938 v 3.01562 q 0,0.57813 0.0625,0.95313 0.0781,0.35937 0.21875,0.64062 v 0.10938 h -1.90625 q -0.125,-0.28125 -0.20312,-0.71875 -0.0625,-0.4375 -0.0625,-0.875 z m 0.25,-2.6875 0.0156,1.04687 h -1.0625 q -0.35937,0 -0.64062,0.0937 -0.26563,0.0781 -0.45313,0.23438 -0.17187,0.15625 -0.25,0.35937 -0.0781,0.20313 -0.0781,0.4375 0,0.23438 0.10937,0.4375 0.10938,0.1875 0.3125,0.29688 0.21875,0.10937 0.5,0.10937 0.42188,0 0.73438,-0.17187 0.3125,-0.17188 0.48437,-0.42188 0.17188,-0.25 0.17188,-0.46875 l 0.5,0.79688 q -0.10938,0.26562 -0.29688,0.5625 -0.17187,0.28125 -0.45312,0.53125 -0.26563,0.25 -0.65625,0.40625 -0.375,0.15625 -0.90625,0.15625 -0.67188,0 -1.21875,-0.26563 -0.53125,-0.26562 -0.85938,-0.73437 -0.3125,-0.48438 -0.3125,-1.10938 0,-0.54687 0.20313,-0.96875 0.21875,-0.4375 0.625,-0.73437 0.40625,-0.29688 1.01562,-0.4375 0.625,-0.15625 1.42188,-0.15625 z m 10.88264,-5.21875 v 9.5 h -1.875 v -7.32813 l -2.25,0.70313 v -1.46875 l 3.92188,-1.40625 z m 3.24051,8.59375 q 0,-0.42188 0.29688,-0.6875 0.29687,-0.28125 0.76562,-0.28125 0.48438,0 0.76563,0.28125 0.29687,0.26562 0.29687,0.6875 0,0.42187 -0.29687,0.70312 -0.28125,0.28125 -0.76563,0.28125 -0.46875,0 -0.76562,-0.28125 -0.29688,-0.28125 -0.29688,-0.70312 z"
       fill-rule="nonzero"
       id="path33" />
    <path
       fill="#000000"
       d="m 194.95761,283.513 v 3.46875 q -0.1875,0.26562 -0.57813,0.59375 -0.375,0.3125 -1.04687,0.54687 -0.67188,0.23438 -1.73438,0.23438 -0.85937,0 -1.59375,-0.29688 -0.71875,-0.29687 -1.25,-0.875 -0.53125,-0.59375 -0.82812,-1.42187 -0.28125,-0.84375 -0.28125,-1.90625 v -0.73438 q 0,-1.0625 0.25,-1.89062 0.25,-0.82813 0.73437,-1.40625 0.48438,-0.59375 1.1875,-0.89063 0.71875,-0.3125 1.64063,-0.3125 1.07812,0 1.8125,0.375 0.73437,0.375 1.14062,1.03125 0.42188,0.65625 0.54688,1.5 h -1.26563 q -0.0781,-0.51562 -0.32812,-0.9375 -0.25,-0.42187 -0.71875,-0.67187 -0.45313,-0.26563 -1.1875,-0.26563 -0.65625,0 -1.14063,0.25 -0.48437,0.23438 -0.79687,0.6875 -0.3125,0.4375 -0.46875,1.07813 -0.14063,0.64062 -0.14063,1.4375 v 0.75 q 0,0.82812 0.1875,1.46875 0.1875,0.64062 0.54688,1.09375 0.35937,0.45312 0.85937,0.6875 0.5,0.23437 1.09375,0.23437 0.67188,0 1.09375,-0.10937 0.42188,-0.125 0.65625,-0.28125 0.23438,-0.15625 0.35938,-0.29688 v -2.125 h -2.20313 V 283.513 Z m 1.56287,1.28125 V 284.638 q 0,-0.76563 0.21875,-1.40625 0.23437,-0.65625 0.64062,-1.14063 0.42188,-0.48437 1.01563,-0.75 0.59375,-0.28125 1.32812,-0.28125 0.73438,0 1.32813,0.28125 0.60937,0.26563 1.01562,0.75 0.42188,0.48438 0.64063,1.14063 0.23437,0.64062 0.23437,1.40625 v 0.15625 q 0,0.75 -0.23437,1.40625 -0.21875,0.65625 -0.64063,1.14062 -0.40625,0.48438 -1,0.75 -0.59375,0.26563 -1.32812,0.26563 -0.75,0 -1.34375,-0.26563 -0.59375,-0.26562 -1.01563,-0.75 -0.40625,-0.48437 -0.64062,-1.14062 -0.21875,-0.65625 -0.21875,-1.40625 z m 1.20312,-0.15625 v 0.15625 q 0,0.51562 0.125,0.98437 0.125,0.46875 0.375,0.82813 0.25,0.35937 0.625,0.5625 0.39063,0.20312 0.89063,0.20312 0.48437,0 0.85937,-0.20312 0.375,-0.20313 0.625,-0.5625 0.25,-0.35938 0.375,-0.82813 0.125,-0.46875 0.125,-0.98437 V 284.638 q 0,-0.51563 -0.125,-0.98438 -0.125,-0.46875 -0.375,-0.82812 -0.25,-0.35938 -0.625,-0.5625 -0.375,-0.21875 -0.875,-0.21875 -0.5,0 -0.875,0.21875 -0.375,0.20312 -0.625,0.5625 -0.25,0.35937 -0.375,0.82812 -0.125,0.46875 -0.125,0.98438 z m 6.39807,0.15625 V 284.638 q 0,-0.76563 0.21875,-1.40625 0.23438,-0.65625 0.64063,-1.14063 0.42187,-0.48437 1.01562,-0.75 0.59375,-0.28125 1.32813,-0.28125 0.73437,0 1.32812,0.28125 0.60938,0.26563 1.01563,0.75 0.42187,0.48438 0.64062,1.14063 0.23438,0.64062 0.23438,1.40625 v 0.15625 q 0,0.75 -0.23438,1.40625 -0.21875,0.65625 -0.64062,1.14062 -0.40625,0.48438 -1,0.75 -0.59375,0.26563 -1.32813,0.26563 -0.75,0 -1.34375,-0.26563 -0.59375,-0.26562 -1.01562,-0.75 -0.40625,-0.48437 -0.64063,-1.14062 -0.21875,-0.65625 -0.21875,-1.40625 z m 1.20313,-0.15625 v 0.15625 q 0,0.51562 0.125,0.98437 0.125,0.46875 0.375,0.82813 0.25,0.35937 0.625,0.5625 0.39062,0.20312 0.89062,0.20312 0.48438,0 0.85938,-0.20312 0.375,-0.20313 0.625,-0.5625 0.25,-0.35938 0.375,-0.82813 0.125,-0.46875 0.125,-0.98437 V 284.638 q 0,-0.51563 -0.125,-0.98438 -0.125,-0.46875 -0.375,-0.82812 -0.25,-0.35938 -0.625,-0.5625 -0.375,-0.21875 -0.875,-0.21875 -0.5,0 -0.875,0.21875 -0.375,0.20312 -0.625,0.5625 -0.25,0.35937 -0.375,0.82812 -0.125,0.46875 -0.125,0.98438 z m 11.28869,-3.45313 h 1.09375 v 6.89063 q 0,0.9375 -0.39062,1.59375 -0.375,0.65625 -1.04688,1 -0.67187,0.34375 -1.54687,0.34375 -0.35938,0 -0.85938,-0.125 -0.48437,-0.10938 -0.96875,-0.375 -0.46875,-0.26563 -0.78125,-0.71875 l 0.625,-0.71875 q 0.45313,0.53125 0.9375,0.73437 0.48438,0.21875 0.95313,0.21875 0.57812,0 0.98437,-0.21875 0.42188,-0.21875 0.65625,-0.64062 0.23438,-0.42188 0.23438,-1.03125 v -5.40625 z m -4.85937,3.60938 v -0.14063 q 0,-0.8125 0.1875,-1.46875 0.20312,-0.65625 0.5625,-1.125 0.35937,-0.48437 0.875,-0.73437 0.51562,-0.26563 1.15625,-0.26563 0.67187,0 1.15625,0.23438 0.5,0.23437 0.84375,0.67187 0.35937,0.4375 0.5625,1.0625 0.20312,0.60938 0.28125,1.39063 v 0.59375 q -0.0781,0.78125 -0.28125,1.40625 -0.20313,0.60937 -0.5625,1.04687 -0.34375,0.4375 -0.84375,0.67188 -0.5,0.21875 -1.17188,0.21875 -0.625,0 -1.14062,-0.26563 -0.5,-0.26562 -0.875,-0.73437 -0.35938,-0.48438 -0.5625,-1.14063 -0.1875,-0.65625 -0.1875,-1.42187 z m 1.20312,-0.14063 v 0.14063 q 0,0.51562 0.10938,0.98437 0.10937,0.46875 0.32812,0.82813 0.23438,0.34375 0.57813,0.54687 0.35937,0.1875 0.84375,0.1875 0.59375,0 0.98437,-0.25 0.39063,-0.26562 0.625,-0.67187 0.23438,-0.42188 0.35938,-0.90625 v -1.5625 q -0.0625,-0.35938 -0.21875,-0.6875 -0.14063,-0.34375 -0.375,-0.60938 -0.23438,-0.26562 -0.57813,-0.42187 -0.32812,-0.15625 -0.78125,-0.15625 -0.5,0 -0.85937,0.20312 -0.34375,0.20313 -0.57813,0.5625 -0.21875,0.35938 -0.32812,0.82813 -0.10938,0.45312 -0.10938,0.98437 z m 7.87468,-6.42187 v 10 h -1.20312 v -10 z m 4.86592,10.125 q -0.73437,0 -1.34375,-0.25 -0.59375,-0.25 -1.01562,-0.70313 -0.42188,-0.45312 -0.65625,-1.07812 -0.21875,-0.625 -0.21875,-1.375 v -0.26563 q 0,-0.85937 0.25,-1.53125 0.25,-0.67187 0.6875,-1.14062 0.4375,-0.46875 0.98437,-0.70313 0.5625,-0.25 1.15625,-0.25 0.75,0 1.29688,0.26563 0.54687,0.25 0.89062,0.71875 0.35938,0.46875 0.53125,1.09375 0.17188,0.625 0.17188,1.375 v 0.53125 h -5.25 v -0.98438 h 4.04687 v -0.0781 q -0.0312,-0.46875 -0.20312,-0.90625 -0.15625,-0.45313 -0.51563,-0.73438 -0.35937,-0.29687 -0.96875,-0.29687 -0.40625,0 -0.76562,0.17187 -0.34375,0.17188 -0.59375,0.51563 -0.23438,0.34375 -0.375,0.82812 -0.14063,0.48438 -0.14063,1.125 v 0.26563 q 0,0.51562 0.14063,0.95312 0.14062,0.4375 0.40625,0.76563 0.28125,0.32812 0.65625,0.51562 0.39062,0.1875 0.89062,0.1875 0.64063,0 1.07813,-0.25 0.4375,-0.26562 0.78125,-0.70312 l 0.71875,0.57812 q -0.21875,0.34375 -0.57813,0.65625 -0.34375,0.3125 -0.85937,0.51563 -0.51563,0.1875 -1.20313,0.1875 z m 12.68605,-2.51563 q 0,-0.34375 -0.10937,-0.59375 -0.0937,-0.25 -0.34375,-0.45312 -0.25,-0.21875 -0.70313,-0.40625 -0.4375,-0.1875 -1.10937,-0.39063 -0.6875,-0.20312 -1.26563,-0.45312 -0.5625,-0.26563 -0.96875,-0.59375 -0.40625,-0.32813 -0.625,-0.75 -0.20312,-0.4375 -0.20312,-1 0,-0.54688 0.21875,-1.01563 0.23437,-0.46875 0.65625,-0.8125 0.4375,-0.35937 1.01562,-0.54687 0.59375,-0.20313 1.32813,-0.20313 1.0625,0 1.8125,0.40625 0.75,0.40625 1.14062,1.0625 0.39063,0.65625 0.39063,1.40625 h -1.25 q 0,-0.54687 -0.23438,-0.95312 -0.21875,-0.42188 -0.6875,-0.65625 -0.46875,-0.23438 -1.17187,-0.23438 -0.67188,0 -1.10938,0.20313 -0.4375,0.20312 -0.65625,0.54687 -0.20312,0.34375 -0.20312,0.78125 0,0.3125 0.125,0.5625 0.14062,0.23438 0.40625,0.4375 0.26562,0.20313 0.6875,0.39063 0.42187,0.17187 1,0.32812 0.8125,0.23438 1.39062,0.51563 0.59375,0.28125 0.96875,0.625 0.39063,0.34375 0.5625,0.78125 0.1875,0.4375 0.1875,1 0,0.57812 -0.23437,1.04687 -0.23438,0.46875 -0.67188,0.79688 -0.42187,0.32812 -1.03125,0.51562 -0.60937,0.17188 -1.35937,0.17188 -0.65625,0 -1.29688,-0.17188 -0.625,-0.1875 -1.15625,-0.54687 -0.51562,-0.375 -0.82812,-0.90625 -0.29688,-0.53125 -0.29688,-1.25 h 1.25 q 0,0.48437 0.1875,0.84375 0.1875,0.34375 0.51563,0.57812 0.32812,0.21875 0.75,0.32813 0.42187,0.10937 0.875,0.10937 0.65625,0 1.10937,-0.17187 0.45313,-0.1875 0.6875,-0.53125 0.25,-0.34375 0.25,-0.79688 z m 3.88233,-7.60937 v 10 h -1.20313 v -10 z m -0.29688,6.21875 -0.5,-0.0312 q 0.0156,-0.71875 0.21875,-1.32813 0.20313,-0.625 0.57813,-1.07812 0.39062,-0.45313 0.90625,-0.70313 0.53125,-0.25 1.17187,-0.25 0.51563,0 0.92188,0.14063 0.42187,0.14062 0.71875,0.45312 0.29687,0.29688 0.45312,0.78125 0.15625,0.48438 0.15625,1.1875 v 4.60938 h -1.20312 v -4.625 q 0,-0.5625 -0.17188,-0.89063 -0.15625,-0.32812 -0.46875,-0.48437 -0.3125,-0.15625 -0.76562,-0.15625 -0.45313,0 -0.82813,0.1875 -0.35937,0.1875 -0.625,0.53125 -0.26562,0.32812 -0.42187,0.75 -0.14063,0.42187 -0.14063,0.90625 z m 9.35651,3.90625 q -0.73438,0 -1.34375,-0.25 -0.59375,-0.25 -1.01563,-0.70313 -0.42187,-0.45312 -0.65625,-1.07812 -0.21875,-0.625 -0.21875,-1.375 v -0.26563 q 0,-0.85937 0.25,-1.53125 0.25,-0.67187 0.6875,-1.14062 0.4375,-0.46875 0.98438,-0.70313 0.5625,-0.25 1.15625,-0.25 0.75,0 1.29687,0.26563 0.54688,0.25 0.89063,0.71875 0.35937,0.46875 0.53125,1.09375 0.17187,0.625 0.17187,1.375 v 0.53125 h -5.25 v -0.98438 h 4.04688 v -0.0781 q -0.0312,-0.46875 -0.20313,-0.90625 -0.15625,-0.45313 -0.51562,-0.73438 -0.35938,-0.29687 -0.96875,-0.29687 -0.40625,0 -0.76563,0.17187 -0.34375,0.17188 -0.59375,0.51563 -0.23437,0.34375 -0.375,0.82812 -0.14062,0.48438 -0.14062,1.125 v 0.26563 q 0,0.51562 0.14062,0.95312 0.14063,0.4375 0.40625,0.76563 0.28125,0.32812 0.65625,0.51562 0.39063,0.1875 0.89063,0.1875 0.64062,0 1.07812,-0.25 0.4375,-0.26562 0.78125,-0.70312 l 0.71875,0.57812 q -0.21875,0.34375 -0.57812,0.65625 -0.34375,0.3125 -0.85938,0.51563 -0.51562,0.1875 -1.20312,0.1875 z m 7.06755,0 q -0.73438,0 -1.34375,-0.25 -0.59375,-0.25 -1.01563,-0.70313 -0.42187,-0.45312 -0.65625,-1.07812 -0.21875,-0.625 -0.21875,-1.375 v -0.26563 q 0,-0.85937 0.25,-1.53125 0.25,-0.67187 0.6875,-1.14062 0.4375,-0.46875 0.98438,-0.70313 0.5625,-0.25 1.15625,-0.25 0.75,0 1.29687,0.26563 0.54688,0.25 0.89063,0.71875 0.35937,0.46875 0.53125,1.09375 0.17187,0.625 0.17187,1.375 v 0.53125 h -5.25 v -0.98438 h 4.04688 v -0.0781 q -0.0312,-0.46875 -0.20313,-0.90625 -0.15625,-0.45313 -0.51562,-0.73438 -0.35938,-0.29687 -0.96875,-0.29687 -0.40625,0 -0.76563,0.17187 -0.34375,0.17188 -0.59375,0.51563 -0.23437,0.34375 -0.375,0.82812 -0.14062,0.48438 -0.14062,1.125 v 0.26563 q 0,0.51562 0.14062,0.95312 0.14063,0.4375 0.40625,0.76563 0.28125,0.32812 0.65625,0.51562 0.39063,0.1875 0.89063,0.1875 0.64062,0 1.07812,-0.25 0.4375,-0.26562 0.78125,-0.70312 l 0.71875,0.57812 q -0.21875,0.34375 -0.57812,0.65625 -0.34375,0.3125 -0.85938,0.51563 -0.51562,0.1875 -1.20312,0.1875 z m 7.08316,-7.17188 v 0.92188 h -3.79687 v -0.92188 z m -2.51562,-1.70312 h 1.20312 v 7 q 0,0.35937 0.10938,0.54687 0.10937,0.1875 0.28125,0.25 0.1875,0.0469 0.39062,0.0469 0.14063,0 0.3125,-0.0312 0.17188,-0.0312 0.25,-0.0469 v 0.98438 q -0.14062,0.0469 -0.375,0.0781 -0.21875,0.0469 -0.54687,0.0469 -0.4375,0 -0.8125,-0.17188 -0.375,-0.17187 -0.59375,-0.57812 -0.21875,-0.42188 -0.21875,-1.125 z m 8.03216,6.875 q 0,-0.25 -0.10937,-0.46875 -0.10938,-0.23438 -0.46875,-0.42188 -0.34375,-0.1875 -1.04688,-0.3125 -0.57812,-0.125 -1.04687,-0.29687 -0.46875,-0.17188 -0.8125,-0.40625 -0.32813,-0.25 -0.5,-0.5625 -0.17188,-0.32813 -0.17188,-0.76563 0,-0.42187 0.1875,-0.79687 0.1875,-0.375 0.51563,-0.65625 0.34375,-0.28125 0.82812,-0.4375 0.48438,-0.17188 1.07813,-0.17188 0.84375,0 1.4375,0.29688 0.60937,0.29687 0.92187,0.79687 0.32813,0.5 0.32813,1.10938 h -1.20313 q 0,-0.29688 -0.1875,-0.5625 -0.17187,-0.28125 -0.5,-0.46875 -0.32812,-0.1875 -0.79687,-0.1875 -0.5,0 -0.8125,0.15625 -0.3125,0.15625 -0.45313,0.39062 -0.14062,0.23438 -0.14062,0.5 0,0.1875 0.0625,0.34375 0.0781,0.15625 0.25,0.28125 0.1875,0.125 0.5,0.23438 0.32812,0.10937 0.8125,0.21875 0.875,0.20312 1.42187,0.48437 0.5625,0.26563 0.82813,0.65625 0.28125,0.39063 0.28125,0.96875 0,0.45313 -0.1875,0.84375 -0.1875,0.375 -0.5625,0.65625 -0.35938,0.28125 -0.85938,0.4375 -0.48437,0.14063 -1.10937,0.14063 -0.92188,0 -1.57813,-0.32813 -0.64062,-0.32812 -0.96875,-0.85937 -0.32812,-0.53125 -0.32812,-1.10938 h 1.20312 q 0.0312,0.5 0.28125,0.79688 0.26563,0.28125 0.64063,0.40625 0.375,0.10937 0.75,0.10937 0.5,0 0.82812,-0.125 0.34375,-0.14062 0.51563,-0.35937 0.17187,-0.23438 0.17187,-0.53125 z m 7.52857,-7.59375 v 9.46875 h -1.26563 V 278.763 Z m 3.96875,4.25 v 1.03125 h -4.25 V 283.013 Z m 0.64062,-4.25 v 1.01562 h -4.89062 V 278.763 Z m 2.61691,2.42187 v 7.04688 h -1.20312 v -7.04688 z m -1.29687,-1.85937 q 0,-0.29688 0.17187,-0.5 0.1875,-0.20313 0.54688,-0.20313 0.34375,0 0.51562,0.20313 0.1875,0.20312 0.1875,0.5 0,0.28125 -0.1875,0.48437 -0.17187,0.1875 -0.51562,0.1875 -0.35938,0 -0.54688,-0.1875 -0.17187,-0.20312 -0.17187,-0.48437 z m 4.53781,-1.09375 v 10 h -1.20312 v -10 z m 4.86591,10.125 q -0.73438,0 -1.34375,-0.25 -0.59375,-0.25 -1.01563,-0.70313 -0.42187,-0.45312 -0.65625,-1.07812 -0.21875,-0.625 -0.21875,-1.375 v -0.26563 q 0,-0.85937 0.25,-1.53125 0.25,-0.67187 0.6875,-1.14062 0.4375,-0.46875 0.98438,-0.70313 0.5625,-0.25 1.15625,-0.25 0.75,0 1.29687,0.26563 0.54688,0.25 0.89063,0.71875 0.35937,0.46875 0.53125,1.09375 0.17187,0.625 0.17187,1.375 v 0.53125 h -5.25 v -0.98438 h 4.04688 v -0.0781 q -0.0312,-0.46875 -0.20313,-0.90625 -0.15625,-0.45313 -0.51562,-0.73438 -0.35938,-0.29687 -0.96875,-0.29687 -0.40625,0 -0.76563,0.17187 -0.34375,0.17188 -0.59375,0.51563 -0.23437,0.34375 -0.375,0.82812 -0.14062,0.48438 -0.14062,1.125 v 0.26563 q 0,0.51562 0.14062,0.95312 0.14063,0.4375 0.40625,0.76563 0.28125,0.32812 0.65625,0.51562 0.39063,0.1875 0.89063,0.1875 0.64062,0 1.07812,-0.25 0.4375,-0.26562 0.78125,-0.70312 l 0.71875,0.57812 q -0.21875,0.34375 -0.57812,0.65625 -0.34375,0.3125 -0.85938,0.51563 -0.51562,0.1875 -1.20312,0.1875 z m 8.23944,-2 q 0,-0.25 -0.10938,-0.46875 -0.10937,-0.23438 -0.46875,-0.42188 -0.34375,-0.1875 -1.04687,-0.3125 -0.57813,-0.125 -1.04688,-0.29687 -0.46875,-0.17188 -0.8125,-0.40625 -0.32812,-0.25 -0.5,-0.5625 -0.17187,-0.32813 -0.17187,-0.76563 0,-0.42187 0.1875,-0.79687 0.1875,-0.375 0.51562,-0.65625 0.34375,-0.28125 0.82813,-0.4375 0.48437,-0.17188 1.07812,-0.17188 0.84375,0 1.4375,0.29688 0.60938,0.29687 0.92188,0.79687 0.32812,0.5 0.32812,1.10938 h -1.20312 q 0,-0.29688 -0.1875,-0.5625 -0.17188,-0.28125 -0.5,-0.46875 -0.32813,-0.1875 -0.79688,-0.1875 -0.5,0 -0.8125,0.15625 -0.3125,0.15625 -0.45312,0.39062 -0.14063,0.23438 -0.14063,0.5 0,0.1875 0.0625,0.34375 0.0781,0.15625 0.25,0.28125 0.1875,0.125 0.5,0.23438 0.32813,0.10937 0.8125,0.21875 0.875,0.20312 1.42188,0.48437 0.5625,0.26563 0.82812,0.65625 0.28125,0.39063 0.28125,0.96875 0,0.45313 -0.1875,0.84375 -0.1875,0.375 -0.5625,0.65625 -0.35937,0.28125 -0.85937,0.4375 -0.48438,0.14063 -1.10938,0.14063 -0.92187,0 -1.57812,-0.32813 -0.64063,-0.32812 -0.96875,-0.85937 -0.32813,-0.53125 -0.32813,-1.10938 h 1.20313 q 0.0312,0.5 0.28125,0.79688 0.26562,0.28125 0.64062,0.40625 0.375,0.10937 0.75,0.10937 0.5,0 0.82813,-0.125 0.34375,-0.14062 0.51562,-0.35937 0.17188,-0.23438 0.17188,-0.53125 z m 11.32544,-0.51563 q 0,-0.34375 -0.10938,-0.59375 -0.0937,-0.25 -0.34375,-0.45312 -0.25,-0.21875 -0.70312,-0.40625 -0.4375,-0.1875 -1.10938,-0.39063 -0.6875,-0.20312 -1.26562,-0.45312 -0.5625,-0.26563 -0.96875,-0.59375 -0.40625,-0.32813 -0.625,-0.75 -0.20313,-0.4375 -0.20313,-1 0,-0.54688 0.21875,-1.01563 0.23438,-0.46875 0.65625,-0.8125 0.4375,-0.35937 1.01563,-0.54687 0.59375,-0.20313 1.32812,-0.20313 1.0625,0 1.8125,0.40625 0.75,0.40625 1.14063,1.0625 0.39062,0.65625 0.39062,1.40625 h -1.25 q 0,-0.54687 -0.23437,-0.95312 -0.21875,-0.42188 -0.6875,-0.65625 -0.46875,-0.23438 -1.17188,-0.23438 -0.67187,0 -1.10937,0.20313 -0.4375,0.20312 -0.65625,0.54687 -0.20313,0.34375 -0.20313,0.78125 0,0.3125 0.125,0.5625 0.14063,0.23438 0.40625,0.4375 0.26563,0.20313 0.6875,0.39063 0.42188,0.17187 1,0.32812 0.8125,0.23438 1.39063,0.51563 0.59375,0.28125 0.96875,0.625 0.39062,0.34375 0.5625,0.78125 0.1875,0.4375 0.1875,1 0,0.57812 -0.23438,1.04687 -0.23437,0.46875 -0.67187,0.79688 -0.42188,0.32812 -1.03125,0.51562 -0.60938,0.17188 -1.35938,0.17188 -0.65625,0 -1.29687,-0.17188 -0.625,-0.1875 -1.15625,-0.54687 -0.51563,-0.375 -0.82813,-0.90625 -0.29687,-0.53125 -0.29687,-1.25 h 1.25 q 0,0.48437 0.1875,0.84375 0.1875,0.34375 0.51562,0.57812 0.32813,0.21875 0.75,0.32813 0.42188,0.10937 0.875,0.10937 0.65625,0 1.10938,-0.17187 0.45312,-0.1875 0.6875,-0.53125 0.25,-0.34375 0.25,-0.79688 z m 5.6167,-4.65625 v 0.92188 h -3.79688 v -0.92188 z m -2.51563,-1.70312 h 1.20313 v 7 q 0,0.35937 0.10937,0.54687 0.10938,0.1875 0.28125,0.25 0.1875,0.0469 0.39063,0.0469 0.14062,0 0.3125,-0.0312 0.17187,-0.0312 0.25,-0.0469 v 0.98438 q -0.14063,0.0469 -0.375,0.0781 -0.21875,0.0469 -0.54688,0.0469 -0.4375,0 -0.8125,-0.17188 -0.375,-0.17187 -0.59375,-0.57812 -0.21875,-0.42188 -0.21875,-1.125 z m 5.14154,2.8125 v 5.9375 h -1.20312 v -7.04688 h 1.17187 z m 2.20313,-1.14063 -0.0156,1.10938 q -0.14062,-0.0312 -0.28125,-0.0312 -0.14062,-0.0156 -0.29687,-0.0156 -0.42188,0 -0.75,0.14063 -0.3125,0.125 -0.53125,0.35937 -0.21875,0.23438 -0.34375,0.5625 -0.125,0.3125 -0.17188,0.70313 l -0.34375,0.1875 q 0,-0.64063 0.125,-1.1875 0.14063,-0.5625 0.40625,-1 0.26563,-0.4375 0.67188,-0.67188 0.42187,-0.25 0.98437,-0.25 0.14063,0 0.29688,0.0312 0.17187,0.0312 0.25,0.0625 z m 5.40707,5.45313 v -5.42188 h 1.21875 v 7.04688 h -1.15625 z m 0.23437,-1.48438 0.5,-0.0156 q 0,0.70312 -0.15625,1.29687 -0.14062,0.59375 -0.46875,1.03125 -0.3125,0.4375 -0.84375,0.6875 -0.53125,0.23438 -1.28125,0.23438 -0.51562,0 -0.95312,-0.14063 -0.42188,-0.15625 -0.73438,-0.46875 -0.29687,-0.3125 -0.46875,-0.8125 -0.15625,-0.5 -0.15625,-1.20312 v -4.54688 h 1.20313 v 4.5625 q 0,0.46875 0.10937,0.78125 0.10938,0.3125 0.29688,0.5 0.1875,0.17188 0.40625,0.25 0.23437,0.0625 0.48437,0.0625 0.76563,0 1.21875,-0.29687 0.45313,-0.29688 0.64063,-0.79688 0.20312,-0.51562 0.20312,-1.125 z m 5.62867,2.25 q 0.4375,0 0.79687,-0.17187 0.35938,-0.17188 0.59375,-0.48438 0.23438,-0.3125 0.26563,-0.70312 h 1.15625 q -0.0312,0.625 -0.42188,1.15625 -0.39062,0.53125 -1.01562,0.85937 -0.625,0.32813 -1.375,0.32813 -0.79688,0 -1.39063,-0.26563 -0.57812,-0.28125 -0.96875,-0.76562 -0.39062,-0.5 -0.57812,-1.125 -0.1875,-0.64063 -0.1875,-1.35938 v -0.26562 q 0,-0.70313 0.1875,-1.34375 0.1875,-0.64063 0.57812,-1.125 0.39063,-0.48438 0.96875,-0.76563 0.59375,-0.28125 1.39063,-0.28125 0.82812,0 1.4375,0.34375 0.625,0.32813 0.98437,0.90625 0.35938,0.57813 0.39063,1.29688 h -1.15625 q -0.0312,-0.4375 -0.25,-0.78125 -0.20313,-0.35938 -0.5625,-0.5625 -0.35938,-0.21875 -0.84375,-0.21875 -0.54688,0 -0.92188,0.21875 -0.375,0.21875 -0.59375,0.59375 -0.21875,0.35937 -0.3125,0.8125 -0.0937,0.4375 -0.0937,0.90625 v 0.26562 q 0,0.46875 0.0781,0.92188 0.0937,0.4375 0.3125,0.8125 0.21875,0.35937 0.59375,0.57812 0.375,0.21875 0.9375,0.21875 z m 7.10144,-6.1875 v 0.92188 h -3.79688 v -0.92188 z m -2.51563,-1.70312 h 1.20313 v 7 q 0,0.35937 0.10937,0.54687 0.10938,0.1875 0.28125,0.25 0.1875,0.0469 0.39063,0.0469 0.14062,0 0.3125,-0.0312 0.17187,-0.0312 0.25,-0.0469 v 0.98438 q -0.14063,0.0469 -0.375,0.0781 -0.21875,0.0469 -0.54688,0.0469 -0.4375,0 -0.8125,-0.17188 -0.375,-0.17187 -0.59375,-0.57812 -0.21875,-0.42188 -0.21875,-1.125 z m 8.23526,7.125 v -5.42188 h 1.21875 v 7.04688 h -1.15625 z m 0.23438,-1.48438 0.5,-0.0156 q 0,0.70312 -0.15625,1.29687 -0.14063,0.59375 -0.46875,1.03125 -0.3125,0.4375 -0.84375,0.6875 -0.53125,0.23438 -1.28125,0.23438 -0.51563,0 -0.95313,-0.14063 -0.42187,-0.15625 -0.73437,-0.46875 -0.29688,-0.3125 -0.46875,-0.8125 -0.15625,-0.5 -0.15625,-1.20312 v -4.54688 h 1.20312 v 4.5625 q 0,0.46875 0.10938,0.78125 0.10937,0.3125 0.29687,0.5 0.1875,0.17188 0.40625,0.25 0.23438,0.0625 0.48438,0.0625 0.76562,0 1.21875,-0.29687 0.45312,-0.29688 0.64062,-0.79688 0.20313,-0.51562 0.20313,-1.125 z m 4.01928,-2.82812 v 5.9375 h -1.20312 v -7.04688 h 1.17187 z m 2.20313,-1.14063 -0.0156,1.10938 q -0.14062,-0.0312 -0.28125,-0.0312 -0.14062,-0.0156 -0.29687,-0.0156 -0.42188,0 -0.75,0.14063 -0.3125,0.125 -0.53125,0.35937 -0.21875,0.23438 -0.34375,0.5625 -0.125,0.3125 -0.17188,0.70313 l -0.34375,0.1875 q 0,-0.64063 0.125,-1.1875 0.14063,-0.5625 0.40625,-1 0.26563,-0.4375 0.67188,-0.67188 0.42187,-0.25 0.98437,-0.25 0.14063,0 0.29688,0.0312 0.17187,0.0312 0.25,0.0625 z m 3.90839,7.20313 q -0.73438,0 -1.34375,-0.25 -0.59375,-0.25 -1.01563,-0.70313 -0.42187,-0.45312 -0.65625,-1.07812 -0.21875,-0.625 -0.21875,-1.375 v -0.26563 q 0,-0.85937 0.25,-1.53125 0.25,-0.67187 0.6875,-1.14062 0.4375,-0.46875 0.98438,-0.70313 0.5625,-0.25 1.15625,-0.25 0.75,0 1.29687,0.26563 0.54688,0.25 0.89063,0.71875 0.35937,0.46875 0.53125,1.09375 0.17187,0.625 0.17187,1.375 v 0.53125 h -5.25 v -0.98438 h 4.04688 v -0.0781 q -0.0312,-0.46875 -0.20313,-0.90625 -0.15625,-0.45313 -0.51562,-0.73438 -0.35938,-0.29687 -0.96875,-0.29687 -0.40625,0 -0.76563,0.17187 -0.34375,0.17188 -0.59375,0.51563 -0.23437,0.34375 -0.375,0.82812 -0.14062,0.48438 -0.14062,1.125 v 0.26563 q 0,0.51562 0.14062,0.95312 0.14063,0.4375 0.40625,0.76563 0.28125,0.32812 0.65625,0.51562 0.39063,0.1875 0.89063,0.1875 0.64062,0 1.07812,-0.25 0.4375,-0.26562 0.78125,-0.70312 l 0.71875,0.57812 q -0.21875,0.34375 -0.57812,0.65625 -0.34375,0.3125 -0.85938,0.51563 -0.51562,0.1875 -1.20312,0.1875 z m 14.92041,-5.15625 v 0.59375 q 0,1.0625 -0.26563,1.92187 -0.26562,0.84375 -0.76562,1.4375 -0.5,0.57813 -1.20313,0.89063 -0.70312,0.3125 -1.5625,0.3125 -0.84375,0 -1.54687,-0.3125 -0.6875,-0.3125 -1.20313,-0.89063 -0.51562,-0.59375 -0.79687,-1.4375 -0.26563,-0.85937 -0.26563,-1.92187 v -0.59375 q 0,-1.07813 0.26563,-1.92188 0.28125,-0.84375 0.78125,-1.4375 0.51562,-0.59375 1.20312,-0.90625 0.70313,-0.3125 1.54688,-0.3125 0.875,0 1.5625,0.3125 0.70312,0.3125 1.20312,0.90625 0.51563,0.59375 0.78125,1.4375 0.26563,0.84375 0.26563,1.92188 z m -1.23438,0.59375 v -0.60938 q 0,-0.84375 -0.17187,-1.5 -0.17188,-0.65625 -0.51563,-1.09375 -0.32812,-0.4375 -0.8125,-0.65625 -0.46875,-0.23437 -1.07812,-0.23437 -0.57813,0 -1.0625,0.23437 -0.46875,0.21875 -0.8125,0.65625 -0.32813,0.4375 -0.51563,1.09375 -0.17187,0.65625 -0.17187,1.5 v 0.60938 q 0,0.85937 0.17187,1.51562 0.1875,0.64063 0.53125,1.09375 0.34375,0.4375 0.8125,0.67188 0.48438,0.21875 1.0625,0.21875 0.60938,0 1.07813,-0.21875 0.48437,-0.23438 0.8125,-0.67188 0.32812,-0.45312 0.5,-1.09375 0.17187,-0.65625 0.17187,-1.51562 z m 5.07584,3.34375 1.92187,-5.95313 h 1.23438 l -2.53125,7.04688 h -0.8125 z m -1.60938,-5.95313 1.98438,6 0.14062,1.04688 h -0.8125 l -2.54687,-7.04688 z m 8.76181,7.17188 q -0.73437,0 -1.34375,-0.25 -0.59375,-0.25 -1.01562,-0.70313 -0.42188,-0.45312 -0.65625,-1.07812 -0.21875,-0.625 -0.21875,-1.375 v -0.26563 q 0,-0.85937 0.25,-1.53125 0.25,-0.67187 0.6875,-1.14062 0.4375,-0.46875 0.98437,-0.70313 0.5625,-0.25 1.15625,-0.25 0.75,0 1.29688,0.26563 0.54687,0.25 0.89062,0.71875 0.35938,0.46875 0.53125,1.09375 0.17188,0.625 0.17188,1.375 v 0.53125 h -5.25 v -0.98438 h 4.04687 v -0.0781 q -0.0312,-0.46875 -0.20312,-0.90625 -0.15625,-0.45313 -0.51563,-0.73438 -0.35937,-0.29687 -0.96875,-0.29687 -0.40625,0 -0.76562,0.17187 -0.34375,0.17188 -0.59375,0.51563 -0.23438,0.34375 -0.375,0.82812 -0.14063,0.48438 -0.14063,1.125 v 0.26563 q 0,0.51562 0.14063,0.95312 0.14062,0.4375 0.40625,0.76563 0.28125,0.32812 0.65625,0.51562 0.39062,0.1875 0.89062,0.1875 0.64063,0 1.07813,-0.25 0.4375,-0.26562 0.78125,-0.70312 l 0.71875,0.57812 q -0.21875,0.34375 -0.57813,0.65625 -0.34375,0.3125 -0.85937,0.51563 -0.51563,0.1875 -1.20313,0.1875 z m 5.34879,-6.0625 v 5.9375 h -1.20313 v -7.04688 h 1.17188 z m 2.20312,-1.14063 -0.0156,1.10938 q -0.14063,-0.0312 -0.28125,-0.0312 -0.14063,-0.0156 -0.29688,-0.0156 -0.42187,0 -0.75,0.14063 -0.3125,0.125 -0.53125,0.35937 -0.21875,0.23438 -0.34375,0.5625 -0.125,0.3125 -0.17187,0.70313 l -0.34375,0.1875 q 0,-0.64063 0.125,-1.1875 0.14062,-0.5625 0.40625,-1 0.26562,-0.4375 0.67187,-0.67188 0.42188,-0.25 0.98438,-0.25 0.14062,0 0.29687,0.0312 0.17188,0.0312 0.25,0.0625 z m 3.36804,5.98438 1.92188,-5.95313 h 1.23437 l -2.53125,7.04688 h -0.8125 z m -1.60937,-5.95313 1.98437,6 0.14063,1.04688 h -0.8125 l -2.54688,-7.04688 z m 7.22143,0 v 7.04688 h -1.20312 v -7.04688 z m -1.29687,-1.85937 q 0,-0.29688 0.17187,-0.5 0.1875,-0.20313 0.54688,-0.20313 0.34375,0 0.51562,0.20313 0.1875,0.20312 0.1875,0.5 0,0.28125 -0.1875,0.48437 -0.17187,0.1875 -0.51562,0.1875 -0.35938,0 -0.54688,-0.1875 -0.17187,-0.20312 -0.17187,-0.48437 z m 6.16278,9.03125 q -0.73437,0 -1.34375,-0.25 -0.59375,-0.25 -1.01562,-0.70313 -0.42188,-0.45312 -0.65625,-1.07812 -0.21875,-0.625 -0.21875,-1.375 v -0.26563 q 0,-0.85937 0.25,-1.53125 0.25,-0.67187 0.6875,-1.14062 0.4375,-0.46875 0.98437,-0.70313 0.5625,-0.25 1.15625,-0.25 0.75,0 1.29688,0.26563 0.54687,0.25 0.89062,0.71875 0.35938,0.46875 0.53125,1.09375 0.17188,0.625 0.17188,1.375 v 0.53125 h -5.25 v -0.98438 h 4.04687 v -0.0781 q -0.0312,-0.46875 -0.20312,-0.90625 -0.15625,-0.45313 -0.51563,-0.73438 -0.35937,-0.29687 -0.96875,-0.29687 -0.40625,0 -0.76562,0.17187 -0.34375,0.17188 -0.59375,0.51563 -0.23438,0.34375 -0.375,0.82812 -0.14063,0.48438 -0.14063,1.125 v 0.26563 q 0,0.51562 0.14063,0.95312 0.14062,0.4375 0.40625,0.76563 0.28125,0.32812 0.65625,0.51562 0.39062,0.1875 0.89062,0.1875 0.64063,0 1.07813,-0.25 0.4375,-0.26562 0.78125,-0.70312 l 0.71875,0.57812 q -0.21875,0.34375 -0.57813,0.65625 -0.34375,0.3125 -0.85937,0.51563 -0.51563,0.1875 -1.20313,0.1875 z m 5.92694,-1.375 1.8125,-5.79688 h 0.78125 l -0.15625,1.15625 -1.82812,5.89063 h -0.78125 z m -1.21875,-5.79688 1.54688,5.85938 0.10937,1.1875 h -0.8125 l -2.04687,-7.04688 z m 5.54688,5.8125 1.46875,-5.8125 h 1.20312 l -2.04687,7.04688 h -0.79688 z m -1.54688,-5.8125 1.76563,5.70313 0.20312,1.34375 h -0.76562 l -1.89063,-5.90625 -0.15625,-1.14063 z"
       fill-rule="nonzero"
       id="path34" />
    <path
       fill="#e4f0fb"
       d="m 220.11673,207.25737 v 0 c 0,-2.96587 2.40431,-5.37018 5.37018,-5.37018 H 361.4867 c 1.42425,0 2.79019,0.56578 3.7973,1.57289 1.00711,1.0071 1.57288,2.37303 1.57288,3.79729 v 21.4801 c 0,2.96588 -2.4043,5.3702 -5.37018,5.3702 H 225.48691 c -2.96587,0 -5.37018,-2.40432 -5.37018,-5.3702 z"
       fill-rule="evenodd"
       id="path35" />
    <path
       stroke="#4a9fea"
       stroke-width="1"
       stroke-linejoin="round"
       stroke-linecap="butt"
       d="m 220.11673,207.25737 v 0 c 0,-2.96587 2.40431,-5.37018 5.37018,-5.37018 H 361.4867 c 1.42425,0 2.79019,0.56578 3.7973,1.57289 1.00711,1.0071 1.57288,2.37303 1.57288,3.79729 v 21.4801 c 0,2.96588 -2.4043,5.3702 -5.37018,5.3702 H 225.48691 c -2.96587,0 -5.37018,-2.40432 -5.37018,-5.3702 z"
       fill-rule="evenodd"
       id="path36" />
    <path
       fill="#4a9fea"
       d="m 215.31503,211.57455 v 0 c 0,-2.96588 2.40431,-5.37019 5.37018,-5.37019 H 356.685 c 1.42425,0 2.79019,0.56578 3.7973,1.57289 1.00711,1.00711 1.57288,2.37303 1.57288,3.7973 v 21.48009 c 0,2.96588 -2.4043,5.37019 -5.37018,5.37019 H 220.68521 c -2.96587,0 -5.37018,-2.40431 -5.37018,-5.37019 z"
       fill-rule="evenodd"
       id="path37" />
    <path
       stroke="#4a9fea"
       stroke-width="2"
       stroke-linejoin="round"
       stroke-linecap="butt"
       d="m 215.31503,211.57455 v 0 c 0,-2.96588 2.40431,-5.37019 5.37018,-5.37019 H 356.685 c 1.42425,0 2.79019,0.56578 3.7973,1.57289 1.00711,1.00711 1.57288,2.37303 1.57288,3.7973 v 21.48009 c 0,2.96588 -2.4043,5.37019 -5.37018,5.37019 H 220.68521 c -2.96587,0 -5.37018,-2.40431 -5.37018,-5.37019 z"
       fill-rule="evenodd"
       id="path38" />
    <path
       fill="#ffffff"
       d="m 254.45981,224.64584 q 0,0.25 -0.10938,0.46875 -0.0937,0.20312 -0.28125,0.35937 -0.20312,0.14063 -0.48437,0.23438 -0.28125,0.0781 -0.64063,0.0781 -0.42187,0 -0.76562,-0.0937 -0.32813,-0.0937 -0.57813,-0.28125 -0.25,-0.20312 -0.39062,-0.5 -0.125,-0.3125 -0.14063,-0.73437 h -1.79687 q 0,0.73437 0.28125,1.28125 0.28125,0.54687 0.78125,0.95312 0.5,0.40625 1.1875,0.625 0.70312,0.20313 1.42187,0.20313 0.71875,0 1.32813,-0.17188 0.60937,-0.17187 1.04687,-0.51562 0.45313,-0.32813 0.70313,-0.8125 0.25,-0.48438 0.25,-1.10938 0,-0.71875 -0.34375,-1.26562 -0.32813,-0.5625 -0.875,-0.98438 -0.375,-0.25 -0.82813,-0.4375 -0.4375,-0.20312 -0.92187,-0.34375 -0.45313,-0.125 -0.82813,-0.26562 -0.35937,-0.14063 -0.60937,-0.3125 -0.25,-0.17188 -0.39063,-0.39063 -0.125,-0.21875 -0.125,-0.48437 0,-0.25 0.0937,-0.46875 0.10938,-0.21875 0.29688,-0.375 0.20312,-0.15625 0.48437,-0.23438 0.28125,-0.0937 0.64063,-0.0937 0.40625,0 0.70312,0.10938 0.29688,0.0937 0.5,0.28125 0.1875,0.20312 0.28125,0.46875 0.10938,0.26562 0.125,0.57812 h 1.78125 q 0,-0.625 -0.25,-1.15625 -0.25,-0.54687 -0.6875,-0.9375 -0.4375,-0.375 -1.0625,-0.59375 -0.60937,-0.21875 -1.35937,-0.21875 -0.70313,0 -1.32813,0.1875 -0.60937,0.1875 -1.04687,0.53125 -0.45313,0.34375 -0.71875,0.84375 -0.25,0.48438 -0.25,1.07813 0,0.51562 0.1875,0.96875 0.20312,0.4375 0.57812,0.79687 0.375,0.375 0.96875,0.6875 0.60938,0.29688 1.39063,0.5 0.5,0.14063 0.84375,0.3125 0.34375,0.15625 0.5625,0.34375 0.20312,0.1875 0.28125,0.40625 0.0937,0.21875 0.0937,0.48438 z m 6.46695,-6.29688 h -1.8125 v 1.71875 h -1.60938 v 1.34375 h 1.60938 v 3.20313 q 0,0.6875 0.1875,1.1875 0.1875,0.5 0.51562,0.8125 0.34375,0.32812 0.8125,0.48437 0.46875,0.15625 1.04688,0.15625 0.29687,0 0.60937,-0.0312 0.3125,-0.0312 0.59375,-0.0781 0.28125,-0.0625 0.53125,-0.14063 0.26563,-0.0781 0.45313,-0.1875 l -0.17188,-1.25 q -0.125,0.0312 -0.29687,0.0781 -0.17188,0.0312 -0.375,0.0469 -0.20313,0.0312 -0.42188,0.0625 -0.21875,0.0156 -0.42187,0.0156 -0.28125,0 -0.51563,-0.0625 -0.23437,-0.0781 -0.39062,-0.23438 -0.17188,-0.14062 -0.26563,-0.39062 -0.0781,-0.26563 -0.0781,-0.65625 v -3.01563 h 2.625 v -1.34375 h -2.625 z m 4.43567,5.1875 v 0.125 q 0,0.78125 0.21875,1.4375 0.21875,0.65625 0.65625,1.125 0.42187,0.48438 1.03125,0.76563 0.625,0.26562 1.42187,0.26562 0.79688,0 1.40625,-0.26562 0.625,-0.28125 1.04688,-0.76563 0.42187,-0.46875 0.64062,-1.125 0.21875,-0.65625 0.21875,-1.4375 v -0.125 q 0,-0.78125 -0.21875,-1.42187 -0.21875,-0.65625 -0.64062,-1.14063 -0.4375,-0.48437 -1.0625,-0.75 -0.60938,-0.28125 -1.40625,-0.28125 -0.78125,0 -1.40625,0.28125 -0.60938,0.26563 -1.03125,0.75 -0.4375,0.48438 -0.65625,1.14063 -0.21875,0.64062 -0.21875,1.42187 z m 1.8125,0.125 v -0.125 q 0,-0.4375 0.0781,-0.8125 0.0937,-0.39062 0.26563,-0.6875 0.1875,-0.29687 0.46875,-0.45312 0.28125,-0.17188 0.6875,-0.17188 0.42187,0 0.70312,0.17188 0.28125,0.15625 0.46875,0.45312 0.17188,0.29688 0.25,0.6875 0.0937,0.375 0.0937,0.8125 v 0.125 q 0,0.45313 -0.0937,0.84375 -0.0781,0.375 -0.25,0.65625 -0.1875,0.29688 -0.46875,0.46875 -0.28125,0.17188 -0.6875,0.17188 -0.40625,0 -0.70312,-0.17188 -0.28125,-0.17187 -0.46875,-0.46875 -0.17188,-0.28125 -0.26563,-0.65625 -0.0781,-0.39062 -0.0781,-0.84375 z m 11.48257,-3.71875 q -0.70312,0 -1.3125,0.34375 -0.59375,0.34375 -1.01562,0.9375 l -0.0156,-0.15625 -0.0781,-1 h -1.67188 v 7.04688 h 1.79688 v -4.23438 q 0.125,-0.29687 0.3125,-0.51562 0.1875,-0.21875 0.45312,-0.35938 0.23438,-0.125 0.51563,-0.1875 0.28125,-0.0625 0.625,-0.0625 0.34375,0 0.71875,0.0469 0.375,0.0312 0.73437,0.125 l 0.26563,-1.8125 q -0.21875,-0.0625 -0.5625,-0.10938 -0.34375,-0.0625 -0.76563,-0.0625 z m 7.34192,7.17188 h 1.84375 v -0.10938 q -0.14062,-0.26562 -0.21875,-0.64062 -0.0625,-0.375 -0.0625,-0.9375 v -3.01563 q 0,-0.60937 -0.23437,-1.07812 -0.21875,-0.46875 -0.625,-0.76563 -0.40625,-0.3125 -0.95313,-0.46875 -0.54687,-0.15625 -1.1875,-0.15625 -0.71875,0 -1.26562,0.1875 -0.54688,0.17188 -0.92188,0.46875 -0.39062,0.3125 -0.59375,0.71875 -0.1875,0.40625 -0.1875,0.84375 h 1.8125 q 0,-0.1875 0.0469,-0.34375 0.0625,-0.15625 0.17187,-0.26562 0.14063,-0.125 0.34375,-0.1875 0.20313,-0.0625 0.5,-0.0625 0.3125,0 0.5625,0.0781 0.25,0.0781 0.40625,0.23438 0.15625,0.14062 0.23438,0.34375 0.0781,0.1875 0.0781,0.4375 v 0.42187 h -1.01562 q -0.76563,0 -1.375,0.14063 -0.60938,0.14062 -1.01563,0.40625 -0.45312,0.28125 -0.6875,0.73437 -0.21875,0.45313 -0.21875,1.04688 0,0.45312 0.17188,0.84375 0.1875,0.39062 0.51562,0.65625 0.32813,0.28125 0.78125,0.4375 0.45313,0.15625 0.98438,0.15625 0.34375,0 0.625,-0.0625 0.28125,-0.0625 0.53125,-0.17188 0.23437,-0.0937 0.42187,-0.23437 0.20313,-0.15625 0.34375,-0.3125 0.0312,0.1875 0.0781,0.35937 0.0469,0.17188 0.10937,0.29688 z m -1.71875,-1.26563 q -0.25,0 -0.45312,-0.0625 -0.1875,-0.0625 -0.3125,-0.17187 -0.14063,-0.10938 -0.20313,-0.26563 -0.0625,-0.15625 -0.0625,-0.34375 0,-0.25 0.0781,-0.45312 0.0937,-0.20313 0.28125,-0.35938 0.20312,-0.14062 0.5,-0.21875 0.29687,-0.0781 0.71875,-0.0781 h 0.92187 v 1.20312 q -0.0781,0.14063 -0.21875,0.28125 -0.125,0.125 -0.32812,0.23438 -0.1875,0.0937 -0.42188,0.17187 -0.23437,0.0625 -0.5,0.0625 z m 5.13883,-2.3125 v 0.14063 q 0,0.76562 0.1875,1.42187 0.20312,0.65625 0.57812,1.125 0.375,0.48438 0.89063,0.75 0.53125,0.26563 1.1875,0.26563 0.32812,0 0.60937,-0.0781 0.29688,-0.0625 0.54688,-0.1875 0.15625,-0.0937 0.29687,-0.20312 0.15625,-0.125 0.28125,-0.26563 v 0.40625 q 0,0.35938 -0.10937,0.64063 -0.0937,0.28125 -0.28125,0.48437 -0.20313,0.20313 -0.51563,0.3125 -0.3125,0.125 -0.70312,0.125 -0.25,0 -0.48438,-0.0625 -0.23437,-0.0469 -0.45312,-0.14062 -0.21875,-0.0937 -0.42188,-0.25 -0.20312,-0.15625 -0.375,-0.35938 l -0.8125,1.10938 q 0.23438,0.29687 0.54688,0.5 0.32812,0.21875 0.67187,0.34375 0.35938,0.14062 0.71875,0.20312 0.375,0.0625 0.6875,0.0625 0.75,0 1.35938,-0.20312 0.625,-0.1875 1.0625,-0.57813 0.4375,-0.375 0.67187,-0.9375 0.25,-0.5625 0.25,-1.28125 v -6.8125 h -1.64062 l -0.0781,0.67188 q -0.125,-0.15625 -0.28125,-0.28125 -0.15625,-0.14063 -0.34375,-0.23438 -0.23437,-0.14062 -0.53125,-0.20312 -0.29687,-0.0781 -0.65625,-0.0781 -0.67187,0 -1.20312,0.26563 -0.51563,0.25 -0.89063,0.73437 -0.375,0.46875 -0.57812,1.14063 -0.1875,0.65625 -0.1875,1.45312 z m 1.8125,0.14063 v -0.14063 q 0,-0.4375 0.0937,-0.82812 0.0937,-0.39063 0.28125,-0.67188 0.1875,-0.29687 0.45312,-0.45312 0.28125,-0.17188 0.67188,-0.17188 0.20312,0 0.375,0.0469 0.1875,0.0312 0.34375,0.10937 0.17187,0.0781 0.3125,0.21875 0.14062,0.14063 0.23437,0.3125 v 2.98438 q -0.0937,0.15625 -0.21875,0.29687 -0.125,0.125 -0.28125,0.21875 -0.15625,0.0781 -0.35937,0.125 -0.1875,0.0469 -0.42188,0.0469 -0.375,0 -0.65625,-0.15625 -0.28125,-0.17188 -0.46875,-0.45313 -0.17187,-0.28125 -0.26562,-0.65625 -0.0937,-0.39062 -0.0937,-0.82812 z m 9.77942,3.5625 q 1.03125,0 1.78125,-0.39063 0.75,-0.39062 1.09375,-0.89062 l -0.90625,-0.96875 q -0.3125,0.40625 -0.8125,0.60937 -0.5,0.1875 -1.04688,0.1875 -0.375,0 -0.70312,-0.10937 -0.3125,-0.125 -0.54688,-0.32813 -0.25,-0.21875 -0.39062,-0.46875 -0.14063,-0.26562 -0.23438,-0.6875 v -0.0156 h 4.78125 v -0.76563 q 0,-0.78125 -0.21875,-1.42187 -0.21875,-0.64063 -0.625,-1.09375 -0.42187,-0.45313 -1.01562,-0.70313 -0.59375,-0.25 -1.35938,-0.25 -0.73437,0 -1.35937,0.26563 -0.625,0.26562 -1.07813,0.75 -0.45312,0.48437 -0.70312,1.15625 -0.25,0.65625 -0.25,1.46875 v 0.25 q 0,0.71875 0.25,1.34375 0.26562,0.60937 0.73437,1.07812 0.46875,0.45313 1.125,0.71875 0.67188,0.26563 1.48438,0.26563 z m -0.20313,-5.82813 q 0.34375,0 0.59375,0.10938 0.26563,0.0937 0.45313,0.28125 0.1875,0.1875 0.28125,0.45312 0.10937,0.25 0.10937,0.53125 v 0.14063 h -2.96875 q 0.0625,-0.34375 0.1875,-0.625 0.14063,-0.28125 0.34375,-0.48438 0.1875,-0.20312 0.4375,-0.29687 0.25,-0.10938 0.5625,-0.10938 z m 9.32632,3.76563 q 0,0.17187 -0.0781,0.3125 -0.0781,0.125 -0.23438,0.23437 -0.17187,0.10938 -0.4375,0.17188 -0.26562,0.0469 -0.60937,0.0469 -0.29688,0 -0.57813,-0.0469 -0.28125,-0.0625 -0.48437,-0.1875 -0.21875,-0.125 -0.35938,-0.32813 -0.14062,-0.21875 -0.15625,-0.5 h -1.71875 q 0,0.4375 0.20313,0.85938 0.21875,0.42187 0.625,0.75 0.40625,0.34375 1.01562,0.5625 0.60938,0.20312 1.40625,0.20312 0.71875,0 1.29688,-0.15625 0.59375,-0.17187 1.01562,-0.45312 0.40625,-0.28125 0.625,-0.67188 0.23438,-0.40625 0.23438,-0.875 0,-0.5 -0.23438,-0.85937 -0.21875,-0.375 -0.60937,-0.64063 -0.40625,-0.25 -0.95313,-0.40625 -0.54687,-0.17187 -1.17187,-0.28125 -0.45313,-0.0625 -0.73438,-0.14062 -0.28125,-0.0937 -0.45312,-0.20313 -0.17188,-0.10937 -0.23438,-0.23437 -0.0625,-0.14063 -0.0625,-0.29688 0,-0.15625 0.0781,-0.29687 0.0781,-0.14063 0.21875,-0.23438 0.15625,-0.125 0.39062,-0.1875 0.25,-0.0625 0.59375,-0.0625 0.39063,0 0.65625,0.0937 0.28125,0.0937 0.4375,0.26563 0.125,0.125 0.17188,0.28125 0.0625,0.14062 0.0625,0.3125 h 1.8125 q 0,-0.48438 -0.21875,-0.89063 -0.20313,-0.42187 -0.60938,-0.73437 -0.40625,-0.29688 -1,-0.46875 -0.57812,-0.17188 -1.3125,-0.17188 -0.70312,0 -1.26562,0.1875 -0.5625,0.17188 -0.95313,0.46875 -0.39062,0.29688 -0.60937,0.70313 -0.20313,0.39062 -0.20313,0.82812 0,0.4375 0.20313,0.78125 0.21875,0.34375 0.57812,0.60938 0.35938,0.26562 0.875,0.45312 0.51563,0.1875 1.125,0.3125 0.48438,0.0937 0.79688,0.1875 0.32812,0.0781 0.53125,0.1875 0.1875,0.10938 0.25,0.23438 0.0781,0.125 0.0781,0.28125 z m 5.67005,2.75 3.54687,-10.28125 h -1.6875 l -3.54687,10.28125 z m 8.42007,-6.60938 -1.79687,2.14063 1.15625,0.79687 1.375,-2.35937 1.375,2.42187 1.15625,-0.82812 -1.75,-2.10938 2.59375,-0.59375 -0.42188,-1.35937 -2.42187,1.0625 0.25,-2.84375 h -1.42188 l 0.23438,2.79687 -2.4375,-1.07812 -0.4375,1.32812 z"
       fill-rule="nonzero"
       id="path39" />
  </g>
</svg>
