<svg xmlns="http://www.w3.org/2000/svg" width="48" height="48" fill="none"><path fill="#FF4500" d="M24 48c13.2548 0 24-10.7452 24-24S37.2548 0 24 0 0 10.7452 0 24s10.7452 24 24 24Z"/><path fill="#fff" d="M40.0082 24.0013c-.0247-.6756-.2443-1.3296-.6323-1.8831-.388-.5536-.9278-.9831-1.5544-1.2368-.6266-.2537-1.3132-.3207-1.9771-.193-.6638.1277-1.2765.4448-1.7642.9129-2.7302-1.8559-5.9395-2.8812-9.24-2.952l1.56-7.488 5.136 1.08c.0611.5675.3224 1.0947.7371 1.487.4148.3922.9557.6238 1.5258.6531.5701.0293 1.132-.1455 1.5848-.4931.4528-.3476.7668-.8452.8858-1.4035s.0351-1.1407-.2366-1.6427c-.2718-.502-.7135-.89074-1.2461-1.09639-.5325-.20564-1.1208-.21475-1.6594-.0257-.5387.18906-.9922.56389-1.2794 1.05729l-5.88-1.17603c-.0962-.0211-.1956-.0229-.2924-.0053-.0969.0176-.1893.05425-.2719.10783-.0826.05357-.1537.12301-.2093.20429-.0556.08127-.0945.17281-.1144.26921l-1.776 8.328c-3.3411.0503-6.5945 1.0764-9.36 2.952-.37-.3481-.8112-.6117-1.2932-.7723-.4819-.1606-.993-.2145-1.4979-.158-.5048.0565-.9913.2222-1.42582.4854-.43447.2633-.80651.6178-1.09033 1.0392-.28383.4213-.47264.8993-.55337 1.4008-.08072.5016-.05142 1.0147.08587 1.5038.13729.4891.37928.9425.70922 1.3288.32993.3863.73991.6962 1.20153.9083-.027.3514-.027.7045 0 1.056 0 5.376 6.264 9.744 13.992 9.744 7.728 0 13.992-4.368 13.992-9.744.027-.3515.027-.7046 0-1.056.5922-.2944 1.0891-.7504 1.4331-1.3152.344-.5649.5211-1.2155.5109-1.8768Zm-24 2.4c0-.4747.1408-.9387.4045-1.3334.2637-.3947.6385-.7023 1.0771-.8839.4385-.1817.9211-.2292 1.3866-.1366.4656.0926.8932.3212 1.2289.6568.3356.3357.5642.7633.6568 1.2289.0926.4655.0451.9481-.1366 1.3866-.1816.4386-.4893.8134-.8839 1.0771-.3947.2637-.8587.4045-1.3334.4045-.3152 0-.6273-.0621-.9184-.1827-.2912-.1206-.5558-.2974-.7787-.5203-.2228-.2228-.3996-.4874-.5202-.7786-.1206-.2912-.1827-.6033-.1827-.9184Zm13.944 6.696c-1.7027 1.2831-3.7977 1.8402-5.928 1.752-2.1303.0882-4.2253-.5649-5.928-1.848-.1021-.1244-.1542-.2822-.1463-.4429.0079-.1607.0752-.3127.189-.4264.1137-.1138.2657-.1812.4264-.1891.1607-.0078.3186.0443.4429.1464 1.443 1.0584 3.2043 1.5918 4.992 1.512 1.7899.0973 3.5595-.4192 5.016-1.464.1273-.1242.2987-.1926.4765-.1904.088.0011.175.0196.2559.0543.0809.0347.1541.085.2156.1481.0615.063.1099.1375.1426.2193.0326.0817.0489.1691.0477.2572-.0011.088-.0195.1749-.0542.2558-.0348.0809-.0851.1542-.1481.2157ZM29.5 29.0005c-.4747 0-.9185-.244-1.3132-.5077-.3946-.2637-.7023-.6385-.8839-1.0771-.1817-.4385-.2292-.9211-.1366-1.3866.0926-.4656.3212-.8932.6568-1.2289.3357-.3356.7633-.5642 1.2289-.6568.4655-.0926.9481-.0451 1.3866.1366.4386.1816.8134.4892 1.0771.8839.2637.3947.4045.8587.4045 1.3334.013.3252-.0402.6496-.1565.9536-.1162.3039-.2931.5811-.5199.8145-.2267.2335-.4986.4184-.799.5436-.3004.1251-.6194.195-.9448.1915Z"/></svg>